<?xml version="1.0" standalone="no"?>
<!DOCTYPE svg PUBLIC "-//W3C//DTD SVG 20010904//EN"
 "http://www.w3.org/TR/2001/REC-SVG-20010904/DTD/svg10.dtd">
<svg version="1.0" xmlns="http://www.w3.org/2000/svg"
 width="398.000000pt" height="398.000000pt" viewBox="0 0 398.000000 398.000000"
 preserveAspectRatio="xMidYMid meet">

<g transform="translate(0.000000,398.000000) scale(0.100000,-0.100000)"
fill="#000000" stroke="none">
<path d="M2064 3675 c5 -14 2 -16 -16 -11 -13 4 -54 9 -93 11 -52 3 -59 2 -25
-3 l45 -7 -66 -7 c-69 -7 -153 -35 -114 -38 14 -1 7 -7 -20 -18 -68 -28 -131
-69 -164 -107 -31 -35 -42 -63 -20 -49 7 4 0 -11 -15 -32 -30 -44 -32 -54 -12
-54 11 0 12 -8 5 -37 -10 -44 -12 -148 -3 -180 4 -13 12 -23 19 -23 22 0 26
-34 10 -73 -19 -45 -19 -44 4 -50 13 -3 18 -1 14 8 -7 19 15 55 34 55 9 0 36
-21 59 -46 34 -36 47 -44 64 -39 20 6 21 11 14 63 -15 110 4 166 61 176 17 4
51 23 75 43 38 33 47 36 94 34 28 -1 64 3 80 9 16 6 46 12 67 14 21 2 59 14
84 26 25 12 48 20 51 18 2 -3 -5 -17 -17 -31 -23 -31 -12 -34 34 -10 30 15 31
15 18 0 -7 -10 -9 -17 -3 -17 6 0 19 12 30 27 18 25 20 26 30 7 18 -34 32
-160 32 -286 0 -127 -23 -267 -54 -325 -20 -39 -109 -121 -138 -127 -12 -3
-35 -7 -49 -10 -108 -23 -361 115 -385 208 -5 20 -12 26 -34 26 -15 0 -46 13
-68 30 -52 37 -93 110 -62 110 6 0 10 -5 10 -10 0 -16 43 -77 63 -90 13 -8 22
-8 31 -1 26 22 -22 149 -65 171 -23 13 -42 13 -34 1 3 -5 1 -12 -4 -15 -5 -3
-7 -16 -4 -27 5 -19 3 -21 -19 -17 -26 5 -26 5 -13 -33 8 -21 19 -47 25 -58
13 -25 88 -78 122 -86 14 -4 32 -21 43 -41 10 -20 32 -46 48 -60 21 -18 28
-31 25 -51 -2 -23 -8 -29 -34 -31 -18 -2 -40 -12 -50 -23 -29 -32 -63 -23
-154 41 -47 33 -112 77 -145 96 -45 27 -71 52 -104 101 -43 63 -117 143 -132
143 -4 0 -22 18 -39 40 l-32 40 16 62 c8 33 25 71 37 84 25 26 19 54 -10 54
-11 0 -32 -13 -48 -30 -15 -16 -31 -30 -35 -30 -7 0 -26 85 -30 140 -3 30 -7
35 -28 35 -24 0 -25 -4 -30 -64 l-5 -63 -27 56 c-28 57 -46 68 -67 42 -10 -11
-9 -21 4 -45 8 -17 20 -43 25 -57 l10 -26 -40 32 c-68 54 -98 15 -37 -48 l32
-33 -28 10 c-81 31 -94 -11 -17 -53 27 -15 55 -37 61 -49 6 -12 21 -33 33 -45
11 -13 21 -31 21 -40 1 -10 10 -37 22 -62 11 -25 28 -70 38 -100 31 -100 107
-240 150 -277 46 -39 172 -118 258 -159 l58 -29 -6 -60 c-13 -133 -30 -205
-72 -318 -24 -65 -46 -131 -50 -148 -3 -16 -7 -29 -8 -29 -22 0 -71 36 -102
75 -46 58 -96 98 -155 125 -46 21 -113 26 -123 10 -3 -6 17 -51 46 -100 28
-50 50 -92 48 -94 -2 -2 -19 -11 -38 -21 l-34 -17 -36 42 c-71 86 -176 170
-212 170 -34 0 -39 -31 -23 -151 19 -146 40 -185 142 -254 1 -1 0 -20 -4 -42
-9 -60 -33 -69 -94 -38 -60 30 -125 41 -163 26 -34 -13 -34 -28 3 -77 l29 -39
-22 -17 -22 -17 24 -25 c26 -28 99 -56 144 -56 16 0 47 5 68 12 46 13 57 7 40
-26 -10 -18 -25 -25 -63 -30 -55 -8 -98 -41 -98 -76 0 -11 -9 -39 -21 -61 -11
-23 -23 -68 -27 -101 l-7 -59 -52 -18 c-144 -49 -219 -154 -242 -337 -11 -88
-5 -106 37 -123 27 -11 30 -18 34 -69 23 -270 271 -416 536 -316 118 44 193
112 234 212 16 39 26 51 37 46 72 -29 413 -136 476 -150 118 -25 272 -23 362
4 121 37 264 148 303 234 9 19 32 31 108 56 101 33 112 32 112 -14 0 -11 7
-44 15 -72 19 -63 49 -88 89 -72 44 16 50 13 80 -50 39 -83 93 -140 168 -181
61 -33 66 -34 173 -33 127 0 187 18 269 81 179 136 217 411 94 676 l-41 88 37
38 c47 48 44 63 -30 130 -77 71 -148 103 -240 109 -41 2 -74 6 -74 8 0 2 13
40 30 86 17 45 30 92 30 105 0 13 -17 47 -38 76 -58 79 -127 194 -162 269
l-32 68 30 25 c43 36 71 101 82 186 17 132 22 146 60 172 27 18 35 30 33 51
-3 44 -22 59 -63 52 -24 -4 -54 1 -88 14 -29 11 -72 20 -97 20 -54 0 -58 14
-10 35 74 30 98 162 40 212 -30 27 -55 29 -95 8 -36 -19 -65 -90 -56 -137 4
-18 10 -64 12 -103 l6 -70 -54 -14 c-86 -23 -111 -18 -186 37 -37 28 -105 73
-152 102 -47 29 -101 67 -120 86 -19 18 -57 43 -84 55 l-49 21 39 18 c42 18
113 89 138 137 34 67 57 225 54 380 -2 117 1 160 14 207 l18 60 -26 43 c-14
24 -22 48 -19 54 7 10 -61 79 -78 79 -4 0 -5 9 -2 20 5 17 1 21 -26 27 -31 6
-31 6 -9 18 20 10 20 13 5 18 -9 4 -35 7 -57 7 -26 0 -45 6 -53 16 -9 13 -16
14 -33 5 -18 -10 -27 -8 -49 8 -16 11 -39 22 -52 26 -20 6 -23 4 -17 -10z
m-984 -358 c0 -18 7 -59 15 -91 15 -57 15 -60 -5 -81 -21 -22 -28 -65 -10 -65
6 0 10 9 10 20 0 20 102 130 120 130 5 0 -2 -16 -15 -36 -14 -20 -25 -45 -25
-55 0 -38 -24 -65 -86 -96 l-64 -31 -30 36 c-16 20 -30 40 -30 44 0 4 -24 21
-52 38 -60 34 -57 37 13 13 26 -10 51 -14 55 -10 4 4 -14 30 -41 57 -60 61
-54 75 9 20 75 -64 85 -51 36 51 -16 35 -27 65 -23 68 3 4 8 2 10 -4 13 -32
70 -119 81 -123 9 -3 12 17 12 72 0 44 4 76 10 76 6 0 10 -15 10 -33z m95
-318 c16 -22 41 -47 55 -54 35 -18 82 -72 137 -158 25 -37 50 -66 56 -64 14 4
121 -63 231 -145 60 -45 81 -56 87 -46 7 10 9 10 9 -2 0 -8 24 -64 53 -123
l54 -109 32 41 c26 33 38 41 59 38 30 -4 57 -49 67 -114 6 -38 5 -42 -17 -45
-53 -7 -56 -100 -3 -114 22 -5 25 -12 25 -48 -1 -104 -52 -462 -69 -479 -9 -9
-217 26 -322 54 -69 19 -76 23 -88 54 -21 58 -48 85 -88 85 l-35 0 7 38 c4 20
26 90 50 154 50 135 62 185 71 298 l7 82 29 -4 c53 -8 38 9 -31 36 -76 30
-222 111 -293 163 -31 23 -60 56 -83 97 -44 78 -95 202 -95 230 0 11 -11 39
-25 61 -13 22 -25 45 -25 50 0 14 79 65 101 65 9 0 29 -18 44 -41z m778 -388
c30 -15 76 -34 104 -41 l49 -13 -24 -24 c-19 -19 -23 -32 -20 -64 3 -31 0 -39
-13 -39 -57 0 -209 91 -190 114 5 6 12 27 16 46 7 35 13 50 20 50 1 0 28 -13
58 -29z m-103 -25 c0 -3 -4 -8 -10 -11 -5 -3 -10 -1 -10 4 0 6 5 11 10 11 6 0
10 -2 10 -4z m1134 -22 c38 -38 31 -121 -14 -166 -31 -31 -55 -36 -64 -13 -3
8 -12 15 -20 15 -17 0 -26 22 -26 66 0 86 76 146 124 98z m-1174 -9 c0 -8 35
-52 78 -97 42 -44 67 -76 55 -69 -20 10 -25 7 -50 -24 -15 -19 -31 -35 -34
-35 -10 0 -89 176 -89 197 0 19 18 43 32 43 4 0 8 -7 8 -15z m453 -30 c58 -24
97 -63 97 -96 0 -36 -27 -49 -107 -49 -139 0 -218 72 -155 143 19 22 114 23
165 2z m-217 -114 c27 -5 63 -16 79 -25 17 -9 37 -16 45 -16 34 -1 41 -15 25
-53 -8 -20 -15 -52 -15 -72 0 -39 -2 -40 -97 -29 -49 6 -53 9 -53 33 0 55 -22
102 -75 159 l-54 58 48 -23 c26 -13 69 -27 97 -32z m437 -64 c40 -27 140 -177
118 -177 -5 0 -34 35 -64 78 -38 53 -69 85 -98 101 -58 32 -70 42 -63 52 5 9
44 -11 107 -54z m28 -89 c61 -89 63 -85 -45 -73 -52 5 -98 13 -102 17 -4 4
-13 29 -21 55 l-13 48 3 -59 4 -58 -36 6 c-20 3 -53 6 -73 6 -35 0 -38 2 -38
28 0 38 17 94 35 117 8 11 15 16 14 10 -3 -16 33 -95 43 -95 4 0 8 22 8 50 0
47 1 50 33 58 51 15 138 -36 188 -110z m389 61 c0 -27 -4 -49 -10 -49 -5 0
-10 25 -10 56 0 34 4 53 10 49 6 -3 10 -28 10 -56z m-620 11 c0 -16 -2 -30 -4
-30 -2 0 -9 14 -15 30 -8 24 -7 30 5 30 9 0 14 -10 14 -30z m313 -40 c20 -14
37 -31 37 -38 0 -7 14 -15 30 -19 42 -8 44 -16 11 -47 l-29 -28 -49 74 c-27
40 -53 79 -58 87 -9 15 -6 14 58 -29z m347 10 c0 -5 -2 -10 -4 -10 -3 0 -8 5
-11 10 -3 6 -1 10 4 10 6 0 11 -4 11 -10z m69 -23 l25 -32 -30 25 c-16 14 -33
28 -38 32 -6 5 -4 8 5 7 7 0 25 -14 38 -32z m41 13 c0 -13 -11 -13 -30 0 -12
8 -11 10 8 10 12 0 22 -4 22 -10z m-115 -20 c3 -5 1 -10 -4 -10 -6 0 -11 5
-11 10 0 6 2 10 4 10 3 0 8 -4 11 -10z m50 -10 c10 -11 14 -20 9 -20 -5 0 -15
9 -22 20 -7 11 -11 20 -9 20 2 0 12 -9 22 -20z m21 -55 c66 -43 103 -146 83
-233 -22 -98 -79 -152 -161 -152 -89 0 -158 90 -158 205 0 68 23 127 63 164
45 41 124 49 173 16z m-236 -14 c0 -18 -52 -71 -70 -71 -30 0 -32 16 -4 49 24
29 74 44 74 22z m-429 -67 l-9 -39 -1 36 c-1 20 2 39 6 42 12 13 13 0 4 -39z
m779 11 c0 -14 -4 -25 -10 -25 -11 0 -14 33 -3 43 11 11 13 8 13 -18z m-954
-55 c18 -7 22 -22 33 -127 7 -65 15 -123 17 -130 2 -9 -18 -12 -74 -12 -42 0
-88 3 -102 5 -25 5 -26 6 -19 62 4 31 8 84 8 117 2 99 4 103 64 97 29 -3 61
-8 73 -12z m177 -21 c54 -14 50 -52 -8 -84 l-30 -17 36 5 37 5 15 -56 c24 -86
30 -153 22 -237 -7 -76 -7 -77 -43 -92 -20 -8 -60 -17 -89 -20 l-53 -6 0 154
c0 85 -7 197 -15 249 -8 52 -15 100 -15 107 0 13 74 9 143 -8z m168 -53 c24
-14 64 -30 89 -36 34 -9 51 -20 67 -46 l22 -34 -38 -10 c-54 -14 -115 -62
-136 -106 -10 -22 -21 -65 -23 -96 -4 -55 -5 -56 -27 -46 -21 10 -23 17 -28
132 -3 78 -11 138 -22 169 -34 94 5 123 96 73z m95 4 c13 0 24 -4 24 -10 0
-14 -19 -12 -55 6 -16 8 -22 12 -12 9 10 -3 30 -5 43 -5z m-1470 -32 c48 -22
114 -76 143 -116 l19 -27 -53 3 c-51 4 -54 6 -60 34 -7 30 -88 118 -109 118
-6 0 10 -19 36 -42 50 -47 78 -106 56 -120 -24 -15 -35 -8 -61 40 -15 26 -38
66 -52 89 l-25 42 32 -1 c18 0 52 -9 74 -20z m-250 -68 c31 -25 73 -65 92 -90
20 -25 39 -49 43 -54 4 -4 38 4 76 20 125 51 291 33 301 -33 5 -32 -53 -36
-91 -6 -35 28 -102 38 -157 23 -39 -10 -56 -24 -118 -92 -45 -48 -101 -91
-110 -83 -5 6 -26 23 -46 38 -44 34 -68 69 -72 105 -2 15 -10 67 -18 116 -8
49 -13 92 -11 96 11 18 61 0 111 -40z m1844 -60 c0 -5 -5 -10 -11 -10 -5 0 -8
-4 -5 -9 3 -4 -7 -6 -22 -4 -20 3 -23 2 -13 -5 11 -8 8 -13 -15 -25 -86 -45
-108 -127 -84 -312 5 -38 18 -140 29 -226 24 -180 27 -160 -65 -389 l-58 -145
-13 52 c-13 52 -13 53 37 190 27 75 50 151 50 168 0 16 -11 129 -25 250 -27
243 -30 293 -15 346 11 41 62 96 105 115 36 16 105 18 105 4z m190 -279 c62
-114 102 -177 117 -184 15 -6 49 -7 103 -1 44 6 80 7 80 3 0 -9 -129 -39 -168
-39 -16 0 -36 8 -44 18 -17 18 -228 436 -228 449 0 10 24 -31 140 -246z m-794
202 c-10 -10 -19 5 -10 18 6 11 8 11 12 0 2 -7 1 -15 -2 -18z m-819 -45 c39
-39 36 -102 -6 -140 -17 -15 -39 -28 -49 -28 -10 1 -4 7 15 15 38 16 53 42 53
89 0 44 -26 73 -72 80 -76 13 -80 15 -25 12 47 -2 63 -8 84 -28z m174 22 c20
-11 49 -60 49 -82 0 -7 -9 6 -20 29 -14 32 -26 44 -52 52 -18 5 -25 10 -15 10
10 1 27 -4 38 -9z m1527 -15 c-3 -3 -9 2 -12 12 -6 14 -5 15 5 6 7 -7 10 -15
7 -18z m-1520 -26 c19 -31 4 -38 -18 -9 -11 14 -20 28 -20 32 0 13 25 -2 38
-23z m-217 1 c10 -6 19 -19 19 -28 0 -26 -80 -18 -87 9 -3 10 -15 20 -27 22
-11 2 1 5 27 6 27 0 57 -4 68 -9z m156 -69 c10 -16 9 -18 -8 -14 -10 3 -19 1
-19 -5 0 -5 26 -13 58 -17 l57 -8 -35 -12 c-45 -15 -51 -46 -15 -79 40 -37 81
-43 118 -16 l30 23 -7 -29 c-4 -16 -17 -39 -29 -52 -26 -28 -64 -26 -59 3 4
19 3 19 -20 -2 -84 -78 -194 -67 -288 31 -42 44 -72 57 -85 37 -3 -5 7 -11 22
-13 20 -2 34 -16 57 -55 37 -62 76 -95 124 -102 49 -8 46 -25 -6 -29 -45 -3
-49 -22 -4 -22 24 -1 25 -2 8 -12 -36 -20 -166 -5 -237 29 -78 37 -192 120
-184 134 4 5 1 8 -6 7 -7 -2 -14 5 -17 14 -2 12 14 26 59 49 101 51 129 58
164 43 47 -20 123 -17 173 7 34 17 49 32 64 65 16 36 24 44 46 44 16 0 32 -8
39 -19z m1633 -1 c6 -11 8 -20 6 -20 -3 0 -10 9 -16 20 -6 11 -8 20 -6 20 3 0
10 -9 16 -20z m30 -50 c6 -11 8 -20 6 -20 -3 0 -10 9 -16 20 -6 11 -8 20 -6
20 3 0 10 -9 16 -20z m-2294 -96 c30 -14 54 -29 54 -34 0 -5 12 -23 26 -40 40
-47 21 -48 -39 -1 -71 54 -85 53 -17 -1 51 -42 52 -43 25 -46 -73 -9 -225 97
-200 138 12 19 95 10 151 -16z m2385 -41 c13 -16 12 -17 -3 -4 -17 13 -22 21
-14 21 2 0 10 -8 17 -17z m-2438 -73 c19 -11 52 -21 73 -23 39 -2 57 -14 48
-29 -10 -15 -109 -8 -150 11 -62 28 -64 42 -7 60 1 1 17 -8 36 -19z m584 -26
c-7 -7 -64 22 -72 37 -4 6 12 1 35 -11 23 -12 40 -24 37 -26z m153 31 c-10
-13 -8 -19 13 -36 36 -27 51 -83 32 -119 -16 -30 -39 -43 -64 -35 -9 3 -31 35
-49 71 -24 51 -29 70 -21 81 6 7 17 13 23 13 16 0 52 -38 66 -70 15 -34 5 6
-11 47 -10 26 -10 34 0 47 8 9 16 16 18 16 3 0 0 -7 -7 -15z m-497 -49 c124
-83 258 -114 353 -82 26 9 50 16 53 16 12 0 -17 -21 -54 -39 -22 -11 -33 -20
-25 -21 8 0 33 9 54 21 21 11 39 19 40 17 0 -2 9 -16 18 -33 17 -30 17 -30
-14 -61 l-30 -32 -55 29 c-30 16 -70 29 -89 29 -46 0 -137 42 -209 96 l-60 46
52 -50 c29 -26 75 -59 102 -72 l49 -22 -33 -29 c-18 -16 -37 -29 -43 -29 -12
0 -99 99 -136 156 -23 35 -51 104 -42 104 2 0 33 -20 69 -44z m1836 7 c21 -75
10 -89 -80 -100 -60 -7 -69 1 -69 64 0 41 0 41 48 52 54 11 61 7 68 -41 5 -31
3 -36 -17 -41 -13 -4 -39 -7 -57 -7 -22 0 -31 -4 -26 -11 6 -10 76 -5 110 8
17 6 19 66 4 94 -7 12 -7 19 -1 19 6 0 15 -17 20 -37z m-1918 4 c-1 -12 -15
-9 -19 4 -3 6 1 10 8 8 6 -3 11 -8 11 -12z m995 -6 c48 -22 156 -120 202 -185
l33 -46 -24 0 c-15 0 -38 13 -56 33 -23 23 -30 26 -25 12 4 -11 11 -26 17 -32
7 -10 -3 -13 -44 -13 -122 0 -258 -52 -378 -143 -41 -32 -83 -57 -93 -57 -25
0 -88 27 -110 47 -10 9 -18 29 -18 45 0 24 21 49 118 142 193 187 232 215 302
215 19 0 53 -8 76 -18z m479 -111 c11 -36 23 -69 26 -75 4 -5 9 -22 13 -37 3
-16 13 -28 22 -28 8 0 22 -16 30 -36 13 -32 13 -41 -1 -89 -8 -29 -15 -65 -15
-81 0 -24 -4 -20 -39 33 -21 33 -64 80 -94 105 -31 25 -54 47 -52 49 2 2 6 44
10 93 7 97 26 138 60 133 14 -1 24 -18 40 -67z m-1378 -37 c25 -29 41 -53 36
-53 -14 0 -28 14 -43 44 -8 16 -29 38 -47 50 -25 17 -30 25 -21 34 9 9 14 8
22 -5 5 -10 29 -42 53 -70z m-69 27 c18 -11 38 -32 44 -46 11 -23 10 -28 -7
-40 -22 -17 -35 -17 -70 -4 -22 8 -26 15 -23 35 4 21 3 23 -9 13 -8 -6 -12
-17 -9 -25 4 -9 -3 -13 -20 -13 -30 0 -40 21 -23 52 l12 23 -22 -19 c-12 -11
-19 -26 -16 -33 2 -8 0 -11 -5 -8 -6 3 -10 17 -10 30 0 50 97 72 158 35z m597
-50 c-22 -22 -45 -38 -52 -36 -7 3 -12 0 -10 -7 1 -7 -4 -11 -11 -9 -8 1 -11
-2 -8 -6 3 -5 -3 -17 -13 -26 -18 -17 -20 -17 -29 1 -8 15 -3 26 24 56 19 20
44 37 55 37 11 0 30 11 42 24 14 16 26 21 32 15 6 -6 -5 -24 -30 -49z m1013
-27 c3 -32 2 -33 -37 -33 -45 0 -71 8 -71 22 0 5 14 7 33 4 24 -5 27 -4 12 3
-11 5 -28 12 -37 15 -37 11 -16 23 40 22 57 -1 57 -1 60 -33z m735 20 c-18 -2
-48 -2 -65 0 -18 2 -4 4 32 4 36 0 50 -2 33 -4z m-1967 -19 c57 -27 111 -104
73 -104 -6 0 -7 5 -3 12 5 8 2 9 -12 3 -69 -28 -73 -29 -99 -17 -22 10 -26 18
-22 37 6 33 -11 32 -19 0 -4 -15 -13 -25 -24 -25 -23 0 -44 26 -36 45 3 8 1
15 -4 15 -9 0 -14 -15 -11 -33 1 -5 -4 -7 -11 -5 -24 8 -20 45 8 67 33 26 110
28 160 5z m924 -16 c-24 -20 -24 -20 -2 -14 17 6 22 3 22 -10 0 -18 -27 -16
-84 6 -35 13 -31 18 30 34 59 15 67 11 34 -16z m907 26 c-3 -3 -12 -4 -19 -1
-8 3 -5 6 6 6 11 1 17 -2 13 -5z m213 -4 c18 -12 2 -12 -25 0 -13 6 -15 9 -5
9 8 0 22 -4 30 -9z m-253 -6 c-3 -3 -12 -4 -19 -1 -8 3 -5 6 6 6 11 1 17 -2
13 -5z m-52 -14 c-17 -7 -17 -9 -3 -9 33 -2 113 -33 163 -64 42 -26 63 -32
135 -37 l85 -5 -74 -18 c-40 -9 -82 -17 -92 -17 -10 0 -39 18 -64 40 -54 46
-105 74 -155 85 -50 10 -59 18 -30 26 36 10 59 9 35 -1z m-1978 -26 c-3 -3
-12 -4 -19 -1 -8 3 -5 6 6 6 11 1 17 -2 13 -5z m2413 -39 c19 -19 32 -35 29
-35 -3 0 -20 16 -39 35 -19 19 -32 35 -29 35 3 0 20 -16 39 -35z m-1387 18
c-29 -2 -77 -2 -105 0 -29 2 -6 3 52 3 58 0 81 -1 53 -3z m81 -15 c-5 -7 -2
-9 9 -5 9 3 18 0 21 -9 3 -8 11 -14 18 -14 9 0 9 3 -2 11 -10 7 -11 9 -2 7 8
-2 14 -8 14 -13 0 -6 15 -27 34 -47 42 -47 87 -135 79 -155 -4 -12 -19 -2 -64
40 -35 33 -84 67 -123 85 -97 44 -111 87 -32 102 56 11 56 11 48 -2z m342 -10
c-3 -13 -6 -27 -7 -33 -1 -12 -17 25 -18 43 -1 6 6 12 15 12 12 0 15 -6 10
-22z m-215 -55 c13 -16 12 -17 -3 -4 -10 7 -18 15 -18 17 0 8 8 3 21 -13z
m-1193 -159 c23 -20 46 -43 51 -52 8 -15 2 -17 -45 -18 -35 0 -54 3 -54 11 0
9 -11 9 -47 0 -27 -7 -51 -11 -55 -8 -17 9 -6 22 35 39 31 13 37 18 23 22 -16
3 -14 6 10 22 16 10 32 19 35 19 3 1 24 -15 47 -35z m2053 -145 c63 -88 88
-233 55 -312 -17 -42 -70 -87 -102 -87 -72 0 -148 78 -179 184 -21 70 -19 87
6 57 11 -14 17 -31 14 -42 -7 -20 12 -62 23 -55 4 2 16 -2 26 -10 16 -11 17
-16 6 -29 -11 -13 -9 -20 10 -40 13 -14 27 -25 32 -25 4 0 8 22 8 49 0 56 24
79 35 33 22 -95 25 -100 44 -95 11 3 28 14 37 24 17 19 16 21 -24 62 -37 38
-53 67 -37 67 3 0 23 -9 45 -20 22 -11 42 -20 45 -20 3 0 5 21 5 46 l0 46 -50
-7 c-42 -6 -50 -4 -50 9 0 9 18 25 40 36 22 11 40 24 40 28 0 12 -39 72 -48
72 -4 0 -16 -22 -27 -50 -11 -27 -23 -50 -28 -50 -11 0 -7 152 5 167 14 17 40
2 69 -38z m-118 -59 l6 -35 -14 30 c-7 17 -11 34 -8 38 7 12 9 7 16 -33z m21
-150 c1 -31 -2 -35 -25 -38 -30 -3 -36 4 -68 75 l-24 51 29 38 29 37 29 -64
c16 -35 29 -80 30 -99z m-2326 125 c89 -28 199 -100 254 -165 l34 -42 116 31
c151 41 150 41 146 -11 l-3 -42 -128 -38 -129 -39 -296 96 c-164 53 -302 103
-308 110 -19 25 -4 74 27 90 77 40 180 44 287 10z m787 -95 c178 -52 291 -70
434 -70 197 0 354 36 459 105 57 39 63 35 30 -16 -49 -74 -209 -126 -418 -136
-187 -9 -371 20 -615 97 -100 32 -125 48 -125 81 0 17 5 16 63 -5 34 -13 112
-38 172 -56z m1563 -1 c-3 -8 -7 -3 -11 10 -4 17 -3 21 5 13 5 -5 8 -16 6 -23z
m-2268 -223 c0 -27 -28 -49 -60 -49 -27 0 -41 8 -71 41 -20 23 -39 50 -42 61
-4 17 2 16 84 -11 49 -16 89 -35 89 -42z"/>
<path d="M2883 2181 c-31 -20 -63 -67 -63 -93 0 -7 10 6 21 30 26 52 68 76
116 69 41 -7 59 -21 85 -62 10 -16 18 -24 18 -17 0 7 -15 28 -33 48 -41 45
-96 55 -144 25z"/>
<path d="M3061 2074 c0 -11 3 -14 6 -6 3 7 2 16 -1 19 -3 4 -6 -2 -5 -13z"/>
<path d="M2813 2025 c0 -22 2 -30 4 -17 2 12 2 30 0 40 -3 9 -5 -1 -4 -23z"/>
<path d="M3072 2020 c0 -19 2 -27 5 -17 2 9 2 25 0 35 -3 9 -5 1 -5 -18z"/>
<path d="M2821 1964 c0 -11 3 -14 6 -6 3 7 2 16 -1 19 -3 4 -6 -2 -5 -13z"/>
<path d="M3061 1964 c0 -11 3 -14 6 -6 3 7 2 16 -1 19 -3 4 -6 -2 -5 -13z"/>
<path d="M2830 1932 c0 -21 65 -82 87 -82 11 1 6 6 -14 15 -18 8 -42 29 -53
47 -11 18 -20 27 -20 20z"/>
<path d="M3042 1915 c-6 -14 -26 -34 -44 -45 -18 -11 -28 -20 -22 -20 26 0 95
73 81 86 -2 2 -9 -7 -15 -21z"/>
<path d="M836 1918 c48 -52 53 -61 68 -125 11 -51 12 -61 0 -56 -23 9 -35 -6
-23 -29 6 -11 15 -34 19 -49 8 -27 7 -28 -11 -18 -11 6 -34 31 -50 57 -16 25
-29 41 -29 35 0 -17 55 -88 84 -106 l26 -17 0 30 c0 17 -7 42 -16 55 -15 23
-15 25 0 25 9 0 21 -11 26 -24 18 -50 25 -33 9 22 -10 31 -23 78 -29 104 -12
47 -71 128 -93 128 -6 0 3 -15 19 -32z"/>
<path d="M1663 1265 c-9 -10 -7 -17 10 -33 27 -24 101 -47 94 -29 -3 7 -10 11
-16 10 -6 -2 -10 2 -8 9 1 6 -8 16 -19 23 -12 6 -28 16 -35 22 -10 8 -17 8
-26 -2z"/>
<path d="M2267 3210 c-35 -11 -57 -28 -57 -46 0 -12 6 -12 36 1 42 17 97 20
125 5 27 -15 25 6 -3 24 -32 20 -68 26 -101 16z"/>
<path d="M1943 3175 c-27 -12 -53 -41 -53 -60 0 -3 13 4 29 16 27 19 38 21
101 16 53 -4 70 -3 67 6 -11 34 -89 46 -144 22z"/>
<path d="M2246 3089 c-29 -23 -34 -54 -10 -63 9 -3 42 -6 74 -6 59 0 90 15 90
45 0 44 -107 61 -154 24z m109 -13 c11 -8 16 -19 12 -30 -10 -27 -34 -18 -39
14 -5 33 0 36 27 16z m-90 -44 c-1 -1 -9 0 -18 4 -14 5 -15 10 -5 27 12 22 12
22 18 -3 4 -14 6 -26 5 -28z m35 44 c0 -3 -4 -8 -10 -11 -5 -3 -10 -1 -10 4 0
6 5 11 10 11 6 0 10 -2 10 -4z"/>
<path d="M1935 3064 c-50 -26 -56 -46 -22 -69 21 -13 33 -14 96 -2 90 18 103
28 71 62 -18 20 -33 25 -69 25 -25 0 -59 -7 -76 -16z m59 -25 c-3 -5 -10 -7
-15 -3 -5 3 -7 10 -3 15 3 5 10 7 15 3 5 -3 7 -10 3 -15z m72 6 c16 -13 17
-16 4 -25 -25 -17 -40 -11 -40 15 0 29 8 31 36 10z m-106 -20 c0 -15 -6 -25
-14 -25 -23 0 -28 17 -10 34 21 21 24 20 24 -9z"/>
<path d="M2191 3048 c-1 -16 8 -55 20 -88 27 -78 22 -90 -36 -90 -40 0 -45 3
-45 22 0 16 -3 19 -11 11 -40 -40 49 -79 109 -47 32 17 41 41 23 60 -6 5 -21
43 -35 84 -16 50 -25 66 -25 48z"/>
<path d="M2230 2809 c-30 -4 -93 -10 -139 -12 -53 -2 -86 -8 -89 -15 -2 -7 2
-12 10 -12 7 0 23 -16 36 -36 26 -40 75 -65 124 -63 30 2 31 2 6 6 -47 7 -32
25 17 20 51 -4 57 1 98 76 29 53 32 51 -63 36z m37 -36 c-24 -24 -197 -32
-215 -11 -9 12 -1 13 51 10 34 -1 82 1 107 6 71 15 77 15 57 -5z"/>
</g>
</svg>
