<svg id="svg" version="1.1" xmlns="http://www.w3.org/2000/svg" xmlns:xlink="http://www.w3.org/1999/xlink" width="400" height="400" viewBox="0, 0, 400,400"><g id="svgg"><path id="path0" d="M228.256 33.877 C 228.104 34.029,226.679 34.400,225.090 34.700 C 219.774 35.705,219.005 35.879,218.000 36.299 C 217.450 36.529,216.190 36.934,215.200 37.200 C 214.210 37.466,212.950 37.877,212.400 38.114 C 211.320 38.580,208.668 39.584,208.492 39.594 C 208.433 39.597,208.499 39.147,208.638 38.592 C 208.979 37.234,208.134 35.328,207.067 35.049 C 204.453 34.364,193.689 40.147,191.126 43.614 C 190.395 44.603,190.161 44.700,189.439 44.311 C 188.635 43.879,188.091 43.733,183.973 42.845 C 179.979 41.984,178.415 43.006,178.406 46.481 L 178.400 48.762 172.100 48.924 C 164.113 49.129,159.981 50.076,157.875 52.182 C 156.509 53.549,157.428 56.581,159.304 56.896 C 160.003 57.013,159.826 57.154,158.500 57.538 C 157.565 57.809,156.800 58.184,156.800 58.372 C 156.800 58.560,156.391 58.816,155.892 58.941 C 153.224 59.611,152.366 62.547,154.200 64.727 C 155.493 66.264,155.586 66.053,152.700 68.118 C 145.342 73.381,139.367 82.910,141.860 85.403 C 142.474 86.017,142.459 86.167,141.640 87.532 C 141.156 88.339,140.408 89.810,139.977 90.800 C 139.547 91.790,138.957 93.050,138.667 93.600 C 138.377 94.150,137.917 95.410,137.645 96.400 C 137.373 97.390,136.949 98.740,136.703 99.400 C 135.945 101.432,136.127 103.612,137.121 104.417 C 137.891 105.040,138.000 105.517,138.000 108.275 C 138.000 111.830,138.618 113.200,140.223 113.200 C 141.130 113.200,141.200 113.344,141.200 115.225 C 141.200 117.609,142.046 120.405,143.855 124.000 L 145.163 126.600 145.346 134.800 C 145.447 139.310,145.826 147.050,146.189 152.000 C 146.551 156.950,146.995 163.430,147.175 166.400 C 147.578 173.076,148.229 178.309,148.733 178.930 C 148.943 179.188,149.204 180.210,149.313 181.200 C 149.537 183.225,150.234 186.080,150.757 187.114 C 150.948 187.491,151.410 189.060,151.783 190.600 C 152.156 192.140,152.627 193.571,152.830 193.780 C 153.034 193.989,153.200 194.568,153.200 195.066 C 153.200 195.565,153.448 196.564,153.752 197.286 C 154.594 199.289,155.200 201.369,155.200 202.252 C 155.200 202.689,155.464 203.396,155.787 203.824 C 156.110 204.251,156.380 204.994,156.387 205.476 C 156.394 205.958,156.580 206.464,156.800 206.600 C 157.020 206.736,157.200 207.135,157.200 207.486 C 157.200 208.499,161.025 215.995,162.688 218.242 C 166.388 223.241,167.627 224.724,169.663 226.600 C 172.413 229.132,175.924 232.088,176.758 232.573 C 177.111 232.778,178.237 233.607,179.261 234.414 C 180.851 235.668,185.511 238.195,188.200 239.261 C 190.385 240.128,192.702 240.790,193.600 240.805 C 195.123 240.830,192.066 243.598,190.506 243.606 C 189.898 243.609,188.680 243.871,187.800 244.188 C 186.920 244.505,185.536 244.773,184.724 244.782 C 183.912 244.792,183.136 244.980,183.000 245.200 C 182.864 245.420,182.152 245.600,181.417 245.600 C 180.269 245.600,175.384 247.635,174.800 248.357 C 174.690 248.493,173.949 249.090,173.152 249.683 C 169.398 252.479,162.461 264.200,152.078 285.290 C 149.725 290.069,147.694 293.984,147.564 293.990 C 147.351 293.999,145.820 292.183,142.070 287.471 C 140.428 285.407,133.147 278.000,132.760 278.000 C 132.454 278.000,123.235 267.086,122.367 265.696 C 121.815 264.812,121.857 264.646,123.437 261.468 C 123.747 260.845,124.000 260.000,124.000 259.591 C 124.000 259.182,124.180 258.736,124.400 258.600 C 124.620 258.464,124.800 258.025,124.800 257.625 C 124.800 257.225,125.070 256.674,125.400 256.400 C 125.730 256.126,126.000 255.484,126.000 254.972 C 126.000 254.461,126.450 253.196,127.000 252.162 C 127.550 251.127,128.000 250.047,128.000 249.762 C 128.000 249.476,128.450 248.396,129.000 247.362 C 129.550 246.327,130.000 245.157,130.000 244.762 C 130.000 244.366,130.455 243.186,131.012 242.140 C 131.568 241.093,131.939 240.017,131.835 239.748 C 131.732 239.479,131.907 239.043,132.224 238.780 C 132.541 238.517,132.800 237.771,132.800 237.122 C 132.800 236.474,133.070 235.673,133.400 235.343 C 134.139 234.604,134.183 232.643,133.478 231.929 C 133.190 231.638,132.836 231.085,132.690 230.700 C 132.413 229.969,131.600 229.726,131.600 230.374 C 131.600 230.580,131.786 231.236,132.013 231.834 C 132.375 232.787,132.351 232.857,131.813 232.411 C 131.377 232.049,131.200 232.035,131.200 232.364 C 131.200 232.617,131.470 232.929,131.800 233.055 C 132.201 233.209,132.398 233.834,132.394 234.943 C 132.390 236.093,132.277 236.424,132.024 236.026 C 131.719 235.543,131.558 235.537,131.014 235.989 C 130.523 236.396,130.254 236.414,129.903 236.063 C 128.610 234.770,126.964 236.399,125.404 240.519 C 124.413 243.134,123.973 243.273,120.200 242.152 C 110.015 239.127,98.090 238.972,96.210 241.840 C 95.514 242.904,94.400 243.130,94.400 242.209 C 94.400 240.992,92.581 240.297,90.311 240.647 C 89.150 240.826,88.020 240.978,87.800 240.986 C 87.557 240.995,87.400 239.276,87.400 236.600 L 87.400 232.200 86.310 232.074 C 85.710 232.005,84.747 231.448,84.169 230.836 C 81.136 227.622,70.360 235.127,66.429 243.190 C 65.837 244.406,64.831 246.210,64.195 247.200 C 63.559 248.190,62.903 249.900,62.738 251.000 C 62.573 252.100,62.228 254.109,61.970 255.464 C 60.173 264.912,64.913 272.575,75.000 276.527 C 81.172 278.945,84.125 279.827,89.621 280.895 C 91.755 281.309,91.872 281.398,92.597 283.163 C 93.013 284.173,94.470 286.548,95.835 288.440 C 99.916 294.094,102.523 298.338,104.902 303.200 C 107.054 307.596,110.657 313.509,113.800 317.800 C 114.606 318.900,116.514 321.510,118.040 323.600 C 119.566 325.690,121.397 328.116,122.107 328.992 C 126.509 334.413,127.176 335.600,125.824 335.600 C 125.287 335.600,124.736 335.780,124.600 336.000 C 124.464 336.220,124.025 336.400,123.625 336.400 C 123.225 336.400,122.674 336.670,122.400 337.000 C 122.126 337.330,121.412 337.600,120.813 337.600 C 120.214 337.600,119.398 337.960,119.000 338.400 C 118.602 338.840,118.034 339.200,117.739 339.200 C 117.015 339.200,111.200 344.758,111.200 345.451 C 111.200 345.753,111.022 346.000,110.805 346.000 C 108.553 346.000,107.481 354.119,109.400 356.636 C 109.950 357.357,110.400 358.106,110.400 358.302 C 110.400 358.771,115.484 363.626,116.944 364.551 C 119.322 366.058,123.343 368.000,124.085 368.000 C 124.510 368.000,125.127 368.270,125.457 368.600 C 125.787 368.930,126.484 369.200,127.005 369.200 C 127.526 369.200,128.064 369.380,128.200 369.600 C 128.336 369.820,129.225 370.000,130.175 370.000 C 131.276 370.000,132.096 370.234,132.438 370.645 C 132.848 371.140,133.414 371.239,134.856 371.068 C 136.254 370.902,136.868 371.000,137.239 371.447 C 137.622 371.909,138.472 372.025,140.866 371.943 C 143.423 371.856,144.084 371.960,144.496 372.515 C 144.941 373.114,146.116 373.205,154.600 373.296 L 164.200 373.400 164.418 375.400 C 164.684 377.847,165.573 379.558,167.091 380.549 C 169.228 381.943,170.100 384.066,169.623 386.711 C 169.396 387.970,169.163 391.475,169.105 394.500 L 169.000 400.000 172.100 400.000 L 175.200 400.000 175.227 397.500 C 175.258 394.519,176.100 386.964,176.438 386.627 C 176.570 386.497,177.364 386.935,178.203 387.602 C 180.282 389.255,183.336 390.061,187.636 390.095 C 192.072 390.130,192.283 390.356,191.583 394.325 C 191.323 395.796,191.022 397.675,190.914 398.500 L 190.716 400.000 192.558 400.000 L 194.400 400.000 194.400 395.797 C 194.400 390.694,194.668 390.346,199.702 388.914 C 202.981 387.982,211.362 384.015,213.959 382.167 C 217.120 379.918,217.186 380.094,217.305 391.000 L 217.400 399.800 218.928 399.926 L 220.455 400.052 220.362 389.046 C 220.266 377.815,220.385 376.800,221.802 376.800 C 222.078 376.800,222.776 376.182,223.352 375.427 C 224.952 373.330,225.849 373.234,227.308 375.005 L 228.533 376.490 231.366 376.221 C 232.925 376.073,234.830 375.788,235.600 375.588 C 238.834 374.750,247.117 373.400,252.800 372.785 C 259.302 372.082,261.949 371.697,265.200 370.982 C 266.850 370.619,268.920 370.171,269.800 369.986 C 270.680 369.802,272.570 369.369,274.000 369.024 C 275.430 368.680,277.320 368.231,278.200 368.028 C 279.080 367.824,281.150 367.299,282.800 366.860 C 287.024 365.737,286.828 365.334,287.252 376.064 C 287.446 380.979,287.783 386.658,288.002 388.684 C 288.221 390.711,288.400 394.086,288.400 396.184 L 288.400 400.000 291.639 400.000 L 294.877 400.000 294.607 397.900 C 294.459 396.745,294.178 391.570,293.983 386.400 C 293.788 381.230,293.519 374.457,293.385 371.350 L 293.141 365.700 294.961 365.427 C 295.962 365.277,296.886 364.984,297.014 364.777 C 297.142 364.570,297.719 364.400,298.295 364.400 C 299.349 364.400,299.657 364.318,304.382 362.783 C 311.908 360.338,316.050 356.524,318.461 349.819 C 319.535 346.832,318.988 331.060,317.743 329.132 C 317.554 328.839,317.283 327.250,317.139 325.600 C 316.742 321.033,316.073 316.441,315.725 315.892 C 315.553 315.621,315.292 314.320,315.144 313.000 C 314.585 308.016,313.988 304.628,313.601 304.241 C 313.380 304.020,313.200 303.078,313.200 302.146 C 313.200 301.214,312.993 299.945,312.739 299.326 C 312.486 298.707,312.133 297.300,311.955 296.200 C 311.264 291.928,310.541 288.653,309.565 285.372 C 309.364 284.696,309.199 283.706,309.198 283.172 C 309.196 282.637,308.926 281.684,308.598 281.054 C 308.269 280.424,308.000 279.310,308.000 278.578 C 308.000 277.846,307.820 277.136,307.600 277.000 C 307.380 276.864,307.194 276.178,307.186 275.476 C 307.178 274.774,306.914 273.750,306.600 273.200 C 306.286 272.650,306.022 271.793,306.014 271.295 C 306.006 270.797,305.838 270.077,305.640 269.695 C 305.305 269.049,304.762 267.247,303.563 262.800 C 301.787 256.212,293.364 248.800,287.654 248.800 C 287.052 248.800,286.348 248.588,286.090 248.330 C 285.637 247.877,283.410 247.398,279.600 246.934 C 278.610 246.813,277.559 246.519,277.265 246.279 C 276.971 246.040,275.990 245.745,275.085 245.622 C 273.722 245.438,273.205 245.091,272.073 243.600 C 268.595 239.016,267.529 238.050,265.225 237.394 C 264.001 237.046,262.460 236.562,261.800 236.318 C 261.140 236.074,259.648 235.796,258.484 235.699 C 256.213 235.511,255.247 234.326,254.654 231.000 C 253.881 226.664,253.580 225.420,253.214 225.054 C 252.105 223.945,252.772 222.452,255.300 220.381 C 263.982 213.269,274.000 200.348,274.000 196.263 C 274.000 194.259,275.643 192.943,278.662 192.529 C 279.630 192.397,280.518 192.133,280.635 191.944 C 280.752 191.755,281.167 191.600,281.558 191.600 C 282.371 191.600,286.190 188.993,288.691 186.730 C 289.621 185.888,290.521 185.200,290.692 185.200 C 292.768 185.200,299.819 175.964,301.380 171.200 C 301.776 169.990,302.289 168.550,302.519 168.000 C 303.334 166.051,303.705 162.113,303.726 155.200 C 303.753 146.416,303.091 143.653,300.191 140.443 C 298.835 138.942,298.811 138.856,299.204 136.952 C 300.069 132.764,299.982 132.933,301.253 132.933 C 304.818 132.933,306.104 126.363,305.312 112.200 C 305.139 109.120,304.858 106.382,304.686 106.116 C 304.514 105.850,304.208 104.500,304.007 103.116 C 303.402 98.961,302.881 96.499,302.428 95.653 C 302.193 95.213,302.000 94.478,302.000 94.021 C 302.000 93.563,301.844 92.877,301.654 92.495 C 300.385 89.950,300.406 89.200,301.746 89.200 C 305.826 89.200,305.239 83.503,300.632 78.400 C 298.546 76.090,297.847 74.736,298.336 73.954 C 300.961 69.750,288.691 58.410,273.553 51.049 C 271.010 49.812,268.734 48.800,268.496 48.800 C 268.259 48.800,267.555 48.548,266.932 48.240 C 265.452 47.508,263.143 46.803,262.172 46.787 C 260.909 46.766,260.000 45.805,260.000 44.489 C 260.000 42.488,259.646 42.087,257.268 41.391 C 256.020 41.026,254.274 40.474,253.387 40.164 C 252.499 39.854,251.140 39.600,250.367 39.600 C 249.593 39.600,248.770 39.410,248.538 39.178 C 248.306 38.946,245.848 38.649,243.076 38.518 C 238.400 38.297,238.064 38.229,238.418 37.566 C 238.993 36.492,238.878 34.935,238.171 34.229 C 237.515 33.572,228.868 33.265,228.256 33.877 M180.086 102.068 C 183.666 104.847,185.670 105.343,193.600 105.412 C 198.936 105.459,201.123 105.636,202.800 106.156 C 210.229 108.461,219.127 108.545,227.983 106.393 L 230.966 105.668 234.008 108.760 C 239.455 114.295,248.127 118.348,254.695 118.428 C 257.928 118.468,258.165 118.621,260.820 122.414 C 266.854 131.032,267.260 133.282,265.961 150.897 C 265.444 157.906,265.444 157.904,267.955 159.107 C 269.774 159.979,275.181 160.045,276.191 159.208 C 276.559 158.902,277.770 156.752,278.882 154.429 C 282.072 147.765,288.000 142.371,291.508 142.940 C 299.977 144.314,298.864 168.226,289.938 176.665 C 282.923 183.298,278.532 185.839,273.152 186.382 C 271.414 186.557,269.566 186.992,269.008 187.358 C 267.984 188.029,267.866 188.412,267.987 190.662 C 268.548 201.092,246.025 222.054,225.534 230.173 C 221.295 231.853,219.199 232.484,212.940 233.966 C 210.771 234.479,196.397 234.692,195.636 234.222 C 195.402 234.077,194.219 233.701,193.009 233.386 C 187.742 232.014,180.282 227.010,173.870 220.550 C 167.386 214.016,164.388 208.307,160.451 195.000 C 159.996 193.460,159.243 190.940,158.779 189.400 C 156.319 181.237,155.559 177.881,154.795 171.800 C 154.574 170.040,154.215 167.599,153.997 166.376 C 153.778 165.153,153.592 161.463,153.582 158.176 C 153.573 154.889,153.392 150.850,153.180 149.200 C 152.116 140.906,151.678 132.989,152.022 128.258 C 152.217 125.586,152.394 121.420,152.417 119.000 C 152.440 116.580,152.623 113.610,152.823 112.400 C 153.024 111.190,153.309 109.120,153.456 107.800 C 153.954 103.339,156.159 101.129,157.434 103.816 C 159.000 107.115,164.081 111.315,165.738 110.679 C 166.719 110.303,166.541 108.671,165.402 107.601 C 164.002 106.287,164.365 106.216,166.851 107.320 C 176.298 111.517,179.624 110.659,174.863 105.254 C 170.382 100.167,170.382 100.130,174.866 100.402 C 177.951 100.588,178.341 100.713,180.086 102.068 M168.816 127.845 C 163.673 128.969,160.070 131.584,158.025 135.676 C 155.775 140.180,157.117 142.328,159.966 138.782 C 163.012 134.992,166.895 133.503,171.400 134.397 C 186.342 137.362,190.000 137.205,190.000 133.600 C 190.000 129.416,177.352 125.979,168.816 127.845 M223.800 127.864 C 216.894 128.322,210.791 130.354,209.746 132.543 C 207.717 136.798,212.333 137.694,225.000 135.502 C 235.139 133.748,238.072 134.340,242.332 139.002 C 245.313 142.263,246.948 141.399,245.412 137.376 C 242.878 130.741,234.702 127.143,223.800 127.864 M171.600 142.071 C 171.050 142.301,170.060 142.635,169.400 142.811 C 164.014 144.252,157.461 147.786,157.273 149.352 C 157.190 150.041,156.739 150.618,155.973 151.014 C 154.060 152.003,154.989 154.678,158.402 158.002 C 161.335 160.859,162.039 161.042,167.549 160.372 C 170.107 160.061,174.810 159.805,178.000 159.803 C 184.350 159.800,184.920 159.626,188.278 156.677 C 191.035 154.257,188.652 149.027,183.200 145.532 C 181.550 144.474,179.961 143.407,179.670 143.160 C 178.233 141.946,173.439 141.299,171.600 142.071 M224.447 142.413 C 223.262 142.585,222.182 142.902,222.047 143.118 C 221.911 143.334,220.608 144.073,219.151 144.760 C 215.833 146.325,213.100 148.706,211.581 151.354 C 209.544 154.905,209.985 155.995,214.573 158.757 L 216.827 160.114 224.546 160.225 C 229.569 160.296,233.527 160.567,235.882 161.000 L 239.499 161.665 241.535 160.633 C 246.898 157.915,250.335 152.682,247.637 151.342 C 247.108 151.079,246.458 150.354,246.193 149.732 C 244.812 146.483,230.225 141.574,224.447 142.413 M289.285 146.192 C 286.582 147.451,283.664 150.449,280.714 155.000 C 277.897 159.346,277.596 160.358,277.671 165.219 C 277.724 168.561,277.607 169.256,276.669 171.200 C 274.533 175.628,275.617 179.992,279.011 180.628 C 281.716 181.136,286.392 177.906,288.191 174.289 C 288.762 173.140,290.032 171.042,291.014 169.626 C 294.888 164.037,296.487 154.401,294.254 150.099 C 293.602 148.844,293.610 148.755,294.452 147.615 C 296.239 145.199,293.211 144.365,289.285 146.192 M170.926 148.400 C 170.885 148.730,170.526 149.855,170.129 150.900 C 169.441 152.709,169.439 152.891,170.095 154.700 C 170.940 157.028,170.632 157.379,167.388 157.784 C 160.918 158.593,159.039 153.037,164.616 149.590 C 167.469 147.827,171.081 147.146,170.926 148.400 M224.400 148.420 C 224.400 148.651,224.113 149.395,223.762 150.074 C 223.303 150.961,223.162 152.109,223.262 154.154 L 223.400 157.000 220.917 157.119 C 214.274 157.436,212.089 153.754,216.891 150.335 C 219.221 148.676,224.400 147.355,224.400 148.420 M175.771 149.468 C 176.093 150.307,175.301 151.600,174.466 151.600 C 173.649 151.600,172.800 150.861,172.800 150.149 C 172.800 148.673,175.250 148.112,175.771 149.468 M229.362 148.922 C 230.628 149.849,230.053 151.400,228.444 151.400 C 226.528 151.400,225.849 150.238,227.144 149.175 C 228.262 148.258,228.427 148.239,229.362 148.922 M192.057 149.331 C 191.608 149.873,191.034 153.020,190.404 158.400 C 190.054 161.389,188.737 166.837,187.263 171.400 C 186.837 172.720,186.373 174.457,186.233 175.260 C 186.093 176.063,185.702 176.950,185.363 177.231 C 182.083 179.953,182.927 186.800,186.542 186.800 C 187.090 186.800,189.086 187.610,190.978 188.600 C 194.746 190.571,197.420 190.962,199.097 189.787 C 200.276 188.961,205.719 187.600,207.841 187.600 C 210.742 187.600,211.940 182.864,210.163 178.423 C 208.710 174.792,207.059 176.028,207.365 180.517 C 207.608 184.087,207.430 184.308,204.868 183.618 C 203.505 183.251,202.867 183.316,200.791 184.035 C 190.993 187.426,187.695 182.465,191.593 170.200 C 192.502 167.340,193.502 163.560,193.815 161.800 C 195.202 154.013,194.181 146.772,192.057 149.331 M184.253 150.947 C 186.631 153.326,186.680 154.837,184.416 155.992 C 181.746 157.354,180.628 157.127,181.004 155.300 C 181.415 153.304,181.425 151.639,181.034 150.300 C 180.516 148.525,182.161 148.856,184.253 150.947 M238.614 150.500 C 241.330 152.355,242.430 154.388,241.526 155.884 C 239.843 158.665,234.825 159.311,235.390 156.674 C 235.939 154.105,236.059 151.257,235.649 150.491 C 234.735 148.784,236.106 148.788,238.614 150.500 M176.511 194.789 C 174.225 196.182,174.475 198.731,176.958 199.354 C 177.654 199.528,178.191 200.423,179.338 203.322 C 185.008 217.648,193.784 223.339,206.600 221.002 C 217.045 219.097,222.534 214.632,226.582 204.745 C 228.336 200.462,228.951 199.600,230.253 199.600 C 230.797 199.600,231.447 199.194,231.824 198.620 C 233.561 195.968,229.121 192.766,226.389 194.700 C 225.481 195.343,213.716 195.707,198.200 195.574 C 188.209 195.488,180.972 195.085,180.244 194.576 C 179.126 193.793,178.043 193.855,176.511 194.789 M224.211 199.618 C 225.087 201.035,221.824 203.125,217.200 204.109 C 209.605 205.725,208.873 205.798,200.600 205.786 C 189.071 205.768,184.882 204.742,183.154 201.514 C 182.430 200.162,183.246 199.967,186.617 200.684 C 193.412 202.131,220.189 201.145,221.951 199.383 C 222.302 199.032,223.955 199.203,224.211 199.618 M91.000 216.400 C 90.864 216.620,90.350 216.800,89.858 216.800 C 88.808 216.800,85.412 219.946,84.123 222.111 C 82.875 224.210,83.130 230.985,84.428 230.183 C 84.965 229.851,84.885 228.252,84.300 227.621 C 83.893 227.183,83.912 227.145,84.400 227.418 C 84.906 227.701,84.919 227.653,84.481 227.112 C 84.131 226.681,84.099 226.386,84.381 226.212 C 84.611 226.069,84.800 225.353,84.800 224.619 C 84.800 223.786,85.032 223.197,85.417 223.049 C 85.895 222.865,85.940 222.636,85.617 222.032 C 85.102 221.070,85.084 220.681,85.568 220.980 C 86.031 221.266,87.281 220.055,86.997 219.595 C 86.882 219.408,86.990 219.130,87.238 218.976 C 87.486 218.823,87.829 218.924,88.000 219.200 C 88.171 219.476,88.514 219.577,88.762 219.424 C 89.010 219.270,89.107 218.972,88.976 218.762 C 88.836 218.534,89.440 218.424,90.461 218.489 C 91.770 218.574,92.184 218.456,92.191 218.000 C 92.198 217.501,93.163 217.378,97.900 217.269 C 101.964 217.176,103.600 217.269,103.600 217.593 C 103.600 217.843,103.778 217.937,103.995 217.803 C 104.217 217.666,104.292 217.816,104.166 218.144 C 103.979 218.632,104.344 218.693,106.362 218.510 C 108.364 218.328,108.826 218.403,109.034 218.943 C 109.228 219.449,109.617 219.543,110.761 219.360 C 111.842 219.187,112.381 219.295,112.768 219.762 C 113.062 220.116,113.900 220.400,114.649 220.400 C 115.392 220.400,116.000 220.580,116.000 220.800 C 116.000 221.020,116.352 221.200,116.781 221.200 C 117.801 221.200,119.625 222.036,119.400 222.401 C 119.303 222.557,119.676 222.598,120.229 222.492 C 120.932 222.358,121.198 222.463,121.117 222.841 C 121.052 223.142,121.398 223.442,121.900 223.518 C 122.395 223.594,122.800 223.804,122.800 223.984 C 122.800 224.165,123.284 224.435,123.876 224.583 C 124.468 224.732,125.267 225.216,125.651 225.658 C 126.035 226.101,126.585 226.517,126.874 226.582 C 128.337 226.913,129.987 227.835,130.096 228.383 C 130.184 228.828,130.303 228.866,130.520 228.521 C 130.801 228.074,125.134 222.800,124.372 222.800 C 124.204 222.800,123.196 222.410,122.133 221.933 C 121.070 221.456,120.074 221.051,119.920 221.033 C 119.766 221.015,119.415 220.775,119.140 220.500 C 118.865 220.225,118.181 219.994,117.620 219.987 C 117.059 219.980,116.285 219.735,115.899 219.442 C 115.513 219.150,114.761 218.958,114.227 219.017 C 113.653 219.080,113.162 218.877,113.024 218.519 C 112.868 218.112,112.486 217.992,111.851 218.152 C 111.215 218.311,110.598 218.118,109.954 217.556 C 109.185 216.886,108.666 216.769,107.279 216.957 C 106.333 217.085,105.656 217.033,105.775 216.841 C 106.167 216.207,104.281 216.011,97.724 216.005 C 93.831 216.002,91.149 216.160,91.000 216.400 M246.907 228.703 C 247.296 229.967,247.611 231.257,247.607 231.572 C 247.603 231.886,247.803 232.786,248.051 233.572 C 249.106 236.918,249.521 238.291,249.932 239.800 C 250.172 240.680,250.826 242.877,251.384 244.682 C 252.701 248.936,252.672 249.584,251.100 251.080 C 240.536 261.128,215.109 263.212,207.100 254.686 C 205.579 253.067,205.707 252.562,207.925 251.438 C 210.692 250.036,210.759 249.885,210.886 244.776 L 211.000 240.200 212.600 240.089 C 219.728 239.592,235.613 233.208,243.746 227.572 C 245.978 226.025,246.095 226.067,246.907 228.703 M83.160 236.551 C 83.486 236.944,83.499 237.413,83.207 238.183 L 82.796 239.263 81.298 238.362 C 80.474 237.866,79.723 237.400,79.629 237.326 C 79.535 237.252,79.805 236.929,80.229 236.609 C 81.210 235.867,82.569 235.840,83.160 236.551 M79.851 242.429 C 81.664 243.467,82.000 243.838,82.000 244.806 C 82.000 246.472,81.572 246.539,78.127 245.414 C 76.419 244.856,74.612 244.400,74.111 244.400 C 72.814 244.400,72.979 243.840,74.691 242.429 C 76.551 240.896,77.171 240.896,79.851 242.429 M259.524 242.033 C 260.862 242.500,261.406 243.520,261.000 244.800 C 260.621 245.993,258.951 245.813,257.569 244.431 C 255.338 242.199,256.370 240.934,259.524 242.033 M205.525 243.309 C 205.715 244.289,204.156 245.600,202.800 245.600 C 201.355 245.600,201.238 244.869,202.500 243.721 C 204.049 242.311,205.298 242.141,205.525 243.309 M267.341 247.966 C 270.466 251.944,269.875 253.782,261.920 264.800 C 259.458 268.210,255.486 273.790,253.094 277.200 C 250.702 280.610,248.538 283.400,248.285 283.400 C 248.032 283.400,246.717 281.240,245.362 278.600 C 242.116 272.277,239.928 269.794,237.651 269.854 C 234.566 269.935,235.381 269.244,246.200 262.603 C 257.245 255.823,261.742 252.043,263.825 247.785 C 265.144 245.089,265.078 245.086,267.341 247.966 M74.029 248.553 C 75.003 248.857,76.610 249.326,77.600 249.595 C 81.244 250.584,81.325 250.651,81.084 252.448 C 80.794 254.611,80.670 254.677,78.486 253.832 C 75.675 252.745,71.548 251.625,70.300 251.612 C 68.862 251.596,68.852 250.607,70.275 249.122 C 71.512 247.831,71.649 247.810,74.029 248.553 M196.667 249.500 C 196.548 250.325,196.153 252.890,195.790 255.200 C 194.916 260.763,195.580 266.735,197.814 273.400 C 199.781 279.266,199.925 289.526,198.209 301.400 C 197.891 303.600,197.733 305.889,197.859 306.486 C 197.985 307.083,197.884 309.333,197.634 311.486 C 197.385 313.639,196.998 318.550,196.775 322.400 C 196.387 329.096,195.694 339.690,195.630 339.900 C 195.529 340.234,194.137 339.872,192.309 339.037 C 191.149 338.507,188.130 337.592,185.600 337.003 C 179.100 335.490,179.201 335.545,179.197 333.509 C 179.195 332.121,178.822 331.254,177.214 328.894 C 176.125 327.296,175.124 325.316,174.989 324.494 C 174.854 323.672,174.486 321.906,174.171 320.570 C 173.433 317.442,173.744 314.084,175.210 309.336 C 176.948 303.710,177.363 303.067,179.048 303.383 L 180.436 303.643 179.018 301.626 C 177.250 299.110,177.228 299.452,179.500 293.978 L 181.400 289.400 181.363 284.200 C 181.336 280.491,181.119 278.280,180.607 276.489 C 179.199 271.567,178.497 272.606,177.803 280.644 C 177.134 288.393,176.890 289.404,174.382 294.800 C 172.648 298.532,172.428 299.294,172.635 300.835 C 172.819 302.201,172.585 303.459,171.601 306.400 C 169.078 313.943,168.635 318.864,170.000 324.200 C 171.043 328.278,171.012 328.572,169.240 331.400 L 167.735 333.800 156.968 334.052 C 147.508 334.273,141.231 334.823,137.120 335.791 C 135.897 336.079,135.881 336.065,131.793 331.000 C 119.093 315.262,109.600 300.643,109.600 296.823 C 109.600 295.458,109.438 295.119,108.643 294.816 C 107.523 294.391,98.800 281.843,98.800 280.658 C 98.800 279.704,100.304 277.221,100.933 277.139 C 101.190 277.105,103.470 277.046,106.000 277.007 C 112.405 276.910,113.828 276.207,115.528 272.300 C 116.535 269.987,117.239 269.899,118.934 271.875 C 119.630 272.686,120.845 274.081,121.634 274.975 C 124.618 278.358,126.400 280.903,126.400 281.782 C 126.400 282.490,126.794 282.842,128.180 283.371 C 133.673 285.469,156.348 315.446,160.194 325.694 C 161.164 328.281,161.838 328.793,162.465 327.418 C 163.958 324.140,159.133 312.400,153.240 304.975 C 152.356 303.861,151.524 302.667,151.392 302.322 C 151.115 301.602,166.438 271.097,171.143 263.000 C 175.197 256.024,179.768 251.588,182.884 251.605 C 183.388 251.608,185.107 251.304,186.706 250.931 C 190.454 250.054,190.707 250.307,189.373 253.590 C 188.805 254.988,187.803 258.938,187.147 262.366 C 186.492 265.795,185.425 271.279,184.778 274.554 C 182.388 286.637,184.826 286.329,191.380 273.722 C 192.774 271.040,192.974 270.835,194.307 270.722 C 196.124 270.567,196.300 270.009,194.957 268.666 C 193.048 266.757,191.192 267.430,189.798 270.534 C 187.243 276.224,187.092 275.099,189.046 264.928 C 190.971 254.911,192.406 251.243,195.390 248.713 C 196.616 247.674,196.905 247.852,196.667 249.500 M201.532 253.380 C 203.884 261.707,221.480 266.456,236.696 262.871 C 242.679 261.461,242.674 261.473,235.017 266.595 C 223.388 274.376,218.478 281.515,216.997 292.800 C 216.516 296.464,216.612 296.401,211.486 296.390 C 209.019 296.385,206.190 296.203,205.200 295.987 C 204.210 295.771,203.028 295.510,202.573 295.407 C 201.763 295.225,201.749 295.053,201.926 287.362 C 202.115 279.085,201.935 277.487,200.213 272.200 C 198.442 266.761,197.894 263.266,198.079 258.581 C 198.354 251.618,200.235 248.786,201.532 253.380 M279.000 253.061 C 288.578 255.258,291.866 256.644,294.528 259.604 C 297.143 262.513,297.537 263.548,299.627 273.000 C 299.871 274.100,300.304 275.720,300.590 276.600 C 300.876 277.480,301.325 279.190,301.588 280.400 C 301.850 281.610,302.300 283.410,302.587 284.400 C 302.874 285.390,303.328 287.280,303.596 288.600 C 303.865 289.920,304.319 291.900,304.607 293.000 C 306.204 299.111,306.997 302.713,307.952 308.200 C 308.182 309.520,308.653 312.220,308.999 314.200 C 309.345 316.180,309.795 318.880,310.000 320.200 C 310.204 321.520,310.643 324.310,310.974 326.400 C 311.306 328.490,311.666 330.920,311.774 331.800 C 311.883 332.680,312.196 335.110,312.471 337.200 C 314.096 349.565,311.122 354.464,300.200 357.412 C 298.000 358.006,295.570 358.662,294.800 358.869 C 294.030 359.076,292.860 359.396,292.200 359.580 C 287.237 360.963,285.645 361.386,281.400 362.449 C 261.375 367.464,252.419 368.974,249.542 367.823 C 247.968 367.194,247.852 367.199,247.046 367.933 C 246.203 368.700,245.076 369.018,239.000 370.204 C 237.240 370.547,235.032 371.002,234.094 371.214 C 230.466 372.035,229.104 371.406,232.000 370.247 C 234.664 369.181,234.150 368.277,231.068 368.607 C 227.895 368.947,227.666 368.742,226.328 364.344 C 224.450 358.170,223.794 352.180,224.900 351.300 C 226.015 350.412,240.620 346.260,241.667 346.533 C 242.194 346.671,242.793 346.434,243.343 345.870 C 244.948 344.225,245.627 343.880,250.713 342.122 C 262.458 338.063,269.028 336.147,277.000 334.457 C 278.100 334.223,280.170 333.771,281.600 333.450 C 286.897 332.265,289.120 331.949,294.106 331.678 C 299.548 331.382,300.109 331.110,298.088 329.747 C 296.058 328.380,292.260 327.866,286.594 328.193 L 281.611 328.480 281.175 327.340 C 280.936 326.713,280.212 324.040,279.568 321.400 C 278.923 318.760,278.223 315.970,278.011 315.200 C 277.359 312.821,275.062 302.799,274.024 297.800 C 273.796 296.700,273.350 294.630,273.035 293.200 C 272.719 291.770,272.342 290.014,272.198 289.297 C 271.848 287.563,270.673 286.929,269.380 287.777 C 267.831 288.791,267.664 291.085,268.809 295.600 C 269.005 296.370,269.452 298.350,269.804 300.000 C 270.156 301.650,270.600 303.720,270.791 304.600 C 271.299 306.947,272.387 311.590,272.807 313.200 C 277.406 330.854,277.488 329.634,271.600 330.983 C 268.493 331.695,264.801 332.712,257.600 334.839 C 255.290 335.521,252.860 336.230,252.200 336.413 C 249.810 337.075,247.324 338.080,243.400 339.968 C 241.200 341.027,238.050 342.296,236.400 342.788 C 234.750 343.280,232.950 343.831,232.400 344.012 C 231.850 344.193,229.373 344.918,226.895 345.624 L 222.391 346.906 221.498 348.853 C 219.531 353.141,219.336 352.230,218.925 336.800 C 217.754 292.815,218.975 284.750,228.233 275.306 C 231.869 271.596,233.200 270.829,233.200 272.445 C 233.200 273.209,233.342 273.260,234.700 272.976 C 238.468 272.191,239.540 273.158,243.790 281.176 C 248.146 289.392,247.735 289.402,253.400 280.940 C 255.600 277.654,260.159 271.288,263.531 266.794 C 267.501 261.503,270.227 257.439,271.264 255.265 L 272.866 251.908 274.533 252.164 C 275.450 252.304,277.460 252.708,279.000 253.061 M74.587 256.829 C 80.504 258.909,82.096 260.984,78.531 261.968 C 77.150 262.349,76.529 262.267,70.549 260.918 C 69.983 260.790,69.497 261.012,69.099 261.581 C 68.579 262.323,68.466 262.350,68.250 261.785 C 67.916 260.916,67.929 256.604,68.267 256.267 C 68.816 255.718,72.309 256.029,74.587 256.829 M97.000 258.990 C 102.805 260.389,107.400 262.800,104.260 262.800 C 102.762 262.800,102.111 263.689,102.577 265.100 C 102.917 266.129,106.790 268.501,110.506 269.955 C 111.872 270.490,112.737 272.172,112.140 273.131 C 109.169 277.901,84.851 271.772,83.051 265.800 C 82.706 264.657,83.478 260.351,84.147 259.681 C 85.452 258.377,92.812 257.981,97.000 258.990 M71.283 265.548 C 71.719 265.945,70.949 266.939,70.447 266.629 C 69.375 265.966,69.079 264.708,70.066 265.007 C 70.580 265.163,71.128 265.406,71.283 265.548 M88.300 265.476 C 85.461 266.218,90.772 269.458,97.969 271.375 C 105.084 273.270,109.826 273.069,108.580 270.923 C 107.058 268.304,92.472 264.385,88.300 265.476 M113.831 267.503 C 113.498 267.835,111.600 266.283,111.600 265.679 C 111.600 265.223,111.928 265.364,112.796 266.196 C 113.454 266.826,113.919 267.414,113.831 267.503 M79.682 269.176 C 81.153 269.337,82.289 269.720,82.882 270.253 C 83.387 270.708,84.928 271.764,86.306 272.601 C 87.684 273.437,88.744 274.190,88.660 274.273 C 88.265 274.668,78.078 271.458,75.428 270.104 L 74.256 269.505 75.228 268.965 C 75.763 268.669,76.470 268.538,76.800 268.675 C 77.130 268.813,78.427 269.038,79.682 269.176 M188.477 299.965 C 187.386 300.898,187.269 301.141,187.810 301.348 C 188.838 301.743,188.984 301.673,189.714 300.438 C 190.907 298.419,190.476 298.254,188.477 299.965 M215.462 299.328 C 215.598 299.464,215.665 302.416,215.610 305.888 C 215.556 309.360,215.517 312.560,215.525 313.000 C 215.532 313.440,215.520 316.950,215.496 320.800 C 215.473 324.650,215.452 328.970,215.449 330.400 C 215.447 331.830,215.636 336.240,215.869 340.200 C 216.101 344.160,216.228 347.473,216.150 347.562 C 216.026 347.705,212.492 346.100,209.556 344.566 C 208.982 344.266,208.398 344.135,208.258 344.275 C 207.555 344.978,199.729 342.919,198.786 341.783 C 198.402 341.321,199.086 334.342,199.901 330.400 C 200.189 329.005,200.191 329.007,200.395 331.000 C 200.587 332.869,200.678 333.009,201.797 333.136 L 202.994 333.272 201.897 332.255 C 200.645 331.094,200.459 329.465,201.423 328.089 C 202.006 327.257,201.993 327.200,201.223 327.200 C 200.770 327.200,200.400 327.416,200.400 327.680 C 200.400 328.041,200.286 328.046,199.941 327.701 C 199.596 327.356,199.610 325.526,199.999 320.321 C 200.283 316.515,200.495 312.590,200.471 311.600 C 200.447 310.610,200.598 308.900,200.806 307.800 C 201.105 306.221,201.458 302.265,201.586 299.057 C 201.602 298.675,215.072 298.938,215.462 299.328 M230.800 301.951 C 230.800 303.415,231.604 304.404,232.393 303.912 C 233.454 303.249,233.419 303.102,232.000 302.264 C 231.340 301.874,230.800 301.733,230.800 301.951 M259.033 303.073 C 258.122 303.857,257.990 304.146,258.422 304.414 C 259.027 304.788,259.815 304.293,260.423 303.157 C 261.027 302.029,260.298 301.985,259.033 303.073 M213.200 327.538 C 213.200 327.724,213.560 328.202,214.000 328.600 C 214.909 329.422,215.206 328.566,214.320 327.680 C 213.762 327.122,213.200 327.051,213.200 327.538 M172.000 336.406 C 207.186 340.456,214.638 357.455,184.619 365.195 C 152.908 373.371,108.555 363.878,113.838 350.044 C 117.747 339.809,145.344 333.338,172.000 336.406 M208.154 349.245 C 213.137 350.591,220.151 355.536,220.311 357.816 C 220.453 359.821,221.420 363.925,222.451 366.893 C 222.932 368.278,223.117 369.420,222.918 369.775 C 221.236 372.781,202.363 384.359,203.353 381.778 C 203.721 380.819,201.763 379.058,200.677 379.373 C 200.195 379.513,198.852 379.792,197.694 379.993 C 196.536 380.195,195.401 380.476,195.172 380.618 C 194.327 381.140,190.084 381.697,186.000 381.822 L 181.800 381.950 185.000 381.360 C 186.760 381.036,188.920 380.585,189.800 380.359 C 190.680 380.133,192.120 379.793,193.000 379.604 C 198.732 378.373,200.198 377.055,198.135 374.992 C 197.454 374.311,197.398 374.314,193.400 375.261 C 192.520 375.470,190.990 375.796,190.000 375.986 C 189.010 376.176,187.687 376.529,187.061 376.771 C 185.287 377.455,174.875 377.516,173.300 376.851 C 171.075 375.912,171.820 375.667,177.500 375.467 C 183.464 375.258,187.373 374.764,188.703 374.052 C 189.167 373.803,189.964 373.596,190.474 373.591 C 192.707 373.570,194.861 372.110,194.726 370.708 L 194.600 369.400 192.200 369.453 C 189.613 369.510,186.516 370.055,184.612 370.789 C 182.955 371.428,171.396 371.547,170.776 370.932 C 170.414 370.573,170.761 370.401,172.252 370.199 C 196.045 366.968,207.867 359.804,205.974 349.764 C 205.767 348.669,205.903 348.637,208.154 349.245 " stroke="none" fill="#161212" fill-rule="evenodd"></path><path id="path1" d="M171.365 100.368 C 171.093 100.641,172.367 102.420,174.863 105.254 C 179.624 110.659,176.298 111.517,166.851 107.320 C 164.365 106.216,164.002 106.287,165.402 107.601 C 166.541 108.671,166.719 110.303,165.738 110.679 C 164.081 111.315,159.000 107.115,157.434 103.816 C 156.159 101.129,153.954 103.339,153.456 107.800 C 153.309 109.120,153.024 111.190,152.823 112.400 C 152.623 113.610,152.440 116.580,152.417 119.000 C 152.394 121.420,152.217 125.586,152.022 128.258 C 151.678 132.989,152.116 140.906,153.180 149.200 C 153.392 150.850,153.573 154.889,153.582 158.176 C 153.592 161.463,153.778 165.153,153.997 166.376 C 154.215 167.599,154.574 170.040,154.795 171.800 C 155.559 177.881,156.319 181.237,158.779 189.400 C 159.243 190.940,159.996 193.460,160.451 195.000 C 164.388 208.307,167.386 214.016,173.870 220.550 C 180.282 227.010,187.742 232.014,193.009 233.386 C 194.219 233.701,195.402 234.077,195.636 234.222 C 196.397 234.692,210.771 234.479,212.940 233.966 C 219.199 232.484,221.295 231.853,225.534 230.173 C 246.025 222.054,268.548 201.092,267.987 190.662 C 267.866 188.412,267.984 188.029,269.008 187.358 C 269.566 186.992,271.414 186.557,273.152 186.382 C 278.532 185.839,282.923 183.298,289.938 176.665 C 298.864 168.226,299.977 144.314,291.508 142.940 C 288.000 142.371,282.072 147.765,278.882 154.429 C 277.770 156.752,276.559 158.902,276.191 159.208 C 275.181 160.045,269.774 159.979,267.955 159.107 C 265.444 157.904,265.444 157.906,265.961 150.897 C 267.260 133.282,266.854 131.032,260.820 122.414 C 258.165 118.621,257.928 118.468,254.695 118.428 C 248.127 118.348,239.455 114.295,234.008 108.760 L 230.966 105.668 227.983 106.393 C 219.127 108.545,210.229 108.461,202.800 106.156 C 201.123 105.636,198.936 105.459,193.600 105.412 C 185.670 105.343,183.666 104.847,180.086 102.068 C 178.340 100.712,172.211 99.518,171.365 100.368 M177.554 127.635 C 186.851 129.164,190.000 130.673,190.000 133.600 C 190.000 137.205,186.342 137.362,171.400 134.397 C 166.895 133.503,163.012 134.992,159.966 138.782 C 157.117 142.328,155.775 140.180,158.025 135.676 C 161.180 129.362,168.850 126.204,177.554 127.635 M234.800 128.668 C 240.919 130.344,246.776 136.452,245.840 140.183 C 245.453 141.726,244.542 141.420,242.332 139.002 C 238.072 134.340,235.139 133.748,225.000 135.502 C 212.333 137.694,207.717 136.798,209.746 132.543 C 211.549 128.762,226.626 126.431,234.800 128.668 M177.070 142.161 C 178.208 142.464,179.378 142.913,179.670 143.160 C 179.961 143.407,181.550 144.474,183.200 145.532 C 188.652 149.027,191.035 154.257,188.278 156.677 C 184.920 159.626,184.350 159.800,178.000 159.803 C 174.810 159.805,170.107 160.061,167.549 160.372 C 162.039 161.042,161.335 160.859,158.402 158.002 C 154.989 154.678,154.060 152.003,155.973 151.014 C 156.739 150.618,157.190 150.041,157.273 149.352 C 157.461 147.786,164.014 144.252,169.400 142.811 C 170.060 142.635,171.050 142.301,171.600 142.071 C 172.988 141.488,174.645 141.515,177.070 142.161 M234.800 143.849 C 240.652 145.739,245.577 148.282,246.193 149.732 C 246.458 150.354,247.108 151.079,247.637 151.342 C 250.335 152.682,246.898 157.915,241.535 160.633 L 239.499 161.665 235.882 161.000 C 233.527 160.567,229.569 160.296,224.546 160.225 L 216.827 160.114 214.573 158.757 C 209.985 155.995,209.544 154.905,211.581 151.354 C 213.100 148.706,215.833 146.325,219.151 144.760 C 220.608 144.073,221.911 143.334,222.047 143.118 C 222.957 141.668,229.145 142.023,234.800 143.849 M294.814 145.817 C 295.239 146.328,295.177 146.635,294.452 147.615 C 293.610 148.755,293.602 148.844,294.254 150.099 C 296.487 154.401,294.888 164.037,291.014 169.626 C 290.032 171.042,288.762 173.140,288.191 174.289 C 286.392 177.906,281.716 181.136,279.011 180.628 C 275.617 179.992,274.533 175.628,276.669 171.200 C 277.607 169.256,277.724 168.561,277.671 165.219 C 277.596 160.358,277.897 159.346,280.714 155.000 C 285.578 147.497,292.479 143.003,294.814 145.817 M167.730 148.168 C 159.422 150.803,159.137 158.815,167.388 157.784 C 170.632 157.379,170.940 157.028,170.095 154.700 C 169.439 152.891,169.441 152.709,170.129 150.900 C 171.409 147.532,171.044 147.117,167.730 148.168 M220.175 148.747 C 212.013 151.533,212.543 157.519,220.917 157.119 L 223.400 157.000 223.262 154.154 C 223.162 152.109,223.303 150.961,223.762 150.074 C 224.952 147.772,224.031 147.431,220.175 148.747 M173.393 149.064 C 172.675 149.782,172.637 150.477,173.280 151.120 C 174.403 152.243,176.342 150.957,175.771 149.468 C 175.441 148.609,174.080 148.378,173.393 149.064 M227.144 149.175 C 225.849 150.238,226.528 151.400,228.444 151.400 C 230.053 151.400,230.628 149.849,229.362 148.922 C 228.427 148.239,228.262 148.258,227.144 149.175 M193.771 149.429 C 195.432 151.089,194.331 161.585,191.593 170.200 C 187.695 182.465,190.993 187.426,200.791 184.035 C 202.867 183.316,203.505 183.251,204.868 183.618 C 207.430 184.308,207.608 184.087,207.365 180.517 C 207.059 176.028,208.710 174.792,210.163 178.423 C 211.940 182.864,210.742 187.600,207.841 187.600 C 205.719 187.600,200.276 188.961,199.097 189.787 C 197.420 190.962,194.746 190.571,190.978 188.600 C 189.086 187.610,187.090 186.800,186.542 186.800 C 182.927 186.800,182.083 179.953,185.363 177.231 C 185.702 176.950,186.093 176.063,186.233 175.260 C 186.373 174.457,186.837 172.720,187.263 171.400 C 188.737 166.837,190.054 161.389,190.404 158.400 C 191.471 149.293,192.062 147.719,193.771 149.429 M181.034 150.300 C 181.425 151.639,181.415 153.304,181.004 155.300 C 180.628 157.127,181.746 157.354,184.416 155.992 C 186.680 154.837,186.631 153.326,184.253 150.947 C 182.161 148.856,180.516 148.525,181.034 150.300 M235.481 149.453 C 235.342 149.592,235.417 150.059,235.649 150.491 C 236.059 151.257,235.939 154.105,235.390 156.674 C 234.825 159.311,239.843 158.665,241.526 155.884 C 242.824 153.737,237.191 147.743,235.481 149.453 M180.244 194.576 C 180.972 195.085,188.209 195.488,198.200 195.574 C 213.716 195.707,225.481 195.343,226.389 194.700 C 229.121 192.766,233.561 195.968,231.824 198.620 C 231.447 199.194,230.797 199.600,230.253 199.600 C 228.951 199.600,228.336 200.462,226.582 204.745 C 222.534 214.632,217.045 219.097,206.600 221.002 C 193.784 223.339,185.008 217.648,179.338 203.322 C 178.191 200.423,177.654 199.528,176.958 199.354 C 174.475 198.731,174.225 196.182,176.511 194.789 C 178.043 193.855,179.126 193.793,180.244 194.576 M221.951 199.383 C 220.189 201.145,193.412 202.131,186.617 200.684 C 182.350 199.776,181.687 200.719,184.768 203.312 C 187.498 205.609,203.981 206.814,211.600 205.273 C 220.939 203.384,222.670 202.781,223.829 201.012 C 224.694 199.691,223.060 198.273,221.951 199.383 M92.350 217.458 C 92.323 217.536,92.273 217.825,92.241 218.100 C 92.201 218.433,91.607 218.563,90.461 218.489 C 89.440 218.424,88.836 218.534,88.976 218.762 C 89.107 218.972,89.010 219.270,88.762 219.424 C 88.514 219.577,88.160 219.460,87.977 219.163 C 87.794 218.866,87.499 218.768,87.322 218.945 C 87.016 219.251,86.967 219.405,86.850 220.443 C 86.823 220.686,86.536 220.784,86.213 220.660 C 85.393 220.346,85.080 221.028,85.599 221.998 C 85.943 222.641,85.905 222.861,85.417 223.049 C 85.032 223.197,84.800 223.786,84.800 224.619 C 84.800 225.353,84.611 226.069,84.381 226.212 C 84.099 226.386,84.131 226.681,84.481 227.112 C 84.919 227.653,84.906 227.701,84.400 227.418 C 83.912 227.145,83.893 227.183,84.300 227.621 C 85.352 228.754,84.763 230.775,83.637 229.897 C 83.061 229.447,83.057 229.477,83.600 230.200 C 84.382 231.243,85.170 231.752,86.400 232.009 C 87.393 232.216,87.400 232.247,87.400 236.609 C 87.400 239.279,87.557 240.994,87.800 240.986 C 88.020 240.978,89.150 240.826,90.311 240.647 C 92.581 240.297,94.400 240.992,94.400 242.209 C 94.400 243.130,95.514 242.904,96.210 241.840 C 98.090 238.972,110.015 239.127,120.200 242.152 C 123.973 243.273,124.413 243.134,125.404 240.519 C 126.964 236.399,128.610 234.770,129.903 236.063 C 130.254 236.414,130.523 236.396,131.014 235.989 C 131.558 235.537,131.719 235.543,132.024 236.026 C 132.277 236.424,132.390 236.093,132.394 234.943 C 132.398 233.834,132.201 233.209,131.800 233.055 C 131.470 232.929,131.200 232.617,131.200 232.364 C 131.200 232.029,131.364 232.038,131.795 232.396 C 132.311 232.824,132.335 232.733,131.976 231.702 C 131.748 231.049,131.615 230.264,131.681 229.957 C 131.753 229.619,131.527 229.446,131.106 229.516 C 130.599 229.601,130.483 229.449,130.674 228.950 C 130.851 228.489,130.785 228.362,130.468 228.558 C 130.200 228.724,130.000 228.619,130.000 228.311 C 130.000 227.836,128.327 226.910,126.874 226.582 C 126.585 226.517,126.035 226.101,125.651 225.658 C 125.267 225.216,124.468 224.732,123.876 224.583 C 123.284 224.435,122.800 224.165,122.800 223.984 C 122.800 223.804,122.395 223.594,121.900 223.518 C 121.398 223.442,121.052 223.142,121.117 222.841 C 121.198 222.463,120.932 222.358,120.229 222.492 C 119.676 222.598,119.303 222.557,119.400 222.401 C 119.625 222.036,117.801 221.200,116.781 221.200 C 116.352 221.200,116.000 221.020,116.000 220.800 C 116.000 220.580,115.392 220.400,114.649 220.400 C 113.900 220.400,113.062 220.116,112.768 219.762 C 112.381 219.295,111.842 219.187,110.761 219.360 C 109.617 219.543,109.228 219.449,109.034 218.943 C 108.826 218.403,108.364 218.328,106.362 218.510 C 104.344 218.693,103.979 218.632,104.166 218.144 C 104.292 217.816,104.217 217.666,103.995 217.803 C 103.778 217.937,103.600 217.846,103.600 217.600 C 103.600 217.191,92.493 217.051,92.350 217.458 M243.746 227.572 C 235.613 233.208,219.728 239.592,212.600 240.089 L 211.000 240.200 210.886 244.776 C 210.759 249.885,210.692 250.036,207.925 251.438 C 205.707 252.562,205.579 253.067,207.100 254.686 C 215.109 263.212,240.536 261.128,251.100 251.080 C 252.672 249.584,252.701 248.936,251.384 244.682 C 250.826 242.877,250.172 240.680,249.932 239.800 C 249.521 238.291,249.106 236.918,248.051 233.572 C 247.803 232.786,247.603 231.886,247.607 231.572 C 247.622 230.472,246.196 226.407,245.800 226.416 C 245.580 226.421,244.656 226.941,243.746 227.572 M80.229 236.609 C 79.805 236.929,79.535 237.252,79.629 237.326 C 79.723 237.400,80.474 237.866,81.298 238.362 L 82.796 239.263 83.207 238.183 C 83.935 236.266,82.020 235.254,80.229 236.609 M74.691 242.429 C 72.979 243.840,72.814 244.400,74.111 244.400 C 74.612 244.400,76.419 244.856,78.127 245.414 C 81.572 246.539,82.000 246.472,82.000 244.806 C 82.000 242.125,77.024 240.507,74.691 242.429 M256.400 242.431 C 256.400 243.590,258.520 245.600,259.742 245.600 C 261.768 245.600,261.594 242.755,259.524 242.033 C 257.511 241.332,256.400 241.473,256.400 242.431 M204.000 242.684 C 203.068 243.022,201.600 244.481,201.600 245.070 C 201.600 245.915,203.895 245.705,204.825 244.775 C 206.092 243.508,205.546 242.124,204.000 242.684 M263.825 247.785 C 261.742 252.043,257.245 255.823,246.200 262.603 C 235.381 269.244,234.566 269.935,237.651 269.854 C 239.928 269.794,242.116 272.277,245.362 278.600 C 246.717 281.240,248.032 283.400,248.285 283.400 C 248.538 283.400,250.702 280.610,253.094 277.200 C 255.486 273.790,259.458 268.210,261.920 264.800 C 269.875 253.782,270.466 251.944,267.341 247.966 C 265.078 245.086,265.144 245.089,263.825 247.785 M70.275 249.122 C 68.852 250.607,68.862 251.596,70.300 251.612 C 71.548 251.625,75.675 252.745,78.486 253.832 C 80.670 254.677,80.794 254.611,81.084 252.448 C 81.325 250.651,81.244 250.584,77.600 249.595 C 76.610 249.326,75.003 248.857,74.029 248.553 C 71.649 247.810,71.512 247.831,70.275 249.122 M195.390 248.713 C 192.406 251.243,190.971 254.911,189.046 264.928 C 187.092 275.099,187.243 276.224,189.798 270.534 C 191.192 267.430,193.048 266.757,194.957 268.666 C 196.300 270.009,196.124 270.567,194.307 270.722 C 192.974 270.835,192.774 271.040,191.380 273.722 C 188.416 279.423,185.718 283.200,184.609 283.200 C 183.255 283.200,183.275 282.148,184.778 274.554 C 185.425 271.279,186.492 265.795,187.147 262.366 C 187.803 258.938,188.805 254.988,189.373 253.590 C 190.707 250.307,190.454 250.054,186.706 250.931 C 185.107 251.304,183.388 251.608,182.884 251.605 C 179.768 251.588,175.197 256.024,171.143 263.000 C 166.438 271.097,151.115 301.602,151.392 302.322 C 151.524 302.667,152.356 303.861,153.240 304.975 C 159.133 312.400,163.958 324.140,162.465 327.418 C 161.838 328.793,161.164 328.281,160.194 325.694 C 156.348 315.446,133.673 285.469,128.180 283.371 C 126.794 282.842,126.400 282.490,126.400 281.782 C 126.400 280.903,124.618 278.358,121.634 274.975 C 120.845 274.081,119.630 272.686,118.934 271.875 C 117.239 269.899,116.535 269.987,115.528 272.300 C 113.828 276.207,112.405 276.910,106.000 277.007 C 103.470 277.046,101.190 277.105,100.933 277.139 C 100.304 277.221,98.800 279.704,98.800 280.658 C 98.800 281.843,107.523 294.391,108.643 294.816 C 109.438 295.119,109.600 295.458,109.600 296.823 C 109.600 300.643,119.093 315.262,131.793 331.000 C 135.881 336.065,135.897 336.079,137.120 335.791 C 141.231 334.823,147.508 334.273,156.968 334.052 L 167.735 333.800 169.240 331.400 C 171.012 328.572,171.043 328.278,170.000 324.200 C 168.635 318.864,169.078 313.943,171.601 306.400 C 172.585 303.459,172.819 302.201,172.635 300.835 C 172.428 299.294,172.648 298.532,174.382 294.800 C 176.890 289.404,177.134 288.393,177.803 280.644 C 178.497 272.606,179.199 271.567,180.607 276.489 C 181.119 278.280,181.336 280.491,181.363 284.200 L 181.400 289.400 179.500 293.978 C 177.228 299.452,177.250 299.110,179.018 301.626 L 180.436 303.643 179.048 303.383 C 177.363 303.067,176.948 303.710,175.210 309.336 C 173.744 314.084,173.433 317.442,174.171 320.570 C 174.486 321.906,174.854 323.672,174.989 324.494 C 175.124 325.316,176.125 327.296,177.214 328.894 C 178.822 331.254,179.195 332.121,179.197 333.509 C 179.201 335.545,179.100 335.490,185.600 337.003 C 188.130 337.592,191.149 338.507,192.309 339.037 C 194.137 339.872,195.529 340.234,195.630 339.900 C 195.694 339.690,196.387 329.096,196.775 322.400 C 196.998 318.550,197.385 313.639,197.634 311.486 C 197.884 309.333,197.985 307.083,197.859 306.486 C 197.733 305.889,197.891 303.600,198.209 301.400 C 199.925 289.526,199.781 279.266,197.814 273.400 C 195.580 266.735,194.916 260.763,195.790 255.200 C 197.060 247.123,197.070 247.289,195.390 248.713 M198.918 252.669 C 197.278 256.436,197.840 264.915,200.213 272.200 C 201.935 277.487,202.115 279.085,201.926 287.362 C 201.749 295.053,201.763 295.225,202.573 295.407 C 203.028 295.510,204.210 295.771,205.200 295.987 C 206.190 296.203,209.019 296.385,211.486 296.390 C 216.612 296.401,216.516 296.464,216.997 292.800 C 218.478 281.515,223.388 274.376,235.017 266.595 C 242.674 261.473,242.679 261.461,236.696 262.871 C 221.480 266.456,203.884 261.707,201.532 253.380 C 200.809 250.817,199.840 250.554,198.918 252.669 M271.264 255.265 C 270.227 257.439,267.501 261.503,263.531 266.794 C 260.159 271.288,255.600 277.654,253.400 280.940 C 247.735 289.402,248.146 289.392,243.790 281.176 C 239.540 273.158,238.468 272.191,234.700 272.976 C 233.342 273.260,233.200 273.209,233.200 272.445 C 233.200 270.829,231.869 271.596,228.233 275.306 C 218.975 284.750,217.754 292.815,218.925 336.800 C 219.336 352.230,219.531 353.141,221.498 348.853 L 222.391 346.906 226.895 345.624 C 229.373 344.918,231.850 344.193,232.400 344.012 C 232.950 343.831,234.750 343.280,236.400 342.788 C 238.050 342.296,241.200 341.027,243.400 339.968 C 247.324 338.080,249.810 337.075,252.200 336.413 C 252.860 336.230,255.290 335.521,257.600 334.839 C 264.801 332.712,268.493 331.695,271.600 330.983 C 277.488 329.634,277.406 330.854,272.807 313.200 C 272.387 311.590,271.299 306.947,270.791 304.600 C 270.600 303.720,270.156 301.650,269.804 300.000 C 269.452 298.350,269.005 296.370,268.809 295.600 C 267.664 291.085,267.831 288.791,269.380 287.777 C 270.673 286.929,271.848 287.563,272.198 289.297 C 272.342 290.014,272.719 291.770,273.035 293.200 C 273.350 294.630,273.796 296.700,274.024 297.800 C 275.062 302.799,277.359 312.821,278.011 315.200 C 278.223 315.970,278.923 318.760,279.568 321.400 C 280.212 324.040,280.936 326.713,281.175 327.340 L 281.611 328.480 286.594 328.193 C 292.260 327.866,296.058 328.380,298.088 329.747 C 300.109 331.110,299.548 331.382,294.106 331.678 C 289.120 331.949,286.897 332.265,281.600 333.450 C 280.170 333.771,278.100 334.223,277.000 334.457 C 269.028 336.147,262.458 338.063,250.713 342.122 C 245.627 343.880,244.948 344.225,243.343 345.870 C 242.793 346.434,242.194 346.671,241.667 346.533 C 240.620 346.260,226.015 350.412,224.900 351.300 C 223.794 352.180,224.450 358.170,226.328 364.344 C 227.666 368.742,227.895 368.947,231.068 368.607 C 234.150 368.277,234.664 369.181,232.000 370.247 C 229.104 371.406,230.466 372.035,234.094 371.214 C 235.032 371.002,237.240 370.547,239.000 370.204 C 245.076 369.018,246.203 368.700,247.046 367.933 C 247.852 367.199,247.968 367.194,249.542 367.823 C 252.419 368.974,261.375 367.464,281.400 362.449 C 285.645 361.386,287.237 360.963,292.200 359.580 C 292.860 359.396,294.030 359.076,294.800 358.869 C 295.570 358.662,298.000 358.006,300.200 357.412 C 311.122 354.464,314.096 349.565,312.471 337.200 C 312.196 335.110,311.883 332.680,311.774 331.800 C 311.666 330.920,311.306 328.490,310.974 326.400 C 310.643 324.310,310.204 321.520,310.000 320.200 C 309.795 318.880,309.345 316.180,308.999 314.200 C 308.653 312.220,308.182 309.520,307.952 308.200 C 306.997 302.713,306.204 299.111,304.607 293.000 C 304.319 291.900,303.865 289.920,303.596 288.600 C 303.328 287.280,302.874 285.390,302.587 284.400 C 302.300 283.410,301.850 281.610,301.588 280.400 C 301.325 279.190,300.876 277.480,300.590 276.600 C 300.304 275.720,299.871 274.100,299.627 273.000 C 297.537 263.548,297.143 262.513,294.528 259.604 C 291.654 256.408,284.247 253.651,274.533 252.164 L 272.866 251.908 271.264 255.265 M68.267 256.267 C 67.929 256.604,67.916 260.916,68.250 261.785 C 68.466 262.350,68.579 262.323,69.099 261.581 C 69.497 261.012,69.983 260.790,70.549 260.918 C 76.529 262.267,77.150 262.349,78.531 261.968 C 80.224 261.501,80.440 261.241,80.129 260.051 C 79.589 257.986,69.702 254.832,68.267 256.267 M86.056 258.799 C 82.969 259.529,81.769 264.936,84.123 267.508 C 89.230 273.086,109.619 277.178,112.140 273.131 C 112.737 272.172,111.872 270.490,110.506 269.955 C 106.790 268.501,102.917 266.129,102.577 265.100 C 102.111 263.689,102.762 262.800,104.260 262.800 C 106.425 262.800,105.722 262.025,102.381 260.727 C 96.767 258.545,90.342 257.787,86.056 258.799 M69.568 265.540 C 70.178 266.680,70.829 267.000,71.228 266.355 C 71.624 265.713,71.350 265.396,70.066 265.007 C 69.222 264.752,69.174 264.803,69.568 265.540 M93.400 265.575 C 101.933 266.558,110.561 270.455,108.200 272.258 C 105.514 274.310,87.600 269.014,87.600 266.167 C 87.600 265.225,89.066 265.075,93.400 265.575 M111.600 265.679 C 111.600 266.283,113.498 267.835,113.831 267.503 C 113.919 267.414,113.454 266.826,112.796 266.196 C 111.928 265.364,111.600 265.223,111.600 265.679 M75.228 268.965 L 74.256 269.505 75.428 270.104 C 78.078 271.458,88.265 274.668,88.660 274.273 C 88.744 274.190,87.684 273.437,86.306 272.601 C 84.928 271.764,83.387 270.708,82.882 270.253 C 82.289 269.720,81.153 269.337,79.682 269.176 C 78.427 269.038,77.130 268.813,76.800 268.675 C 76.470 268.538,75.763 268.669,75.228 268.965 M190.400 299.038 C 190.400 299.478,189.031 301.600,188.746 301.600 C 187.314 301.600,187.222 301.039,188.477 299.965 C 189.767 298.861,190.400 298.556,190.400 299.038 M201.586 299.057 C 201.458 302.265,201.105 306.221,200.806 307.800 C 200.598 308.900,200.447 310.610,200.471 311.600 C 200.495 312.590,200.283 316.515,199.999 320.321 C 199.610 325.526,199.596 327.356,199.941 327.701 C 200.286 328.046,200.400 328.041,200.400 327.680 C 200.400 327.416,200.770 327.200,201.223 327.200 C 201.993 327.200,202.006 327.257,201.423 328.089 C 200.459 329.465,200.645 331.094,201.897 332.255 L 202.994 333.272 201.797 333.136 C 200.678 333.009,200.587 332.869,200.395 331.000 C 200.191 329.007,200.189 329.005,199.901 330.400 C 199.086 334.342,198.402 341.321,198.786 341.783 C 199.729 342.919,207.555 344.978,208.258 344.275 C 208.398 344.135,208.982 344.266,209.556 344.566 C 212.492 346.100,216.026 347.705,216.150 347.562 C 216.228 347.473,216.101 344.160,215.869 340.200 C 215.636 336.240,215.447 331.830,215.449 330.400 C 215.452 328.970,215.473 324.650,215.496 320.800 C 215.520 316.950,215.532 313.440,215.525 313.000 C 215.517 312.560,215.556 309.360,215.610 305.888 C 215.665 302.416,215.598 299.464,215.462 299.328 C 215.072 298.938,201.602 298.675,201.586 299.057 M233.200 303.190 C 233.200 304.167,231.552 304.325,231.193 303.382 C 230.564 301.728,230.723 301.509,232.000 302.264 C 232.660 302.654,233.200 303.070,233.200 303.190 M260.423 303.157 C 259.815 304.293,259.027 304.788,258.422 304.414 C 257.990 304.146,258.122 303.857,259.033 303.073 C 260.298 301.985,261.027 302.029,260.423 303.157 M214.320 327.680 C 215.206 328.566,214.909 329.422,214.000 328.600 C 213.178 327.856,212.953 327.200,213.520 327.200 C 213.696 327.200,214.056 327.416,214.320 327.680 M150.200 335.855 C 120.463 337.850,103.800 350.818,119.135 360.031 C 141.805 373.653,198.542 369.304,203.252 353.583 C 206.392 343.105,178.929 333.927,150.200 335.855 M205.953 349.100 C 205.927 349.265,205.936 349.564,205.974 349.764 C 207.867 359.804,196.045 366.968,172.252 370.199 C 170.761 370.401,170.414 370.573,170.776 370.932 C 171.396 371.547,182.955 371.428,184.612 370.789 C 186.516 370.055,189.613 369.510,192.200 369.453 L 194.600 369.400 194.726 370.708 C 194.861 372.110,192.707 373.570,190.474 373.591 C 189.964 373.596,189.167 373.803,188.703 374.052 C 187.373 374.764,183.464 375.258,177.500 375.467 C 171.820 375.667,171.075 375.912,173.300 376.851 C 174.875 377.516,185.287 377.455,187.061 376.771 C 187.687 376.529,189.010 376.176,190.000 375.986 C 190.990 375.796,192.520 375.470,193.400 375.261 C 197.398 374.314,197.454 374.311,198.135 374.992 C 200.198 377.055,198.732 378.373,193.000 379.604 C 192.120 379.793,190.680 380.133,189.800 380.359 C 188.920 380.585,186.760 381.036,185.000 381.360 L 181.800 381.950 186.000 381.822 C 190.084 381.697,194.327 381.140,195.172 380.618 C 195.401 380.476,196.536 380.195,197.694 379.993 C 198.852 379.792,200.195 379.513,200.677 379.373 C 201.763 379.058,203.721 380.819,203.353 381.778 C 202.363 384.359,221.236 372.781,222.918 369.775 C 223.117 369.420,222.932 368.278,222.451 366.893 C 221.420 363.925,220.453 359.821,220.311 357.816 C 220.151 355.536,213.137 350.591,208.154 349.245 C 206.206 348.719,206.015 348.706,205.953 349.100 M282.600 366.876 C 281.060 367.301,279.080 367.818,278.200 368.024 C 277.320 368.229,275.430 368.680,274.000 369.024 C 272.570 369.369,270.680 369.802,269.800 369.986 C 268.920 370.171,266.850 370.619,265.200 370.982 C 261.949 371.697,259.302 372.082,252.800 372.785 C 247.117 373.400,238.834 374.750,235.600 375.588 C 234.830 375.788,232.925 376.073,231.366 376.221 L 228.533 376.490 227.282 374.974 C 225.858 373.246,224.688 373.378,223.351 375.418 C 222.971 375.998,222.238 376.633,221.723 376.829 C 220.276 377.380,220.178 378.265,220.324 389.500 L 220.460 400.000 254.430 400.000 L 288.400 400.000 288.400 396.184 C 288.400 394.086,288.221 390.711,288.002 388.684 C 287.783 386.658,287.446 380.996,287.253 376.103 C 286.923 367.738,286.623 365.854,285.651 366.051 C 285.513 366.079,284.140 366.450,282.600 366.876 M213.959 382.167 C 211.362 384.015,202.981 387.982,199.702 388.914 C 194.666 390.347,194.400 390.693,194.400 395.807 L 194.400 400.020 205.900 399.988 L 217.400 399.956 217.302 391.078 C 217.181 380.077,217.121 379.917,213.959 382.167 M176.230 386.900 C 175.942 387.892,175.196 395.847,175.198 397.900 L 175.200 400.000 182.958 400.000 L 190.716 400.000 190.914 398.500 C 191.022 397.675,191.323 395.796,191.583 394.325 C 192.283 390.356,192.072 390.130,187.636 390.095 C 183.340 390.061,180.282 389.255,178.210 387.608 C 176.484 386.236,176.428 386.216,176.230 386.900 " stroke="none" fill="#ffffff" fill-rule="evenodd"></path></g></svg>