<?xml version="1.0" standalone="no"?>
<!DOCTYPE svg PUBLIC "-//W3C//DTD SVG 20010904//EN"
 "http://www.w3.org/TR/2001/REC-SVG-20010904/DTD/svg10.dtd">
<svg version="1.0" xmlns="http://www.w3.org/2000/svg"
 width="398.000000pt" height="398.000000pt" viewBox="0 0 398.000000 398.000000"
 preserveAspectRatio="xMidYMid meet">

<g transform="translate(0.000000,398.000000) scale(0.100000,-0.100000)"
fill="#000000" stroke="none">
<path d="M2180 3873 c-7 -16 -21 -54 -31 -86 -9 -32 -32 -80 -49 -108 -32 -49
-33 -49 -54 -32 -21 18 -21 18 -3 -3 9 -11 17 -29 17 -39 0 -15 -6 -17 -37
-12 -26 5 -33 3 -23 -3 8 -5 23 -10 33 -10 30 0 21 -38 -10 -43 -26 -4 -26 -4
5 -6 27 -1 32 -5 32 -26 0 -31 22 -77 62 -127 l29 -37 -66 -78 c-86 -102 -105
-139 -105 -207 0 -44 4 -59 22 -76 12 -11 30 -20 41 -20 12 0 17 -6 15 -17 -2
-12 -17 -20 -47 -25 -24 -4 -52 -15 -62 -24 -27 -24 -42 -88 -34 -145 4 -27 4
-49 1 -49 -3 0 -22 11 -42 25 -26 18 -50 25 -83 25 -60 0 -71 -9 -78 -58 -5
-38 -4 -41 37 -68 l42 -28 -23 -16 c-44 -28 -99 -82 -99 -97 0 -8 5 -11 12 -7
6 4 -3 -14 -20 -39 -37 -52 -56 -97 -42 -97 5 0 6 -16 3 -37 -4 -26 -3 -34 5
-29 8 5 12 -5 12 -34 0 -23 4 -49 9 -58 6 -11 4 -86 -4 -194 -14 -183 -10
-257 20 -402 8 -38 24 -88 35 -111 27 -57 94 -132 146 -165 l42 -26 -41 -22
c-23 -11 -65 -23 -94 -26 -64 -6 -107 -27 -204 -102 -183 -141 -376 -329 -399
-389 -13 -33 -13 -106 -1 -138 13 -35 69 -95 103 -113 16 -8 53 -16 81 -17
l53 -2 -24 -59 c-13 -32 -35 -111 -48 -175 -28 -130 -26 -144 32 -183 18 -12
35 -31 38 -40 3 -15 15 -18 68 -18 l63 0 -56 23 c-83 35 -129 73 -129 108 0
47 40 219 67 285 l24 61 77 7 c42 3 104 13 137 20 33 8 60 14 61 13 1 -1 -14
-41 -32 -89 -34 -86 -114 -376 -114 -410 0 -17 15 -18 185 -18 l185 0 0 55 c0
85 29 331 53 450 l22 108 52 13 c51 13 55 12 115 -16 35 -17 71 -30 82 -30 14
0 17 -6 14 -25 -4 -19 -1 -25 13 -25 35 0 114 -42 160 -85 26 -24 90 -66 142
-92 110 -54 103 -40 113 -225 6 -104 10 -128 22 -128 13 0 14 21 10 145 -3 80
-5 145 -4 145 1 0 24 -7 50 -16 191 -65 339 103 254 288 -76 164 -302 517
-352 547 -17 10 -60 27 -94 37 -52 14 -68 23 -85 50 -12 19 -39 40 -59 49 -38
15 -38 15 -38 73 0 58 0 58 49 95 27 21 64 60 81 88 25 37 38 49 57 49 36 0
127 55 163 98 54 65 78 201 45 249 -14 20 -14 26 -1 58 9 20 20 34 25 30 20
-12 33 41 35 134 0 53 -3 117 -7 144 -8 43 -7 47 12 47 19 0 19 3 9 28 -6 15
-22 41 -35 58 -22 32 -22 32 -2 27 21 -6 21 -6 3 23 -19 28 -19 28 1 20 57
-22 167 -37 246 -34 72 3 97 9 150 36 83 41 155 105 198 177 30 49 35 66 35
122 1 52 -3 68 -16 77 -25 15 -44 2 -101 -75 -70 -93 -116 -137 -170 -165 -67
-34 -120 -39 -202 -19 -106 26 -103 24 -93 96 15 93 -4 175 -68 304 -33 68
-63 146 -77 205 -13 52 -29 105 -35 117 -10 18 -7 29 23 73 31 46 35 59 34
114 0 33 -4 79 -8 101 -5 28 -3 49 7 69 8 16 15 59 16 95 l1 66 -51 0 c-34 -1
-68 -9 -104 -27 -36 -18 -58 -24 -66 -17 -26 21 -115 40 -160 33 -43 -6 -45
-5 -85 40 -33 37 -47 46 -73 46 -26 0 -36 -6 -46 -27z m84 -24 c19 -16 38 -40
42 -51 6 -19 12 -20 63 -15 59 6 131 -7 168 -30 19 -13 27 -11 70 10 26 13 59
28 73 31 23 7 22 6 -5 -12 -16 -10 -39 -30 -50 -42 -23 -27 -11 -21 57 28 26
18 51 31 56 28 10 -6 -1 -86 -17 -129 -8 -21 -8 -54 0 -118 10 -87 10 -91 -14
-132 -27 -45 -51 -68 -107 -105 l-35 -23 35 7 c19 3 41 11 47 16 15 12 26 -12
48 -110 18 -79 18 -79 78 -203 61 -124 81 -205 74 -289 -7 -85 -30 -142 -66
-163 -38 -22 -55 -22 -46 1 3 9 -10 2 -29 -17 -20 -19 -36 -41 -36 -48 0 -7
-14 -28 -31 -48 -53 -60 -105 -43 -125 40 -3 17 -20 57 -36 90 -33 66 -44 105
-28 105 5 0 10 -8 10 -17 0 -15 2 -15 9 -4 13 21 2 40 -20 34 -10 -3 -19 -1
-19 4 0 16 31 53 41 48 5 -4 9 -1 9 4 0 6 9 11 20 11 11 0 20 -5 20 -11 0 -5
4 -8 9 -5 21 13 57 -51 75 -136 12 -54 14 -58 15 -26 1 20 -8 65 -19 100 -11
34 -20 76 -20 91 0 29 35 107 54 119 15 10 76 10 76 0 0 -5 16 -16 35 -25 40
-19 46 -10 13 20 -48 43 -106 56 -138 30 -25 -20 -50 -64 -58 -104 -8 -38 -8
-38 -53 -35 -64 5 -99 -24 -99 -81 0 -23 9 -61 19 -84 l19 -42 -26 -5 c-127
-24 -226 -5 -302 59 -23 19 -44 35 -47 35 -6 0 6 -21 25 -42 13 -15 12 -18
-13 -24 -16 -4 -36 -22 -51 -46 -41 -65 -51 -63 -165 32 -39 33 -75 60 -80 60
-5 0 -6 7 -3 15 4 8 15 15 25 15 10 0 19 5 19 11 0 5 -5 7 -12 3 -8 -5 -9 -2
-5 10 5 12 3 16 -5 13 -7 -2 -12 -8 -11 -13 2 -15 -25 -35 -32 -24 -3 6 -1 10
4 10 6 0 11 8 11 18 -1 14 -4 13 -20 -7 -11 -13 -21 -20 -21 -17 -5 24 -4 33
9 49 32 37 94 15 161 -58 24 -26 45 -44 48 -42 2 3 -1 32 -8 66 -17 87 -8 169
21 193 12 10 34 18 49 18 l26 0 0 -90 c0 -62 4 -93 14 -102 11 -11 13 -2 8 57
-8 103 9 194 40 219 31 24 139 168 148 196 4 13 0 31 -10 47 -14 21 -22 24
-51 20 -43 -7 -90 -40 -109 -77 -24 -46 -18 -46 35 4 52 49 95 61 107 29 4 -9
1 -19 -5 -21 -7 -2 -10 -8 -6 -13 5 -9 -58 -96 -109 -151 -18 -20 -31 -25 -48
-21 -42 10 -49 23 -49 83 0 63 16 90 118 205 43 49 43 49 78 36 50 -18 51 -9
3 24 -92 60 -134 134 -126 220 5 59 24 99 70 152 17 20 26 34 20 29 -16 -9
-17 -13 7 63 30 96 31 97 84 50z m1166 -1076 c0 -64 -38 -142 -95 -197 -57
-56 -168 -112 -238 -121 -66 -8 -188 8 -260 35 l-54 20 39 39 39 39 67 -19
c74 -21 148 -24 204 -9 55 16 151 91 199 157 54 73 80 103 91 103 4 0 8 -21 8
-47z m-1643 -495 c25 -28 35 -21 16 10 -17 27 -17 27 3 10 22 -20 94 -51 94
-42 0 3 -8 18 -18 32 -10 15 -21 32 -25 38 -10 17 56 4 78 -17 26 -23 69 -39
106 -39 16 0 46 -7 67 -16 21 -10 73 -18 122 -20 78 -3 86 -6 104 -29 24 -34
82 -71 133 -84 32 -9 43 -18 61 -56 25 -52 27 -86 10 -185 -11 -61 -10 -73 2
-80 31 -20 58 -11 81 26 23 38 72 74 101 74 31 0 51 -44 44 -97 -17 -120 -103
-211 -208 -221 -35 -3 -48 -9 -48 -20 0 -30 -54 -94 -114 -137 -135 -95 -272
-141 -391 -130 -91 7 -142 33 -209 105 -65 71 -87 125 -112 274 -15 97 -16
129 -6 295 12 198 33 324 60 354 15 17 16 17 25 -5 4 -12 15 -31 24 -40z m583
-1108 c17 -10 -62 -51 -145 -75 -72 -21 -204 -17 -252 8 -30 16 -63 61 -63 87
0 5 11 10 25 10 20 0 27 6 32 30 5 30 6 30 77 30 83 0 151 17 238 57 l63 29 6
-84 c4 -52 11 -87 19 -92z m-440 74 c0 -11 -5 -14 -16 -10 -9 3 -18 6 -20 6
-3 0 -2 5 1 10 10 16 35 12 35 -6z m490 -40 c0 -8 -7 -14 -15 -14 -8 0 -15 9
-15 20 0 13 5 18 15 14 8 -4 15 -12 15 -20z m-595 -29 c-17 -49 -18 -95 -4
-168 14 -69 4 -166 -18 -174 -8 -3 -36 1 -62 11 -25 9 -65 16 -88 16 -24 0
-43 2 -43 5 0 3 9 18 19 33 20 28 41 125 23 107 -5 -5 -15 -26 -21 -46 -6 -20
-23 -47 -37 -60 -23 -22 -34 -24 -122 -25 -98 0 -142 -12 -171 -47 -10 -13 -6
-13 31 0 56 20 312 12 379 -11 24 -9 76 -16 115 -16 56 0 73 -3 78 -16 13 -33
17 -120 7 -146 -9 -24 -16 -27 -78 -33 -37 -4 -75 -13 -83 -20 -47 -38 -229
-75 -375 -75 -119 0 -184 44 -201 137 -16 87 47 170 286 371 165 139 232 182
282 182 21 0 38 -1 38 -3 0 -2 -8 -21 -19 -43 -16 -33 -51 -175 -51 -205 0
-20 18 -7 49 36 18 25 37 42 43 39 6 -4 9 -1 6 6 -9 27 -27 21 -53 -17 -15
-21 -25 -29 -22 -18 3 11 11 45 17 75 7 30 17 64 23 75 10 22 59 77 63 72 2
-2 -3 -21 -11 -42z m59 0 c10 -39 64 -94 106 -106 40 -12 40 -13 -1 -57 -9 -9
-19 -30 -23 -47 -4 -16 -14 -37 -21 -45 -8 -9 -21 -32 -30 -53 -13 -32 -20
-37 -49 -37 l-34 0 10 43 c7 29 6 71 -3 139 -10 78 -10 105 1 142 14 50 34 60
44 21z m584 -68 c-9 -18 -46 -69 -84 -115 -69 -83 -69 -83 -72 -52 -2 18 -13
48 -24 68 -19 34 -19 37 -3 47 57 33 137 99 147 121 l12 25 19 -31 c18 -29 19
-34 5 -63z m107 3 c33 -11 70 -27 83 -36 34 -22 229 -323 298 -459 48 -96 59
-125 58 -164 -1 -89 -73 -161 -161 -161 -45 0 -195 54 -293 106 -38 20 -88 56
-110 80 -22 24 -40 41 -40 39 0 -3 -27 8 -60 25 -42 21 -60 36 -60 50 0 27 38
126 53 139 12 9 61 0 127 -25 8 -3 48 -7 90 -8 98 -5 262 -48 322 -86 48 -29
58 -29 35 0 -38 49 -127 83 -297 115 -52 9 -100 19 -106 20 -6 2 -24 37 -39
79 -42 114 -65 97 -25 -19 11 -32 18 -60 16 -62 -2 -2 -21 3 -41 11 -21 9 -45
16 -55 16 -12 0 -21 17 -34 61 l-17 61 48 57 c26 31 60 70 75 86 16 17 35 45
43 63 9 17 20 32 24 32 4 0 34 -9 66 -20z m-305 -42 c-70 -42 -120 -60 -135
-48 -8 6 -23 9 -33 6 -11 -4 -24 0 -31 7 -9 12 1 15 56 20 38 4 88 13 113 21
64 20 70 19 30 -6z m-210 -57 c7 -13 7 -22 0 -26 -15 -9 -30 4 -30 26 0 25 16
25 30 0z m168 -62 c-18 -22 -52 -52 -75 -66 -39 -22 -56 -43 -35 -43 19 0 81
46 119 88 33 36 43 43 43 28 0 -34 -52 -97 -101 -122 -26 -13 -50 -28 -54 -34
-21 -34 108 30 131 65 9 14 19 23 22 21 10 -10 -50 -77 -106 -118 -66 -49 -54
-64 13 -18 26 18 49 30 51 27 3 -2 -18 -25 -46 -50 -54 -48 -113 -74 -196 -83
l-51 -6 -1 64 c-1 36 -6 76 -11 90 -17 44 23 108 84 136 28 13 62 35 78 50 22
21 27 23 27 8 0 -31 -19 -54 -50 -61 -31 -7 -42 -35 -14 -35 30 0 100 41 150
88 37 34 50 41 52 29 2 -9 -12 -35 -30 -58z m-208 20 c0 -5 -4 -9 -10 -9 -5 0
-10 7 -10 16 0 8 5 12 10 9 6 -3 10 -10 10 -16z m301 -190 c1 -13 -9 -49 -23
-79 -14 -30 -28 -63 -31 -72 -4 -10 -14 -18 -24 -18 -21 0 -103 32 -103 41 0
3 12 12 26 20 37 20 123 116 131 147 6 24 7 24 14 6 4 -12 8 -32 10 -45z
m-354 -191 c-36 -208 -47 -276 -47 -295 0 -28 -31 -30 -106 -9 -27 8 -75 20
-106 26 -32 6 -58 16 -58 21 0 5 17 53 37 105 35 91 39 98 77 114 23 10 67 21
99 25 42 5 60 12 67 26 6 10 18 19 27 19 12 0 14 -7 10 -32z m-195 -333 c0 -5
-5 -11 -11 -13 -6 -2 -11 4 -11 13 0 9 5 15 11 13 6 -2 11 -8 11 -13z"/>
<path d="M2231 3855 c0 -6 7 -26 15 -45 l14 -35 -5 35 c-5 30 -26 70 -24 45z"/>
<path d="M2140 3640 c0 -5 19 -10 43 -10 24 0 48 -5 55 -12 7 -7 12 -8 12 -2
0 21 -26 34 -67 34 -24 0 -43 -4 -43 -10z"/>
<path d="M2375 3600 c-4 -6 16 -10 52 -10 33 0 64 -5 71 -12 9 -9 12 -9 12 0
0 6 -9 16 -19 22 -25 13 -108 13 -116 0z"/>
<path d="M2235 3571 c-3 -5 4 -16 16 -24 15 -11 19 -21 14 -36 -7 -23 -43 -29
-63 -9 -8 8 -12 8 -12 1 0 -21 26 -31 96 -38 57 -5 73 -4 83 9 11 13 9 13 -19
3 -36 -14 -63 -2 -68 30 -2 15 4 22 22 27 29 7 35 31 10 40 -24 9 -72 7 -79
-3z m78 -16 c-4 -17 -37 -17 -58 0 -19 14 -18 15 20 13 22 -2 39 -7 38 -13z"/>
<path d="M2638 3550 c-48 -17 -81 -37 -43 -27 86 24 105 31 105 39 0 10 -4 9
-62 -12z"/>
<path d="M2618 3483 c18 -2 45 -2 60 0 15 2 0 4 -33 4 -33 0 -45 -2 -27 -4z"/>
<path d="M2580 3446 c0 -2 18 -15 40 -30 22 -14 40 -22 40 -17 0 5 -16 18 -36
30 -35 21 -44 24 -44 17z"/>
<path d="M2359 3219 c-18 -34 4 -93 44 -118 17 -11 46 -34 62 -52 65 -69 125
-109 164 -109 40 0 61 14 61 42 0 22 -18 24 -26 3 -4 -9 -19 -15 -40 -15 -28
0 -47 11 -98 58 -34 31 -80 70 -100 85 -23 18 -35 34 -32 43 3 9 1 12 -5 9
-11 -7 -8 39 3 51 14 13 111 -30 160 -72 60 -51 74 -50 32 2 -62 77 -199 121
-225 73z"/>
<path d="M2484 2714 c-14 -6 -6 -44 8 -44 6 0 8 9 5 20 -3 11 -1 20 4 20 8 0
13 -15 10 -32 0 -5 4 -8 9 -8 6 0 10 5 10 11 0 5 5 7 10 4 6 -3 10 -1 10 5 0
7 -6 10 -14 7 -8 -3 -17 1 -20 9 -5 14 -12 16 -32 8z"/>
<path d="M1830 2643 c8 -3 19 -11 23 -17 6 -7 7 -6 4 4 -2 8 -12 16 -23 17
-13 2 -15 1 -4 -4z"/>
<path d="M2532 2626 c7 -8 15 -12 17 -11 5 6 -10 25 -20 25 -5 0 -4 -6 3 -14z"/>
<path d="M2477 2599 c7 -7 15 -10 18 -7 3 3 -2 9 -12 12 -14 6 -15 5 -6 -5z"/>
<path d="M1751 2114 c-39 -33 -40 -49 -1 -29 40 20 96 19 149 -5 53 -24 75
-26 67 -4 -3 9 -6 17 -6 20 0 2 -18 13 -40 24 -58 30 -130 27 -169 -6z"/>
<path d="M2160 2077 c-14 -7 -26 -20 -28 -29 -3 -14 6 -16 76 -11 95 7 120 1
161 -33 36 -30 39 -24 11 21 -35 56 -155 85 -220 52z"/>
<path d="M1845 2000 c-3 -5 -2 -10 4 -10 5 0 13 5 16 10 3 6 2 10 -4 10 -5 0
-13 -4 -16 -10z"/>
<path d="M1755 1963 c-45 -5 -60 -15 -52 -36 5 -12 13 -13 58 -1 56 15 84 11
141 -17 43 -22 48 -23 48 -9 0 15 -82 58 -120 63 -19 2 -53 2 -75 0z"/>
<path d="M2210 1950 c0 -5 9 -10 19 -10 11 0 23 5 26 10 4 6 -5 10 -19 10 -14
0 -26 -4 -26 -10z"/>
<path d="M1976 1929 c-3 -8 -15 -43 -26 -79 -12 -36 -32 -84 -46 -107 -26 -44
-31 -73 -13 -73 6 0 24 -9 39 -20 24 -17 38 -19 89 -14 l61 7 0 39 c0 24 -4
37 -10 33 -5 -3 -10 -17 -10 -29 0 -22 -3 -23 -52 -19 -29 3 -59 6 -65 8 -20
6 -15 71 7 115 22 43 45 138 36 147 -3 3 -8 0 -10 -8z"/>
<path d="M2148 1898 c-62 -16 -43 -27 37 -21 67 5 79 3 130 -22 42 -20 60 -24
68 -16 16 16 -7 35 -67 55 -55 18 -111 19 -168 4z"/>
<path d="M1741 1896 c2 -2 24 -6 48 -9 29 -4 40 -2 30 4 -13 8 -88 14 -78 5z"/>
<path d="M2653 1825 c-27 -28 -43 -55 -43 -70 0 -13 -7 -40 -16 -59 -35 -72
18 -91 78 -28 51 53 70 96 66 148 -2 24 1 46 7 48 5 3 -3 5 -19 5 -22 1 -40
-10 -73 -44z"/>
<path d="M2255 1830 c17 -4 41 -8 55 -8 l25 0 -25 8 c-14 4 -38 8 -55 8 l-30
0 30 -8z"/>
<path d="M1827 1566 c-7 -17 1 -26 23 -26 9 0 27 -12 41 -26 53 -57 124 -70
194 -34 22 11 54 20 73 20 51 0 34 24 -19 28 -24 1 -86 9 -137 18 -51 8 -96
13 -100 10 -5 -3 -21 2 -36 10 -34 17 -33 17 -39 0z m212 -82 c2 -2 -4 -6 -13
-10 -20 -8 -86 4 -86 15 0 8 90 3 99 -5z"/>
<path d="M3415 3738 c-43 -39 -44 -96 -1 -206 20 -51 39 -113 43 -138 3 -24 9
-47 13 -49 10 -6 175 79 218 112 57 43 92 108 92 171 0 46 -4 58 -29 83 -40
39 -79 39 -126 -2 l-36 -32 -15 22 c-47 66 -110 81 -159 39z m105 -4 c14 -8
17 -13 7 -10 -10 3 -37 6 -60 6 -31 0 -38 3 -27 10 21 14 51 12 80 -6z m210
-19 c17 -9 30 -17 30 -19 0 -3 3 -12 6 -21 5 -11 -3 -8 -21 9 -19 18 -39 26
-64 26 -27 0 -32 3 -21 10 21 14 36 12 70 -5z"/>
<path d="M2972 3483 c-31 -12 -42 -59 -35 -158 l6 -97 36 7 c133 23 201 70
201 139 0 43 -14 52 -72 50 -34 -1 -48 2 -48 11 0 16 -47 55 -64 54 -6 0 -17
-3 -24 -6z m35 -9 c-3 -3 -12 -4 -19 -1 -8 3 -5 6 6 6 11 1 17 -2 13 -5z"/>
<path d="M1236 3239 c-28 -22 -66 -87 -66 -113 0 -12 -8 -10 -36 9 -105 71
-217 -13 -184 -136 15 -53 95 -140 158 -169 48 -23 238 -70 282 -70 l25 0 0
107 c0 60 4 138 9 174 10 81 -12 168 -52 199 -34 27 -101 27 -136 -1z m60 -14
c-20 -7 -47 -20 -62 -30 -25 -16 -25 -16 -14 5 14 26 65 49 92 42 16 -4 13 -7
-16 -17z m-251 -89 c-35 -15 -60 -41 -74 -76 l-10 -25 0 28 c-1 38 47 87 86
87 l28 -1 -30 -13z"/>
<path d="M3243 1598 c-36 -39 -46 -98 -32 -189 6 -45 9 -105 6 -135 l-6 -54
42 6 c86 13 192 45 234 70 90 53 131 167 79 219 -36 36 -69 41 -111 16 -20
-12 -38 -21 -40 -21 -2 0 -9 16 -15 35 -23 71 -113 101 -157 53z m108 -8 l24
-20 -40 16 c-49 20 -54 24 -28 24 12 0 31 -9 44 -20z m208 -86 c12 -15 20 -36
20 -48 l-2 -21 -4 21 c-6 30 -43 62 -78 67 -28 4 -27 4 7 6 29 1 41 -5 57 -25z"/>
</g>
</svg>
