<?xml version="1.0" standalone="no"?>
<!DOCTYPE svg PUBLIC "-//W3C//DTD SVG 20010904//EN"
 "http://www.w3.org/TR/2001/REC-SVG-20010904/DTD/svg10.dtd">
<svg version="1.0" xmlns="http://www.w3.org/2000/svg"
 width="398.000000pt" height="398.000000pt" viewBox="0 0 398.000000 398.000000"
 preserveAspectRatio="xMidYMid meet">

<g transform="translate(0.000000,398.000000) scale(0.100000,-0.100000)"
fill="#000000" stroke="none">
<path d="M2180 3873 c-7 -16 -21 -54 -31 -86 -9 -32 -32 -80 -49 -108 -32 -49
-33 -49 -54 -32 -21 18 -21 18 -3 -3 9 -11 17 -29 17 -39 0 -15 -6 -17 -37
-12 -26 5 -33 3 -23 -3 8 -5 23 -10 33 -10 30 0 21 -38 -10 -43 -26 -4 -26 -4
5 -6 27 -1 32 -5 32 -26 0 -31 22 -77 62 -127 l29 -37 -66 -78 c-86 -102 -105
-139 -105 -207 0 -44 4 -59 22 -76 12 -11 30 -20 41 -20 12 0 17 -6 15 -17 -2
-12 -17 -20 -47 -25 -24 -4 -52 -15 -62 -24 -27 -24 -42 -88 -34 -145 4 -27 4
-49 1 -49 -3 0 -22 11 -42 25 -26 18 -50 25 -83 25 -60 0 -71 -9 -78 -58 -5
-38 -4 -41 37 -68 l42 -28 -23 -16 c-44 -28 -99 -82 -99 -97 0 -8 5 -11 12 -7
6 4 -3 -14 -20 -39 -37 -52 -56 -97 -42 -97 5 0 6 -16 3 -37 -4 -26 -3 -34 5
-29 8 5 12 -5 12 -34 0 -23 4 -49 9 -58 6 -11 4 -86 -4 -194 -14 -183 -10
-257 20 -402 19 -89 46 -144 102 -206 47 -53 134 -110 166 -110 10 0 15 -5 12
-10 -3 -5 -13 -10 -22 -10 -8 0 -27 -8 -41 -19 -15 -10 -51 -21 -80 -23 -75
-7 -132 -50 -358 -271 -200 -195 -223 -226 -210 -288 8 -42 34 -78 70 -96 25
-13 61 -16 192 -14 l161 2 -13 -93 c-7 -51 -24 -156 -38 -233 -31 -174 -32
-187 -23 -202 12 -20 36 -16 30 5 -2 10 11 110 31 222 19 113 38 228 41 255
l6 51 62 11 c34 7 63 10 65 8 2 -2 -17 -128 -42 -281 -42 -246 -48 -299 -31
-283 2 3 26 133 52 288 26 156 49 277 51 267 2 -9 12 -16 25 -15 17 1 18 2 5
6 -10 2 -18 9 -18 14 0 13 46 22 76 15 14 -4 23 -3 21 1 -3 5 1 19 9 33 l15
25 -5 -30 c-3 -16 -13 -154 -22 -305 -9 -157 -21 -281 -27 -289 -9 -10 -7 -13
8 -10 19 4 21 23 41 317 12 172 23 314 26 317 12 12 118 4 163 -12 40 -15 51
-24 53 -44 2 -21 14 -30 60 -49 31 -13 93 -42 137 -64 l80 -41 -6 -65 c-4 -36
-9 -131 -13 -212 -6 -124 -4 -148 7 -148 21 0 27 31 28 140 1 116 12 256 21
265 3 3 58 -12 121 -34 63 -23 131 -41 152 -41 74 0 135 59 135 131 0 68 -258
557 -325 616 -13 12 -55 32 -93 44 -53 17 -73 29 -89 53 -14 22 -35 36 -63 45
l-42 13 4 56 c4 40 10 59 23 67 63 36 138 102 165 145 25 38 38 50 57 50 36 0
127 55 163 98 54 65 78 201 45 249 -14 20 -14 26 -1 58 9 20 20 34 25 30 20
-12 33 41 35 134 0 53 -3 117 -7 144 -8 43 -7 47 12 47 19 0 19 3 9 28 -6 15
-22 41 -35 58 -22 32 -22 32 -2 27 21 -6 21 -6 3 23 -19 28 -19 28 1 20 57
-22 167 -37 246 -34 72 3 97 9 150 36 83 41 155 105 198 177 30 49 35 66 35
122 1 52 -3 68 -16 77 -25 15 -44 2 -101 -75 -70 -93 -116 -137 -170 -165 -67
-34 -120 -39 -202 -19 -106 26 -103 24 -93 96 15 93 -4 175 -68 304 -33 68
-63 146 -77 205 -13 52 -29 105 -35 117 -10 18 -7 29 23 73 31 46 35 59 34
114 0 33 -4 79 -8 101 -5 28 -3 49 7 69 8 16 15 59 16 95 l1 66 -51 0 c-34 -1
-68 -9 -104 -27 -36 -18 -58 -24 -66 -17 -26 21 -115 40 -160 33 -43 -6 -45
-5 -85 40 -33 37 -47 46 -73 46 -26 0 -36 -6 -46 -27z m84 -24 c19 -16 38 -40
42 -51 6 -19 12 -20 63 -15 59 6 131 -7 168 -30 19 -13 27 -11 70 10 26 13 59
28 73 31 23 7 22 6 -5 -12 -16 -10 -39 -30 -50 -42 -23 -27 -11 -21 57 28 26
18 51 31 56 28 10 -6 -1 -86 -17 -129 -8 -21 -8 -54 0 -118 10 -87 10 -91 -14
-132 -27 -45 -51 -68 -107 -105 l-35 -23 35 7 c19 3 41 11 47 16 15 12 26 -12
48 -110 18 -79 18 -79 78 -203 61 -124 81 -205 74 -289 -7 -85 -30 -142 -66
-163 -38 -22 -55 -22 -46 1 3 9 -10 2 -29 -17 -20 -19 -36 -41 -36 -48 0 -7
-14 -28 -31 -48 -53 -60 -105 -43 -125 40 -3 17 -20 57 -36 90 -33 66 -44 105
-28 105 5 0 10 -8 10 -17 0 -15 2 -15 9 -4 13 21 2 40 -20 34 -10 -3 -19 -1
-19 4 0 16 31 53 41 48 5 -4 9 -1 9 4 0 6 9 11 20 11 11 0 20 -5 20 -11 0 -5
4 -8 9 -5 21 13 57 -51 75 -136 12 -54 14 -58 15 -26 1 20 -8 65 -19 100 -11
34 -20 76 -20 91 0 29 35 107 54 119 15 10 76 10 76 0 0 -5 16 -16 35 -25 40
-19 46 -10 13 20 -48 43 -106 56 -138 30 -25 -20 -50 -64 -58 -104 -8 -38 -8
-38 -53 -35 -64 5 -99 -24 -99 -81 0 -23 9 -61 19 -84 l19 -42 -26 -5 c-127
-24 -226 -5 -302 59 -23 19 -44 35 -47 35 -6 0 6 -21 25 -42 13 -15 12 -18
-13 -24 -16 -4 -36 -22 -51 -46 -41 -65 -51 -63 -165 32 -39 33 -75 60 -80 60
-5 0 -6 7 -3 15 4 8 15 15 25 15 10 0 19 5 19 11 0 5 -5 7 -12 3 -8 -5 -9 -2
-5 10 5 12 3 16 -5 13 -7 -2 -12 -8 -11 -13 2 -15 -25 -35 -32 -24 -3 6 -1 10
4 10 6 0 11 8 11 18 -1 14 -4 13 -20 -7 -11 -13 -21 -20 -21 -17 -5 24 -4 33
9 49 32 37 94 15 161 -58 24 -26 45 -44 48 -42 2 3 -1 32 -8 66 -17 87 -8 169
21 193 12 10 34 18 49 18 l26 0 0 -90 c0 -62 4 -93 14 -102 11 -11 13 -2 8 57
-8 103 9 194 40 219 31 24 139 168 148 196 4 13 0 31 -10 47 -14 21 -22 24
-51 20 -43 -7 -90 -40 -109 -77 -24 -46 -18 -46 35 4 52 49 95 61 107 29 4 -9
1 -19 -5 -21 -7 -2 -10 -8 -6 -13 5 -9 -58 -96 -109 -151 -18 -20 -31 -25 -48
-21 -42 10 -49 23 -49 83 0 63 16 90 118 205 43 49 43 49 78 36 50 -18 51 -9
3 24 -92 60 -134 134 -126 220 5 59 24 99 70 152 17 20 26 34 20 29 -16 -9
-17 -13 7 63 30 96 31 97 84 50z m1166 -1076 c0 -64 -38 -142 -95 -197 -57
-56 -168 -112 -238 -121 -66 -8 -188 8 -260 35 l-54 20 39 39 39 39 67 -19
c74 -21 148 -24 204 -9 55 16 151 91 199 157 54 73 80 103 91 103 4 0 8 -21 8
-47z m-1643 -495 c25 -28 35 -21 16 10 -17 27 -17 27 3 10 22 -20 94 -51 94
-42 0 3 -8 18 -18 32 -10 15 -21 32 -25 38 -10 17 56 4 78 -17 26 -23 69 -39
106 -39 16 0 46 -7 67 -16 21 -10 73 -18 122 -20 78 -3 86 -6 104 -29 24 -34
82 -71 133 -84 32 -9 43 -18 61 -56 25 -52 27 -86 10 -185 -11 -61 -10 -73 2
-80 31 -20 58 -11 81 26 23 38 72 74 101 74 31 0 51 -44 44 -97 -17 -120 -103
-211 -208 -221 -35 -3 -48 -9 -48 -20 0 -30 -54 -94 -114 -137 -135 -95 -272
-141 -391 -130 -91 7 -142 33 -209 105 -65 71 -87 125 -112 274 -15 97 -16
129 -6 295 12 198 33 324 60 354 15 17 16 17 25 -5 4 -12 15 -31 24 -40z m515
-1054 l3 -96 -48 -25 c-27 -13 -70 -27 -96 -30 -60 -7 -152 12 -185 38 -28 22
-35 49 -12 49 9 0 19 20 27 50 l13 50 55 0 c59 0 132 17 191 43 19 8 38 16 42
16 4 1 8 -42 10 -95z m-342 -4 c0 -13 -28 -25 -38 -16 -3 4 0 11 8 16 20 13
30 12 30 0z m410 -46 c0 -8 -7 -14 -15 -14 -8 0 -15 9 -15 20 0 13 5 18 15 14
8 -4 15 -12 15 -20z m-496 -34 c-10 -39 -11 -69 -2 -133 7 -53 7 -102 2 -137
l-10 -55 -74 3 c-41 2 -76 5 -78 7 -3 2 3 20 12 39 9 20 16 59 16 93 -1 65
-13 56 -24 -17 -9 -65 -37 -106 -76 -114 -18 -3 -65 -6 -104 -6 -81 0 -167
-21 -187 -47 -12 -15 -12 -16 6 -9 43 16 188 27 301 23 66 -3 154 -5 196 -5
76 -1 77 -1 85 -29 10 -38 9 -121 -3 -132 -5 -5 -40 -12 -79 -15 -38 -3 -90
-10 -115 -16 -25 -5 -127 -13 -227 -16 l-181 -7 -31 31 c-24 24 -31 39 -31 71
0 33 8 50 49 98 70 84 353 349 412 386 13 8 43 17 67 21 l43 6 -14 -27 c-13
-24 -67 -202 -67 -217 0 -17 18 -1 45 39 17 24 36 45 43 45 7 0 10 5 7 10 -11
18 -32 10 -44 -16 -21 -47 -21 -20 1 51 33 109 88 176 62 75z m46 1 c0 -27 49
-65 103 -80 26 -8 80 -12 126 -10 l81 4 -67 -34 c-37 -18 -76 -44 -86 -58
l-20 -24 -31 30 c-18 17 -39 31 -47 31 -26 0 -53 -60 -53 -122 -1 -47 -4 -58
-17 -58 -15 0 -17 12 -17 88 1 48 0 119 -2 157 -2 39 -1 76 4 83 11 18 26 14
26 -7z m510 -31 c0 -17 -106 -150 -120 -150 -5 0 -11 4 -15 10 -7 11 -33 3
-57 -18 -16 -13 -18 -12 -29 12 -11 24 -21 30 -41 27 -23 -3 2 13 83 55 51 26
106 62 123 80 27 29 31 30 43 16 7 -10 13 -24 13 -32z m143 -45 c41 -19 151
-198 259 -420 85 -177 91 -211 40 -256 -20 -18 -43 -29 -61 -29 -33 0 -303 95
-379 134 -29 15 -52 31 -52 37 0 5 -4 8 -9 5 -8 -6 -121 39 -121 48 0 2 10 2
23 0 l22 -5 -22 12 c-13 7 -23 18 -23 26 0 24 42 113 53 113 23 0 127 -33 127
-40 0 -5 9 -6 20 -3 36 10 355 -101 380 -132 19 -22 32 -18 20 6 -18 33 -91
73 -209 113 l-112 39 -25 49 c-21 41 -28 47 -40 38 -12 -11 -11 -17 7 -47 l21
-34 -38 7 c-22 4 -63 15 -91 26 -29 11 -57 17 -63 13 -14 -8 -13 -4 7 35 10
21 16 55 15 88 -1 53 0 57 54 115 31 33 60 70 66 82 10 21 12 22 54 9 24 -7
59 -20 77 -29z m-560 -121 c25 -33 11 -46 -13 -14 -11 14 -20 28 -20 33 0 14
15 6 33 -19z m188 -17 c-15 -15 -30 1 -24 24 6 21 7 21 20 4 8 -12 9 -23 4
-28z m-65 -12 c-9 -14 -25 -25 -36 -25 -11 0 -20 -7 -20 -15 0 -29 78 -9 149
40 28 18 51 30 51 26 0 -11 -81 -86 -109 -100 -12 -7 -19 -16 -16 -22 8 -13
56 16 106 64 21 21 39 34 39 30 0 -17 -64 -85 -102 -109 -21 -14 -36 -29 -33
-34 7 -11 45 10 95 54 32 29 32 28 -5 -12 -22 -24 -52 -51 -67 -60 -16 -9 -28
-20 -28 -24 0 -15 23 -8 59 18 l36 25 -40 -36 c-43 -39 -111 -63 -190 -67
l-50 -3 -7 65 c-7 58 -5 69 17 106 19 32 36 47 69 59 25 10 55 28 68 42 27 29
37 13 14 -22z m-146 -19 c0 -6 -7 -2 -15 8 -8 11 -15 25 -15 30 0 6 7 2 15 -8
8 -11 15 -25 15 -30z m259 -193 c-10 -21 -19 -43 -19 -50 0 -14 -33 -16 -65
-4 -18 7 -15 10 20 28 22 12 49 30 59 42 26 29 27 27 5 -16z"/>
<path d="M2231 3855 c0 -6 7 -26 15 -45 l14 -35 -5 35 c-5 30 -26 70 -24 45z"/>
<path d="M2140 3640 c0 -5 19 -10 43 -10 24 0 48 -5 55 -12 7 -7 12 -8 12 -2
0 21 -26 34 -67 34 -24 0 -43 -4 -43 -10z"/>
<path d="M2375 3600 c-4 -6 16 -10 52 -10 33 0 64 -5 71 -12 9 -9 12 -9 12 0
0 6 -9 16 -19 22 -25 13 -108 13 -116 0z"/>
<path d="M2235 3571 c-3 -5 4 -16 16 -24 15 -11 19 -21 14 -36 -7 -23 -43 -29
-63 -9 -8 8 -12 8 -12 1 0 -21 26 -31 96 -38 57 -5 73 -4 83 9 11 13 9 13 -19
3 -36 -14 -63 -2 -68 30 -2 15 4 22 22 27 29 7 35 31 10 40 -24 9 -72 7 -79
-3z m78 -16 c-4 -17 -37 -17 -58 0 -19 14 -18 15 20 13 22 -2 39 -7 38 -13z"/>
<path d="M2638 3550 c-48 -17 -81 -37 -43 -27 86 24 105 31 105 39 0 10 -4 9
-62 -12z"/>
<path d="M2618 3483 c18 -2 45 -2 60 0 15 2 0 4 -33 4 -33 0 -45 -2 -27 -4z"/>
<path d="M2580 3446 c0 -2 18 -15 40 -30 22 -14 40 -22 40 -17 0 5 -16 18 -36
30 -35 21 -44 24 -44 17z"/>
<path d="M2359 3219 c-18 -34 4 -93 44 -118 17 -11 46 -34 62 -52 65 -69 125
-109 164 -109 40 0 61 14 61 42 0 22 -18 24 -26 3 -4 -9 -19 -15 -40 -15 -28
0 -47 11 -98 58 -34 31 -80 70 -100 85 -23 18 -35 34 -32 43 3 9 1 12 -5 9
-11 -7 -8 39 3 51 14 13 111 -30 160 -72 60 -51 74 -50 32 2 -62 77 -199 121
-225 73z"/>
<path d="M2484 2714 c-14 -6 -6 -44 8 -44 6 0 8 9 5 20 -3 11 -1 20 4 20 8 0
13 -15 10 -32 0 -5 4 -8 9 -8 6 0 10 5 10 11 0 5 5 7 10 4 6 -3 10 -1 10 5 0
7 -6 10 -14 7 -8 -3 -17 1 -20 9 -5 14 -12 16 -32 8z"/>
<path d="M1830 2643 c8 -3 19 -11 23 -17 6 -7 7 -6 4 4 -2 8 -12 16 -23 17
-13 2 -15 1 -4 -4z"/>
<path d="M2532 2626 c7 -8 15 -12 17 -11 5 6 -10 25 -20 25 -5 0 -4 -6 3 -14z"/>
<path d="M2477 2599 c7 -7 15 -10 18 -7 3 3 -2 9 -12 12 -14 6 -15 5 -6 -5z"/>
<path d="M1751 2114 c-39 -33 -40 -49 -1 -29 40 20 96 19 149 -5 53 -24 75
-26 67 -4 -3 9 -6 17 -6 20 0 2 -18 13 -40 24 -58 30 -130 27 -169 -6z"/>
<path d="M2160 2077 c-14 -7 -26 -20 -28 -29 -3 -14 6 -16 76 -11 95 7 120 1
161 -33 36 -30 39 -24 11 21 -35 56 -155 85 -220 52z"/>
<path d="M1845 2000 c-3 -5 -2 -10 4 -10 5 0 13 5 16 10 3 6 2 10 -4 10 -5 0
-13 -4 -16 -10z"/>
<path d="M1755 1963 c-45 -5 -60 -15 -52 -36 5 -12 13 -13 58 -1 56 15 84 11
141 -17 43 -22 48 -23 48 -9 0 15 -82 58 -120 63 -19 2 -53 2 -75 0z"/>
<path d="M2210 1950 c0 -5 9 -10 19 -10 11 0 23 5 26 10 4 6 -5 10 -19 10 -14
0 -26 -4 -26 -10z"/>
<path d="M1976 1929 c-3 -8 -15 -43 -26 -79 -12 -36 -32 -84 -46 -107 -26 -44
-31 -73 -13 -73 6 0 24 -9 39 -20 24 -17 38 -19 89 -14 l61 7 0 39 c0 24 -4
37 -10 33 -5 -3 -10 -17 -10 -29 0 -22 -3 -23 -52 -19 -29 3 -59 6 -65 8 -20
6 -15 71 7 115 22 43 45 138 36 147 -3 3 -8 0 -10 -8z"/>
<path d="M2148 1898 c-62 -16 -43 -27 37 -21 67 5 79 3 130 -22 42 -20 60 -24
68 -16 16 16 -7 35 -67 55 -55 18 -111 19 -168 4z"/>
<path d="M1741 1896 c2 -2 24 -6 48 -9 29 -4 40 -2 30 4 -13 8 -88 14 -78 5z"/>
<path d="M2653 1825 c-27 -28 -43 -55 -43 -70 0 -13 -7 -40 -16 -59 -35 -72
18 -91 78 -28 51 53 70 96 66 148 -2 24 1 46 7 48 5 3 -3 5 -19 5 -22 1 -40
-10 -73 -44z"/>
<path d="M2255 1830 c17 -4 41 -8 55 -8 l25 0 -25 8 c-14 4 -38 8 -55 8 l-30
0 30 -8z"/>
<path d="M1827 1566 c-7 -17 1 -26 24 -26 9 0 24 -12 34 -26 9 -14 37 -35 62
-46 51 -23 97 -19 151 13 18 10 47 19 63 19 56 0 26 25 -37 31 -124 12 -250
31 -266 40 -23 12 -25 12 -31 -5z"/>
<path d="M3415 3738 c-43 -39 -44 -96 -1 -206 20 -51 39 -113 43 -138 3 -24 9
-47 13 -49 10 -6 175 79 218 112 57 43 92 108 92 171 0 46 -4 58 -29 83 -40
39 -79 39 -126 -2 l-36 -32 -15 22 c-47 66 -110 81 -159 39z m105 -4 c14 -8
17 -13 7 -10 -10 3 -37 6 -60 6 -31 0 -38 3 -27 10 21 14 51 12 80 -6z m210
-19 c17 -9 30 -17 30 -19 0 -3 3 -12 6 -21 5 -11 -3 -8 -21 9 -19 18 -39 26
-64 26 -27 0 -32 3 -21 10 21 14 36 12 70 -5z"/>
<path d="M2972 3483 c-31 -12 -42 -59 -35 -158 l6 -97 36 7 c133 23 201 70
201 139 0 43 -14 52 -72 50 -34 -1 -48 2 -48 11 0 16 -47 55 -64 54 -6 0 -17
-3 -24 -6z m35 -9 c-3 -3 -12 -4 -19 -1 -8 3 -5 6 6 6 11 1 17 -2 13 -5z"/>
<path d="M1236 3239 c-28 -22 -66 -87 -66 -113 0 -12 -8 -10 -36 9 -105 71
-217 -13 -184 -136 15 -53 95 -140 158 -169 48 -23 238 -70 282 -70 l25 0 0
107 c0 60 4 138 9 174 10 81 -12 168 -52 199 -34 27 -101 27 -136 -1z m60 -14
c-20 -7 -47 -20 -62 -30 -25 -16 -25 -16 -14 5 14 26 65 49 92 42 16 -4 13 -7
-16 -17z m-251 -89 c-35 -15 -60 -41 -74 -76 l-10 -25 0 28 c-1 38 47 87 86
87 l28 -1 -30 -13z"/>
<path d="M3243 1598 c-36 -39 -46 -98 -32 -189 6 -45 9 -105 6 -135 l-6 -54
42 6 c86 13 192 45 234 70 90 53 131 167 79 219 -36 36 -69 41 -111 16 -20
-12 -38 -21 -40 -21 -2 0 -9 16 -15 35 -23 71 -113 101 -157 53z m108 -8 l24
-20 -40 16 c-49 20 -54 24 -28 24 12 0 31 -9 44 -20z m208 -86 c12 -15 20 -36
20 -48 l-2 -21 -4 21 c-6 30 -43 62 -78 67 -28 4 -27 4 7 6 29 1 41 -5 57 -25z"/>
<path d="M1923 533 c9 -2 23 -2 30 0 6 3 -1 5 -18 5 -16 0 -22 -2 -12 -5z"/>
</g>
</svg>
