<?xml version="1.0" standalone="no"?>
<!DOCTYPE svg PUBLIC "-//W3C//DTD SVG 20010904//EN"
 "http://www.w3.org/TR/2001/REC-SVG-20010904/DTD/svg10.dtd">
<svg version="1.0" xmlns="http://www.w3.org/2000/svg"
 width="398.000000pt" height="398.000000pt" viewBox="0 0 398.000000 398.000000"
 preserveAspectRatio="xMidYMid meet">

<g transform="translate(0.000000,398.000000) scale(0.100000,-0.100000)"
fill="#000000" stroke="none">
<path d="M2230 3614 c-36 -7 -93 -25 -128 -38 -34 -14 -62 -23 -62 -21 0 2 4
15 10 29 7 19 6 26 -3 26 -25 -1 -93 -39 -120 -67 -28 -30 -29 -30 -69 -16
-50 17 -68 11 -68 -20 0 -23 -4 -24 -79 -30 -43 -2 -91 -12 -107 -20 l-29 -15
25 -10 c14 -5 32 -11 40 -14 9 -3 -1 -10 -25 -17 -22 -7 -49 -19 -59 -27 -18
-13 -18 -15 -2 -33 16 -18 14 -21 -45 -77 -73 -70 -113 -135 -73 -120 9 3 14
3 12 -1 -64 -128 -85 -190 -62 -186 8 1 10 -13 6 -44 -4 -40 -3 -45 12 -40 12
5 16 0 16 -21 1 -15 8 -45 17 -67 17 -43 28 -140 38 -335 3 -69 11 -156 16
-195 13 -96 84 -327 121 -398 39 -72 158 -186 235 -223 55 -27 55 -28 34 -45
-11 -9 -45 -20 -73 -24 -73 -10 -116 -29 -162 -73 -39 -38 -135 -177 -196
-287 -18 -33 -35 -62 -36 -64 -2 -2 -32 15 -68 38 -36 22 -69 41 -73 41 -10 0
-93 96 -93 107 0 4 25 71 55 148 31 76 53 146 49 155 -4 11 -11 4 -26 -25 -11
-22 -22 -41 -23 -43 -1 -1 -28 4 -61 13 -32 8 -91 15 -131 15 -69 0 -74 -1
-83 -25 -12 -32 -30 -32 -30 0 0 24 -3 25 -34 20 l-34 -7 6 49 c5 45 4 47 -13
33 -9 -8 -32 -13 -51 -11 -28 2 -41 -4 -78 -41 -24 -24 -56 -68 -71 -98 -23
-48 -26 -64 -23 -127 3 -62 7 -77 28 -98 31 -30 179 -115 201 -115 25 0 119
-144 135 -207 14 -52 63 -147 154 -294 l47 -75 -44 -40 c-35 -33 -43 -47 -43
-76 0 -20 8 -46 19 -60 25 -31 103 -73 164 -89 47 -11 49 -13 43 -43 -3 -17
-10 -80 -16 -140 -11 -124 -3 -146 54 -146 l30 0 -23 17 c-23 16 -24 19 -17
117 3 56 9 118 12 139 7 37 9 39 37 33 16 -3 81 -6 143 -6 l114 0 5 -27 c4
-16 10 -36 16 -45 6 -12 4 -53 -6 -118 -8 -55 -15 -102 -15 -105 0 -3 106 -5
235 -5 l235 0 0 63 0 62 53 23 c30 13 71 37 92 55 26 21 47 31 66 29 15 -2 55
2 89 8 48 9 83 8 151 -1 72 -10 109 -10 196 0 89 11 253 45 324 67 14 4 18
-10 28 -84 6 -49 11 -118 11 -155 0 -60 2 -67 20 -67 18 0 20 7 20 77 0 42 -5
116 -11 164 l-11 87 42 38 c83 76 101 148 75 306 -23 139 -96 427 -152 601
-41 130 -49 146 -92 188 -48 48 -57 52 -201 84 -68 15 -77 20 -102 56 -23 32
-38 42 -87 55 -64 18 -70 28 -87 132 -7 42 -5 45 44 95 29 30 66 83 87 125 27
54 40 72 56 72 52 0 179 103 213 173 53 107 57 243 11 312 -23 33 -24 39 -13
85 9 40 14 47 25 38 22 -18 28 -2 32 84 4 92 -12 204 -40 286 -24 69 -24 65 6
58 38 -10 32 14 -24 87 -34 46 -43 63 -30 60 31 -8 22 14 -23 58 -82 80 -181
136 -318 180 -65 21 -78 28 -52 28 54 1 36 18 -40 36 -56 14 -97 17 -197 12
-115 -5 -123 -4 -88 9 21 7 61 16 88 20 27 4 52 11 55 15 8 13 -51 10 -126 -7z
m-422 -650 c28 -20 48 -24 103 -24 37 0 98 -7 136 -16 69 -16 174 -14 225 5
19 7 31 1 71 -35 53 -47 137 -84 195 -84 35 0 39 -4 77 -68 l40 -67 -2 -132
-2 -133 32 -8 c48 -13 59 -6 93 56 40 74 98 118 137 103 38 -15 49 -53 45
-151 -5 -114 -29 -163 -113 -230 -36 -28 -77 -53 -96 -56 -77 -12 -79 -14 -77
-37 4 -48 -50 -133 -136 -214 -94 -89 -209 -162 -317 -201 -64 -23 -89 -27
-189 -27 -109 0 -118 2 -168 29 -79 44 -174 136 -209 203 -51 94 -111 307
-123 431 -28 306 -30 411 -10 617 0 6 7 18 15 28 13 18 16 16 59 -29 25 -26
49 -44 53 -41 3 4 -3 17 -14 30 -34 37 -39 53 -9 30 30 -24 124 -58 133 -49 4
4 -7 21 -23 39 -57 62 -57 62 -7 58 26 -2 60 -13 81 -27z m785 -1416 c29 -20
-134 -113 -243 -139 -30 -7 -95 -14 -145 -14 -104 0 -155 20 -192 75 -30 44
-29 56 7 64 23 4 30 11 30 29 0 22 7 25 78 39 102 20 213 67 309 131 l78 52
33 -114 c18 -64 38 -119 45 -123z m58 59 c-1 -4 -1 -11 -1 -17 0 -16 -27 -11
-34 6 -10 27 -7 34 15 26 11 -5 20 -11 20 -15z m-1823 -26 l3 -34 -27 22 c-15
11 -34 21 -43 21 -13 1 -12 3 4 16 33 24 60 14 63 -25z m1172 0 c0 -4 -14 -8
-31 -8 -28 0 -30 2 -14 13 17 12 45 9 45 -5z m740 -71 c0 -33 -20 -69 -128
-228 l-90 -133 -39 73 c-41 79 -68 95 -108 63 -19 -15 -19 -16 10 -10 39 7 63
-17 99 -97 14 -32 29 -58 35 -58 5 0 43 51 85 113 41 61 91 135 111 162 20 28
40 66 46 86 l11 36 99 -23 c117 -28 151 -50 183 -119 22 -47 77 -220 125 -395
32 -118 81 -370 81 -420 0 -60 -39 -140 -84 -175 -74 -56 -431 -124 -560 -106
-37 5 -73 15 -81 21 -8 6 -16 7 -19 2 -3 -5 -29 -12 -58 -16 -29 -4 -67 -9
-84 -12 -29 -5 -32 -3 -54 48 -13 29 -25 82 -28 118 l-4 65 76 23 c41 12 81
22 88 22 7 0 26 14 42 30 20 20 77 48 180 89 204 80 217 83 304 83 72 0 75 1
49 15 -46 24 -116 26 -194 6 l-71 -19 -11 56 c-21 109 -41 292 -41 375 0 46
-5 87 -10 90 -22 13 -32 -52 -27 -176 l4 -127 -31 -10 -31 -11 36 5 c34 5 36
4 38 -28 1 -18 3 -51 3 -72 0 -22 3 -34 7 -27 5 8 11 -2 14 -26 12 -69 13 -67
-93 -107 -55 -21 -119 -53 -142 -71 -26 -19 -79 -43 -130 -59 -49 -15 -88 -31
-88 -36 0 -6 -20 5 -44 24 -25 19 -50 36 -56 38 -14 4 21 282 54 429 39 172
78 229 226 329 110 73 194 146 224 195 l29 46 23 -28 c13 -15 23 -39 24 -53z
m-1949 30 c38 -37 30 -54 -16 -34 -19 8 -44 14 -55 14 -26 0 -26 15 2 34 30
22 35 21 69 -14z m1094 -45 c-21 -67 -19 -121 7 -201 27 -87 29 -208 5 -322
-16 -76 -84 -322 -90 -329 -8 -8 -218 26 -232 37 -32 27 -54 67 -59 111 -4 36
0 57 23 104 33 72 52 90 78 77 11 -6 26 -6 38 -1 19 9 19 9 -2 5 -28 -5 -62
29 -48 48 6 7 25 32 43 56 28 38 32 50 32 108 0 36 -2 63 -5 60 -3 -3 -12 -31
-20 -63 -11 -39 -29 -73 -59 -109 -24 -28 -45 -57 -47 -64 -3 -7 -25 9 -56 40
l-52 53 72 122 c129 220 186 281 273 291 l44 5 -20 -46 c-20 -44 -49 -216 -50
-287 0 -30 2 -32 14 -20 8 8 30 40 48 71 19 30 39 54 46 51 8 -2 10 2 6 13
-11 28 -38 11 -62 -39 -13 -27 -25 -47 -27 -44 -9 8 25 210 41 241 16 31 65
90 70 84 2 -2 -3 -25 -11 -52z m77 -2 c12 -47 72 -100 131 -118 98 -29 261
-12 373 39 30 14 54 23 54 21 0 -3 -35 -28 -77 -56 -153 -103 -188 -141 -224
-248 -24 -67 -62 -275 -80 -424 l-12 -109 -36 7 c-29 5 -89 30 -153 63 -4 2
-18 -8 -32 -23 -19 -20 -30 -24 -50 -19 -18 4 -25 11 -22 23 3 9 16 54 30 101
76 254 91 399 57 525 -25 89 -28 167 -11 221 15 44 40 42 52 -3z m-1182 -18
c37 -19 43 -61 8 -49 -49 15 -89 22 -108 17 -24 -6 -26 4 -3 29 20 22 64 23
103 3z m6 -76 c16 -6 20 -14 17 -32 -5 -24 -8 -25 -59 -20 -39 4 -54 2 -54 -7
0 -6 9 -14 19 -17 11 -3 17 -10 15 -17 -7 -18 71 -43 89 -28 10 8 25 6 60 -11
25 -12 46 -24 46 -27 0 -3 -6 -14 -14 -24 -13 -17 -19 -18 -52 -8 -21 7 -69
31 -107 55 -76 47 -96 80 -76 132 9 25 13 26 53 20 23 -4 52 -11 63 -16z m256
-18 c31 -12 67 -30 78 -39 20 -16 20 -19 5 -56 l-16 -38 -79 4 c-62 4 -92 11
-137 34 -51 26 -58 33 -61 63 -6 60 0 64 81 59 39 -3 98 -15 129 -27z m-237
-71 c-3 -5 -12 -10 -20 -10 -8 0 -17 5 -20 10 -4 6 5 10 20 10 15 0 24 -4 20
-10z m421 -112 c3 -10 14 -18 24 -18 29 0 130 -73 205 -149 l69 -71 -22 -45
c-29 -60 -36 -112 -23 -162 9 -34 8 -46 -6 -72 -14 -24 -25 -31 -49 -31 -17 0
-66 -9 -109 -20 -90 -23 -76 -32 -149 90 -76 128 -136 249 -136 276 0 14 -22
58 -50 99 -55 82 -59 94 -32 118 15 14 31 16 78 11 68 -7 113 7 121 37 5 19 8
18 39 -12 19 -18 36 -41 40 -51z m309 -528 c3 -5 -1 -10 -10 -10 -9 0 -13 5
-10 10 3 6 8 10 10 10 2 0 7 -4 10 -10z m206 -45 c207 -31 312 -104 269 -185
-16 -29 -86 -66 -175 -92 -70 -20 -101 -23 -260 -22 -153 0 -192 4 -259 22
-183 51 -235 129 -134 202 104 76 343 108 559 75z m242 -18 c21 -10 66 -25
100 -33 117 -30 162 -68 172 -145 4 -30 16 -78 27 -107 l20 -54 -28 -29 c-42
-44 -118 -77 -221 -94 -66 -11 -105 -13 -140 -6 -44 8 -45 9 -13 10 53 2 173
35 178 49 5 16 -12 15 -81 -3 -61 -16 -168 -19 -202 -6 -14 6 -3 9 40 13 71 5
185 45 185 64 0 18 4 18 -74 -11 -100 -38 -236 -34 -236 7 0 4 24 8 53 8 45 0
210 40 225 54 2 3 1 9 -2 14 -3 6 -37 0 -82 -14 -73 -23 -206 -44 -193 -30 3
3 32 11 65 16 149 27 254 87 274 158 9 32 6 37 -34 77 -25 24 -54 46 -65 50
-12 3 -21 13 -21 22 0 8 3 13 8 11 4 -2 24 -12 45 -21z"/>
<path d="M1670 2701 c-46 -15 -71 -35 -91 -73 -27 -53 -24 -55 22 -13 46 41
29 40 206 19 29 -4 59 -4 68 0 23 9 3 41 -35 54 -43 16 -141 23 -170 13z"/>
<path d="M2135 2685 c-22 -8 -41 -15 -42 -15 -2 0 -3 -9 -3 -19 0 -21 19 -31
47 -26 10 2 59 9 109 16 100 13 115 9 167 -39 30 -28 35 -17 12 27 -23 45 -88
71 -176 71 -41 -1 -92 -7 -114 -15z"/>
<path d="M1713 2563 c9 -2 25 -2 35 0 9 3 1 5 -18 5 -19 0 -27 -2 -17 -5z"/>
<path d="M1715 2550 c-66 -7 -118 -30 -152 -66 l-22 -24 37 -39 c36 -38 38
-39 87 -30 28 4 77 8 110 9 43 0 67 6 85 20 l25 19 -20 37 c-11 21 -35 45 -52
54 -18 10 -30 20 -26 24 3 3 2 5 -3 5 -5 -1 -36 -5 -69 -9z m-15 -55 c-8 -9
-10 -29 -7 -51 l6 -35 -41 3 c-26 2 -45 9 -52 21 -9 15 -5 23 22 48 35 31 96
43 72 14z m50 -10 c0 -8 -7 -15 -15 -15 -8 0 -15 7 -15 15 0 8 7 15 15 15 8 0
15 -7 15 -15z m90 -12 c20 -26 20 -28 4 -40 -10 -7 -26 -13 -36 -13 -16 0 -17
3 -8 20 8 14 8 26 0 40 -17 31 14 26 40 -7z"/>
<path d="M2218 2551 c10 -6 4 -10 -18 -15 -38 -7 -103 -69 -98 -93 7 -35 57
-51 181 -56 l119 -4 34 34 c37 37 43 53 18 53 -8 0 -12 4 -9 10 9 15 -87 58
-156 70 -77 12 -88 12 -71 1z m11 -62 c-6 -12 -8 -34 -5 -50 6 -33 -8 -37 -63
-18 -31 11 -37 23 -23 46 10 16 63 43 85 43 15 0 16 -3 6 -21z m61 -4 c0 -8
-9 -15 -20 -15 -11 0 -20 7 -20 15 0 8 9 15 20 15 11 0 20 -7 20 -15z m94 -10
c32 -30 33 -40 2 -60 -28 -19 -63 -10 -45 11 6 8 9 27 5 44 -7 36 3 38 38 5z"/>
<path d="M2870 2513 c-57 -39 -97 -107 -104 -179 -14 -129 -13 -139 11 -142
34 -5 67 23 109 91 33 52 39 72 42 130 3 44 0 72 -8 82 -9 10 -9 15 -1 15 6 0
11 5 11 10 0 16 -33 12 -60 -7z"/>
<path d="M1906 2442 c-9 -74 -45 -211 -63 -237 -27 -40 -17 -62 45 -90 31 -14
66 -24 77 -21 11 3 44 11 73 18 51 12 52 13 52 47 0 20 -5 43 -10 51 -7 11
-10 5 -10 -25 l0 -40 -77 -2 c-121 -4 -131 14 -88 163 25 86 33 178 16 188 -5
3 -12 -20 -15 -52z"/>
<path d="M1750 2025 c-11 -14 -10 -17 7 -21 12 -3 29 -23 39 -46 56 -123 111
-167 210 -168 110 0 181 45 234 150 19 38 37 59 52 63 21 6 21 8 7 22 -13 13
-26 14 -81 6 -65 -9 -362 -6 -424 4 -21 4 -35 0 -44 -10z m471 -49 c-31 -33
-132 -49 -262 -44 -93 3 -101 6 -127 32 l-27 27 50 -8 c63 -10 246 -7 305 6
25 5 54 9 64 10 18 1 18 -1 -3 -23z m-163 -148 c-5 -15 -98 -24 -98 -9 0 9 24
14 83 19 11 1 17 -3 15 -10z m-108 -8 c0 -5 -7 -10 -15 -10 -8 0 -15 5 -15 10
0 6 7 10 15 10 8 0 15 -4 15 -10z"/>
<path d="M2348 955 c5 -92 12 -113 12 -38 0 48 2 51 23 47 17 -3 16 -2 -5 7
-18 7 -28 19 -31 37 -2 15 -2 -9 1 -53z"/>
<path d="M2418 953 c7 -3 16 -2 19 1 4 3 -2 6 -13 5 -11 0 -14 -3 -6 -6z"/>
<path d="M2458 943 c7 -3 16 -2 19 1 4 3 -2 6 -13 5 -11 0 -14 -3 -6 -6z"/>
<path d="M2530 940 l-45 -7 40 -1 c22 0 51 4 65 8 32 10 5 10 -60 0z"/>
<path d="M2218 933 c7 -3 16 -2 19 1 4 3 -2 6 -13 5 -11 0 -14 -3 -6 -6z"/>
<path d="M2675 768 l-20 -21 23 12 c12 6 22 16 22 21 0 13 -2 12 -25 -12z"/>
<path d="M2630 740 c-9 -6 -10 -10 -3 -10 6 0 15 5 18 10 8 12 4 12 -15 0z"/>
<path d="M2478 713 c7 -3 16 -2 19 1 4 3 -2 6 -13 5 -11 0 -14 -3 -6 -6z"/>
<path d="M2540 710 c-35 -7 -35 -7 -5 -9 17 0 37 4 45 9 17 11 11 11 -40 0z"/>
<path d="M1762 1026 c-7 -15 -24 -27 -49 -34 l-38 -10 40 2 c32 2 43 8 53 30
8 15 12 29 10 32 -3 2 -10 -7 -16 -20z"/>
<path d="M1534 773 c11 -13 26 -23 35 -22 14 0 14 1 1 6 -8 3 -24 13 -35 22
-20 16 -20 16 -1 -6z"/>
<path d="M1030 1350 c0 -11 12 -26 30 -35 36 -19 40 -19 40 1 0 14 2 15 18 3
16 -13 16 -13 2 5 -13 16 -68 46 -85 46 -3 0 -5 -9 -5 -20z"/>
<path d="M872 1328 c6 -18 124 -57 171 -58 56 0 43 20 -29 47 -67 25 -148 31
-142 11z"/>
</g>
</svg>
