<?xml version="1.0" standalone="no"?>
<!DOCTYPE svg PUBLIC "-//W3C//DTD SVG 20010904//EN"
 "http://www.w3.org/TR/2001/REC-SVG-20010904/DTD/svg10.dtd">
<svg version="1.0" xmlns="http://www.w3.org/2000/svg"
 width="398.000000pt" height="398.000000pt" viewBox="0 0 398.000000 398.000000"
 preserveAspectRatio="xMidYMid meet">

<g transform="translate(0.000000,398.000000) scale(0.100000,-0.100000)"
fill="#000000" stroke="none">
<path d="M2064 3675 c5 -14 2 -16 -16 -11 -13 4 -54 9 -93 11 -52 3 -59 2 -25
-3 l45 -7 -66 -7 c-69 -7 -153 -35 -114 -38 14 -1 7 -7 -20 -18 -68 -28 -131
-69 -164 -107 -31 -35 -42 -63 -20 -49 7 4 0 -11 -15 -32 -30 -44 -32 -54 -12
-54 11 0 12 -8 5 -37 -10 -44 -12 -148 -3 -180 4 -13 12 -23 19 -23 22 0 26
-34 10 -73 -19 -45 -19 -44 4 -50 13 -3 18 -1 14 8 -7 19 15 55 34 55 9 0 36
-21 59 -46 34 -36 47 -44 64 -39 20 6 21 11 14 63 -15 110 4 166 61 176 17 4
51 23 75 43 38 33 47 36 94 34 28 -1 64 3 80 9 16 6 46 12 67 14 21 2 59 14
84 26 25 12 48 20 51 18 2 -3 -5 -17 -17 -31 -23 -31 -12 -34 34 -10 30 15 31
15 18 0 -7 -10 -9 -17 -3 -17 6 0 19 12 30 27 18 25 20 26 30 7 18 -34 32
-160 32 -286 0 -127 -23 -267 -54 -325 -20 -39 -109 -121 -138 -127 -12 -3
-35 -7 -49 -10 -108 -23 -361 115 -385 208 -5 20 -12 26 -34 26 -15 0 -46 13
-68 30 -52 37 -93 110 -62 110 6 0 10 -5 10 -10 0 -16 43 -77 63 -90 13 -8 22
-8 31 -1 26 22 -22 149 -65 171 -23 13 -42 13 -34 1 3 -5 1 -12 -4 -15 -5 -3
-7 -16 -4 -27 5 -19 3 -21 -19 -17 -26 5 -26 5 -13 -33 8 -21 19 -47 25 -58
13 -25 88 -78 122 -86 14 -4 32 -21 43 -42 15 -27 76 -86 113 -109 2 -2 1 -16
-3 -33 -6 -27 -11 -31 -39 -31 -20 0 -40 -8 -51 -20 -28 -31 -68 -24 -146 26
-39 25 -111 67 -160 93 -87 46 -90 50 -139 131 -27 46 -67 106 -88 134 -87
116 -91 122 -81 137 5 8 14 32 20 54 6 22 18 48 26 57 18 20 11 48 -12 48 -9
0 -30 -15 -46 -32 -28 -31 -31 -32 -43 -15 -7 9 -19 51 -25 93 -9 50 -18 77
-28 81 -22 9 -33 -16 -27 -67 l5 -45 -27 50 c-28 53 -42 67 -57 58 -9 -5 -6
-41 7 -78 6 -17 5 -17 -10 3 -20 27 -54 30 -54 4 0 -9 11 -34 25 -54 31 -46
32 -55 0 -34 -62 41 -75 3 -14 -46 52 -42 134 -157 121 -170 -13 -13 72 -194
138 -296 27 -43 66 -93 87 -113 41 -40 229 -168 285 -195 l35 -16 7 -132 c3
-72 2 -165 -4 -206 -16 -129 -70 -376 -70 -323 0 21 -50 63 -75 63 -14 0 -43
11 -63 25 -20 14 -42 25 -48 25 -6 0 -25 20 -43 45 -39 55 -103 108 -162 134
-47 22 -114 28 -124 11 -3 -6 17 -51 46 -100 28 -50 50 -92 48 -94 -2 -2 -19
-11 -38 -21 l-34 -17 -36 42 c-71 86 -176 170 -212 170 -34 0 -39 -31 -23
-151 19 -146 40 -185 142 -254 1 -1 0 -20 -4 -42 -9 -60 -33 -69 -94 -38 -60
30 -125 41 -163 26 -34 -13 -34 -28 3 -77 l29 -39 -22 -17 -22 -17 24 -25 c26
-28 99 -56 144 -56 16 0 47 5 68 12 46 13 57 7 40 -26 -10 -18 -25 -25 -63
-30 -55 -8 -98 -41 -98 -76 0 -11 -9 -39 -21 -61 -11 -23 -23 -68 -27 -101
l-7 -59 -52 -18 c-144 -49 -219 -154 -242 -337 -11 -88 -5 -106 37 -123 27
-11 30 -18 34 -69 23 -270 271 -416 536 -316 118 44 193 112 234 212 16 39 26
51 37 46 72 -29 413 -136 476 -150 118 -25 272 -23 362 4 121 37 264 148 303
234 9 19 32 31 108 56 101 33 112 32 112 -14 0 -11 7 -44 15 -72 19 -63 49
-88 89 -72 44 16 50 13 80 -50 39 -83 93 -140 168 -181 61 -33 66 -34 173 -33
127 0 187 18 269 81 179 136 217 411 94 676 l-41 88 37 38 c47 48 44 63 -30
130 -77 71 -148 103 -240 109 -41 2 -74 6 -74 8 0 2 13 40 30 86 17 45 30 92
30 105 0 13 -17 47 -38 76 -57 78 -127 194 -162 268 l-30 65 40 42 c57 60 77
134 62 225 -7 37 -12 71 -12 76 0 4 20 16 44 25 60 23 81 47 69 82 -15 44 -36
51 -92 31 -57 -20 -83 -21 -99 -5 -6 6 -31 14 -54 17 -35 5 -44 10 -46 28 -3
17 5 26 33 37 74 31 99 163 40 213 -30 27 -55 29 -95 8 -38 -20 -66 -91 -55
-142 5 -21 9 -66 9 -101 l1 -63 -68 -23 c-38 -13 -75 -30 -84 -38 -31 -32
-114 18 -164 98 -11 18 -51 50 -89 73 -39 23 -70 48 -70 54 0 22 -62 75 -114
98 l-49 21 39 18 c42 18 113 89 138 137 34 67 57 225 54 380 -2 117 1 160 14
207 l18 60 -26 43 c-14 24 -22 48 -19 54 7 10 -61 79 -78 79 -4 0 -5 9 -2 20
5 17 1 21 -26 27 -31 6 -31 6 -9 18 20 10 20 13 5 18 -9 4 -35 7 -57 7 -26 0
-45 6 -53 16 -9 13 -16 14 -33 5 -18 -10 -27 -8 -49 8 -16 11 -39 22 -52 26
-20 6 -23 4 -17 -10z m-973 -395 c5 -34 16 -75 24 -91 13 -23 13 -29 1 -36
-18 -11 -39 -53 -30 -61 4 -4 9 -1 12 7 2 7 13 21 24 30 11 9 37 33 57 54 47
46 57 47 31 5 -11 -18 -20 -41 -20 -51 0 -32 -30 -72 -72 -95 -47 -25 -55 -22
-89 37 -12 20 -40 53 -63 74 l-41 38 35 -20 c53 -32 66 -27 41 14 -12 19 -30
51 -42 70 -12 19 -19 35 -17 35 4 0 52 -63 79 -103 4 -5 12 -7 17 -3 7 4 1 30
-19 72 -40 90 -36 104 7 22 45 -89 58 -88 52 2 -6 85 -1 85 13 0z m129 -313
c0 -3 12 -18 28 -34 15 -17 55 -78 90 -137 35 -58 70 -106 78 -106 19 0 156
-78 259 -147 60 -40 81 -49 83 -38 2 8 7 15 10 15 4 0 31 -50 60 -110 30 -61
57 -110 60 -110 4 0 18 16 31 36 19 27 30 34 49 32 34 -4 61 -43 68 -100 l7
-48 -37 0 c-30 0 -38 -4 -47 -27 -18 -49 -3 -75 59 -99 1 -1 -19 -119 -45
-263 l-47 -261 -36 6 c-163 26 -272 57 -312 88 -16 12 -15 24 18 192 34 169
35 188 32 342 -2 119 0 161 9 158 6 -3 14 -2 17 1 3 4 -12 14 -33 24 -47 21
-179 104 -273 172 -81 58 -151 157 -227 321 -28 59 -51 109 -51 111 0 2 16 13
36 26 29 18 40 20 55 11 15 -10 17 -9 12 6 -3 9 6 0 21 -20 14 -20 26 -39 26
-41z m810 -386 l75 -26 -23 -23 c-19 -18 -23 -32 -20 -63 3 -37 2 -39 -25 -39
-32 0 -82 20 -116 48 -24 19 -24 21 -11 81 11 51 16 61 29 55 9 -4 50 -19 91
-33z m954 -17 c38 -38 31 -121 -14 -166 -31 -31 -55 -36 -64 -13 -3 8 -12 15
-20 15 -17 0 -26 22 -26 66 0 86 76 146 124 98z m-1104 -14 c0 -5 -7 -10 -15
-10 -8 0 -15 5 -15 10 0 6 7 10 15 10 8 0 15 -4 15 -10z m37 -117 c32 -29 51
-50 42 -47 -10 3 -24 -7 -40 -30 -13 -20 -27 -36 -30 -36 -7 0 -89 171 -89
186 0 5 5 15 12 22 9 9 16 6 29 -15 10 -14 44 -50 76 -80z m346 92 c58 -24 97
-63 97 -96 0 -36 -27 -49 -107 -49 -139 0 -218 72 -155 143 19 22 114 23 165
2z m-219 -115 c28 0 98 -26 125 -46 2 -2 -4 -21 -13 -44 -9 -22 -16 -57 -16
-76 0 -35 -1 -36 -31 -30 -17 3 -38 6 -45 6 -10 0 -14 13 -14 44 0 48 -30 101
-84 148 l-31 28 37 -15 c21 -8 53 -15 72 -15z m439 -63 c40 -27 140 -177 118
-177 -5 0 -34 35 -64 78 -38 53 -69 85 -98 101 -58 32 -70 42 -63 52 5 9 44
-11 107 -54z m-19 -33 c17 -12 96 -122 96 -135 0 -3 -26 -2 -57 2 -32 4 -83 8
-114 8 -77 1 -109 26 -109 84 -1 36 -2 39 -12 23 -6 -11 -11 -36 -11 -58 0
-42 -2 -43 -70 -31 l-38 6 6 41 c15 96 43 118 65 50 16 -49 33 -43 28 11 -3
44 -2 45 27 46 16 1 41 4 55 9 24 7 69 -12 134 -56z m436 5 c0 -27 -4 -49 -10
-49 -5 0 -10 25 -10 56 0 34 4 53 10 49 6 -3 10 -28 10 -56z m-673 19 c-3 -8
-6 -5 -6 6 -1 11 2 17 5 13 3 -3 4 -12 1 -19z m723 -69 c0 -4 -7 -6 -15 -3 -8
4 -15 10 -15 15 0 4 7 6 15 3 8 -4 15 -10 15 -15z m44 5 c23 -9 20 -23 -4 -17
-11 3 -20 9 -20 14 0 11 3 11 24 3z m12 -69 c66 -43 103 -146 83 -233 -22 -98
-79 -152 -161 -152 -89 0 -158 90 -158 205 0 68 23 127 63 164 45 41 124 49
173 16z m-236 -14 c0 -18 -52 -71 -70 -71 -30 0 -32 16 -4 49 24 29 74 44 74
22z m-121 -10 c8 -5 9 -11 3 -15 -5 -3 -15 1 -22 9 -14 16 -3 20 19 6z m-308
-57 l-9 -39 -1 36 c-1 20 2 39 6 42 12 13 13 0 4 -39z m-244 -34 l26 0 -7
-107 c-4 -61 -12 -110 -18 -114 -13 -8 -98 -22 -103 -17 -2 2 35 206 44 247 1
2 8 0 17 -3 9 -3 27 -6 41 -6z m171 -24 c2 -3 -3 -17 -12 -33 -32 -60 -36 -79
-51 -261 -9 -103 -20 -191 -24 -195 -4 -4 -25 -10 -45 -14 l-38 -6 6 74 c4 41
13 154 21 252 8 98 15 184 15 191 0 10 14 11 62 4 34 -4 63 -10 66 -12z m97
-17 c6 -4 66 -15 133 -25 l123 -17 21 -41 c11 -23 27 -49 35 -58 14 -15 11
-18 -24 -27 -56 -15 -116 -62 -139 -107 -12 -26 -20 -68 -22 -121 -2 -46 -7
-83 -11 -83 -3 1 -62 20 -131 44 l-125 44 3 63 c6 131 24 264 37 279 8 8 18
27 24 41 8 22 14 26 38 21 15 -2 33 -8 38 -13z m-1229 -71 c48 -22 114 -76
143 -116 l19 -27 -53 3 c-51 4 -54 6 -60 34 -7 30 -88 118 -109 118 -6 0 10
-19 36 -42 50 -47 78 -106 56 -120 -24 -15 -35 -8 -61 40 -15 26 -38 66 -52
89 l-25 42 32 -1 c18 0 52 -9 74 -20z m-250 -68 c31 -25 73 -65 92 -90 20 -25
39 -49 43 -54 4 -4 38 4 76 20 125 51 291 33 301 -33 5 -32 -53 -36 -91 -6
-35 28 -102 38 -157 23 -39 -10 -56 -24 -118 -92 -45 -48 -101 -91 -110 -83
-5 6 -26 23 -46 38 -44 34 -68 69 -72 105 -2 15 -10 67 -18 116 -8 49 -13 92
-11 96 11 18 61 0 111 -40z m1844 -60 c0 -5 -5 -10 -11 -10 -5 0 -8 -4 -5 -9
3 -4 -7 -6 -22 -4 -20 3 -23 2 -13 -5 11 -8 8 -13 -15 -25 -86 -45 -108 -127
-84 -312 5 -38 18 -140 29 -226 24 -180 27 -160 -65 -389 l-58 -145 -13 52
c-13 52 -13 53 37 190 27 75 50 151 50 168 0 16 -11 129 -25 250 -27 243 -30
293 -15 346 11 41 62 96 105 115 36 16 105 18 105 4z m-705 -19 c3 -5 1 -12
-5 -16 -5 -3 -10 1 -10 9 0 18 6 21 15 7z m895 -260 c62 -114 102 -177 117
-184 15 -6 49 -7 103 -1 44 6 80 7 80 3 0 -9 -129 -39 -168 -39 -16 0 -36 8
-44 18 -17 18 -228 436 -228 449 0 10 24 -31 140 -246z m-1613 157 c39 -39 36
-102 -6 -140 -17 -15 -39 -28 -49 -28 -10 1 -4 7 15 15 38 16 53 42 53 89 0
44 -26 73 -72 80 -76 13 -80 15 -25 12 47 -2 63 -8 84 -28z m174 22 c20 -11
49 -60 49 -82 0 -7 -9 6 -20 29 -14 32 -26 44 -52 52 -18 5 -25 10 -15 10 10
1 27 -4 38 -9z m1527 -15 c-3 -3 -9 2 -12 12 -6 14 -5 15 5 6 7 -7 10 -15 7
-18z m-1520 -26 c19 -31 4 -38 -18 -9 -11 14 -20 28 -20 32 0 13 25 -2 38 -23z
m-217 1 c10 -6 19 -19 19 -28 0 -26 -80 -18 -87 9 -3 10 -15 20 -27 22 -11 2
1 5 27 6 27 0 57 -4 68 -9z m156 -69 c10 -16 9 -18 -8 -14 -10 3 -19 1 -19 -5
0 -5 26 -13 58 -17 l57 -8 -35 -12 c-45 -15 -51 -46 -15 -79 40 -37 81 -43
118 -16 l30 23 -7 -29 c-4 -16 -17 -39 -29 -52 -26 -28 -64 -26 -59 3 4 19 3
19 -20 -2 -84 -78 -194 -67 -288 31 -42 44 -72 57 -85 37 -3 -5 7 -11 22 -13
20 -2 34 -16 57 -55 37 -62 76 -95 124 -102 49 -8 46 -25 -6 -29 -45 -3 -49
-22 -4 -22 24 -1 25 -2 8 -12 -36 -20 -166 -5 -237 29 -78 37 -192 120 -184
134 4 5 1 8 -6 7 -7 -2 -14 5 -17 14 -2 12 14 26 59 49 101 51 129 58 164 43
47 -20 123 -17 173 7 34 17 49 32 64 65 16 36 24 44 46 44 16 0 32 -8 39 -19z
m133 -11 c0 -21 -5 -30 -16 -30 -9 0 -13 5 -10 13 3 6 9 20 12 30 9 25 14 21
14 -13z m1500 10 c6 -11 8 -20 6 -20 -3 0 -10 9 -16 20 -6 11 -8 20 -6 20 3 0
10 -9 16 -20z m30 -50 c6 -11 8 -20 6 -20 -3 0 -10 9 -16 20 -6 11 -8 20 -6
20 3 0 10 -9 16 -20z m-2294 -96 c30 -14 54 -29 54 -34 0 -5 12 -23 26 -40 40
-47 21 -48 -39 -1 -71 54 -85 53 -17 -1 51 -42 52 -43 25 -46 -73 -9 -225 97
-200 138 12 19 95 10 151 -16z m2385 -41 c13 -16 12 -17 -3 -4 -17 13 -22 21
-14 21 2 0 10 -8 17 -17z m-2438 -73 c19 -11 52 -21 73 -23 39 -2 57 -14 48
-29 -10 -15 -109 -8 -150 11 -62 28 -64 42 -7 60 1 1 17 -8 36 -19z m584 -26
c-7 -7 -64 22 -72 37 -4 6 12 1 35 -11 23 -12 40 -24 37 -26z m153 31 c-10
-13 -8 -19 13 -36 36 -27 51 -83 32 -119 -16 -30 -39 -43 -64 -35 -9 3 -31 35
-49 71 -24 51 -29 70 -21 81 6 7 17 13 23 13 16 0 52 -38 66 -70 15 -34 5 6
-11 47 -10 26 -10 34 0 47 8 9 16 16 18 16 3 0 0 -7 -7 -15z m-497 -49 c124
-83 258 -114 353 -82 26 9 50 16 53 16 12 0 -17 -21 -54 -39 -22 -11 -33 -20
-25 -21 8 0 33 9 54 21 21 11 39 19 40 17 0 -2 9 -16 18 -33 17 -30 17 -30
-14 -61 l-30 -32 -55 29 c-30 16 -70 29 -89 29 -46 0 -137 42 -209 96 l-60 46
52 -50 c29 -26 75 -59 102 -72 l49 -22 -33 -29 c-18 -16 -37 -29 -43 -29 -12
0 -99 99 -136 156 -23 35 -51 104 -42 104 2 0 33 -20 69 -44z m1836 7 c21 -75
10 -89 -80 -100 -60 -7 -69 1 -69 64 0 41 0 41 48 52 54 11 61 7 68 -41 5 -31
3 -36 -17 -41 -13 -4 -39 -7 -57 -7 -22 0 -31 -4 -26 -11 6 -10 76 -5 110 8
17 6 19 66 4 94 -7 12 -7 19 -1 19 6 0 15 -17 20 -37z m-1918 4 c-1 -12 -15
-9 -19 4 -3 6 1 10 8 8 6 -3 11 -8 11 -12z m995 -6 c48 -22 156 -120 202 -185
33 -45 33 -46 10 -46 -24 1 -58 21 -58 36 -1 5 -12 23 -26 39 l-26 30 17 -35
c9 -19 20 -43 25 -52 9 -16 5 -18 -42 -18 -121 0 -258 -52 -377 -143 -41 -32
-83 -57 -93 -57 -25 0 -88 27 -110 47 -10 9 -18 29 -18 45 0 24 21 49 118 142
193 187 232 215 302 215 19 0 53 -8 76 -18z m468 -73 c31 -141 36 -157 56
-171 29 -20 34 -60 15 -120 l-17 -54 -70 69 -70 69 -3 89 c-3 76 -1 92 16 114
10 13 19 31 19 39 0 25 11 47 24 47 7 0 20 -35 30 -82z m-1367 -75 c25 -29 41
-53 36 -53 -14 0 -28 14 -43 44 -8 16 -29 38 -47 50 -25 17 -30 25 -21 34 9 9
14 8 22 -5 5 -10 29 -42 53 -70z m-69 27 c18 -11 38 -32 44 -46 11 -23 10 -28
-7 -40 -22 -17 -35 -17 -70 -4 -22 8 -26 15 -23 35 4 21 3 23 -9 13 -8 -6 -12
-17 -9 -25 4 -9 -3 -13 -20 -13 -30 0 -40 21 -23 52 l12 23 -22 -19 c-12 -11
-19 -26 -16 -33 2 -8 0 -11 -5 -8 -6 3 -10 17 -10 30 0 50 97 72 158 35z m597
-50 c-22 -22 -45 -38 -52 -36 -7 3 -12 0 -10 -7 1 -7 -4 -11 -11 -9 -8 1 -11
-2 -8 -6 3 -5 -3 -17 -13 -26 -18 -17 -20 -17 -29 1 -8 15 -3 26 24 56 19 20
44 37 55 37 11 0 30 11 42 24 14 16 26 21 32 15 6 -6 -5 -24 -30 -49z m1007 5
c4 -5 8 -20 8 -31 0 -17 -8 -23 -34 -28 -38 -7 -86 1 -86 15 0 5 12 10 28 10
21 1 23 3 6 6 -12 2 -29 12 -37 21 -14 16 -11 17 46 17 34 0 65 -4 69 -10z
m741 -12 c-18 -2 -48 -2 -65 0 -18 2 -4 4 32 4 36 0 50 -2 33 -4z m-1967 -19
c57 -27 111 -104 73 -104 -6 0 -7 5 -3 12 5 8 2 9 -12 3 -69 -28 -73 -29 -99
-17 -22 10 -26 18 -22 37 6 33 -11 32 -19 0 -4 -15 -13 -25 -24 -25 -23 0 -44
26 -36 45 3 8 1 15 -4 15 -9 0 -14 -15 -11 -33 1 -5 -4 -7 -11 -5 -24 8 -20
45 8 67 33 26 110 28 160 5z m1831 10 c-3 -3 -12 -4 -19 -1 -8 3 -5 6 6 6 11
1 17 -2 13 -5z m213 -4 c18 -12 2 -12 -25 0 -13 6 -15 9 -5 9 8 0 22 -4 30 -9z
m-1110 -25 c-8 -10 -9 -15 -1 -15 6 0 11 -7 11 -15 0 -18 0 -18 -41 -1 -19 7
-43 17 -54 21 -16 6 -8 10 35 19 63 13 68 12 50 -9z m857 19 c-3 -3 -12 -4
-19 -1 -8 3 -5 6 6 6 11 1 17 -2 13 -5z m-52 -14 c-17 -7 -17 -9 -3 -9 33 -2
113 -33 163 -64 42 -26 63 -32 135 -37 l85 -5 -74 -18 c-40 -9 -82 -17 -92
-17 -10 0 -39 18 -64 40 -54 46 -105 74 -155 85 -50 10 -59 18 -30 26 36 10
59 9 35 -1z m-1978 -26 c-3 -3 -12 -4 -19 -1 -8 3 -5 6 6 6 11 1 17 -2 13 -5z
m2413 -39 c19 -19 32 -35 29 -35 -3 0 -20 16 -39 35 -19 19 -32 35 -29 35 3 0
20 -16 39 -35z m-1387 18 c-29 -2 -77 -2 -105 0 -29 2 -6 3 52 3 58 0 81 -1
53 -3z m416 -50 c-31 -84 -39 -86 -39 -10 l0 67 30 0 30 0 -21 -57z m-335 35
c-5 -7 -2 -9 9 -5 9 3 18 0 21 -9 3 -8 11 -14 18 -14 9 0 9 3 -2 11 -10 7 -11
9 -2 7 8 -2 14 -8 14 -13 0 -6 15 -27 34 -47 42 -47 87 -135 79 -155 -4 -12
-19 -2 -64 40 -35 33 -84 67 -123 85 -97 44 -111 87 -32 102 56 11 56 11 48
-2z m127 -65 c13 -16 12 -17 -3 -4 -10 7 -18 15 -18 17 0 8 8 3 21 -13z m159
-103 c0 -19 -11 -26 -23 -14 -8 8 3 34 14 34 5 0 9 -9 9 -20z m-1352 -56 c23
-20 46 -43 51 -52 8 -15 2 -17 -45 -18 -35 0 -54 3 -54 11 0 9 -11 9 -47 0
-27 -7 -51 -11 -55 -8 -17 9 -6 22 35 39 31 13 37 18 23 22 -16 3 -14 6 10 22
16 10 32 19 35 19 3 1 24 -15 47 -35z m2053 -145 c63 -88 88 -233 55 -312 -17
-42 -70 -87 -102 -87 -72 0 -148 78 -179 184 -21 70 -19 87 6 57 11 -14 17
-31 14 -42 -7 -20 12 -62 23 -55 4 2 16 -2 26 -10 16 -11 17 -16 6 -29 -11
-13 -9 -20 10 -40 13 -14 27 -25 32 -25 4 0 8 22 8 49 0 56 24 79 35 33 22
-95 25 -100 44 -95 11 3 28 14 37 24 17 19 16 21 -24 62 -37 38 -53 67 -37 67
3 0 23 -9 45 -20 22 -11 42 -20 45 -20 3 0 5 21 5 46 l0 46 -50 -7 c-42 -6
-50 -4 -50 9 0 9 18 25 40 36 22 11 40 24 40 28 0 12 -39 72 -48 72 -4 0 -16
-22 -27 -50 -11 -27 -23 -50 -28 -50 -11 0 -7 152 5 167 14 17 40 2 69 -38z
m-118 -59 l6 -35 -14 30 c-7 17 -11 34 -8 38 7 12 9 7 16 -33z m21 -150 c1
-31 -2 -35 -25 -38 -30 -3 -36 4 -68 75 l-24 51 29 38 29 37 29 -64 c16 -35
29 -80 30 -99z m-2326 125 c89 -28 199 -100 254 -165 l34 -42 116 31 c151 41
150 41 146 -11 l-3 -42 -128 -38 -129 -39 -296 96 c-164 53 -302 103 -308 110
-19 25 -4 74 27 90 77 40 180 44 287 10z m787 -95 c178 -52 291 -70 434 -70
197 0 354 36 459 105 57 39 63 35 30 -16 -49 -74 -209 -126 -418 -136 -187 -9
-371 20 -615 97 -100 32 -125 48 -125 81 0 17 5 16 63 -5 34 -13 112 -38 172
-56z m1563 -1 c-3 -8 -7 -3 -11 10 -4 17 -3 21 5 13 5 -5 8 -16 6 -23z m-2268
-223 c0 -27 -28 -49 -60 -49 -27 0 -41 8 -71 41 -20 23 -39 50 -42 61 -4 17 2
16 84 -11 49 -16 89 -35 89 -42z"/>
<path d="M2883 2181 c-31 -20 -63 -67 -63 -93 0 -7 10 6 21 30 26 52 68 76
116 69 41 -7 59 -21 85 -62 10 -16 18 -24 18 -17 0 7 -15 28 -33 48 -41 45
-96 55 -144 25z"/>
<path d="M3061 2074 c0 -11 3 -14 6 -6 3 7 2 16 -1 19 -3 4 -6 -2 -5 -13z"/>
<path d="M2813 2025 c0 -22 2 -30 4 -17 2 12 2 30 0 40 -3 9 -5 -1 -4 -23z"/>
<path d="M3072 2020 c0 -19 2 -27 5 -17 2 9 2 25 0 35 -3 9 -5 1 -5 -18z"/>
<path d="M2821 1964 c0 -11 3 -14 6 -6 3 7 2 16 -1 19 -3 4 -6 -2 -5 -13z"/>
<path d="M3061 1964 c0 -11 3 -14 6 -6 3 7 2 16 -1 19 -3 4 -6 -2 -5 -13z"/>
<path d="M2830 1932 c0 -21 65 -82 87 -82 11 1 6 6 -14 15 -18 8 -42 29 -53
47 -11 18 -20 27 -20 20z"/>
<path d="M3042 1915 c-6 -14 -26 -34 -44 -45 -18 -11 -28 -20 -22 -20 26 0 95
73 81 86 -2 2 -9 -7 -15 -21z"/>
<path d="M836 1918 c48 -52 53 -61 68 -125 11 -51 12 -61 0 -56 -23 9 -35 -6
-23 -29 6 -11 15 -34 19 -49 8 -27 7 -28 -11 -18 -11 6 -34 31 -50 57 -16 25
-29 41 -29 35 0 -17 55 -88 84 -106 l26 -17 0 30 c0 17 -7 42 -16 55 -15 23
-15 25 0 25 9 0 21 -11 26 -24 18 -50 25 -33 9 22 -10 31 -23 78 -29 104 -12
47 -71 128 -93 128 -6 0 3 -15 19 -32z"/>
<path d="M1663 1265 c-9 -10 -7 -17 10 -33 27 -24 101 -47 94 -29 -3 7 -10 11
-16 10 -6 -2 -10 2 -8 9 1 6 -8 16 -19 23 -12 6 -28 16 -35 22 -10 8 -17 8
-26 -2z"/>
<path d="M2267 3210 c-35 -11 -57 -28 -57 -46 0 -12 6 -12 36 1 42 17 97 20
125 5 27 -15 25 6 -3 24 -32 20 -68 26 -101 16z"/>
<path d="M1943 3175 c-27 -12 -53 -41 -53 -60 0 -3 13 4 29 16 27 19 38 21
101 16 53 -4 70 -3 67 6 -11 34 -89 46 -144 22z"/>
<path d="M2246 3089 c-29 -23 -34 -54 -10 -63 9 -3 42 -6 74 -6 59 0 90 15 90
45 0 44 -107 61 -154 24z m109 -13 c11 -8 16 -19 12 -30 -10 -27 -34 -18 -39
14 -5 33 0 36 27 16z m-90 -44 c-1 -1 -9 0 -18 4 -14 5 -15 10 -5 27 12 22 12
22 18 -3 4 -14 6 -26 5 -28z m35 44 c0 -3 -4 -8 -10 -11 -5 -3 -10 -1 -10 4 0
6 5 11 10 11 6 0 10 -2 10 -4z"/>
<path d="M1935 3064 c-50 -26 -56 -46 -22 -69 21 -13 33 -14 96 -2 90 18 103
28 71 62 -18 20 -33 25 -69 25 -25 0 -59 -7 -76 -16z m59 -25 c-3 -5 -10 -7
-15 -3 -5 3 -7 10 -3 15 3 5 10 7 15 3 5 -3 7 -10 3 -15z m72 6 c16 -13 17
-16 4 -25 -25 -17 -40 -11 -40 15 0 29 8 31 36 10z m-106 -20 c0 -15 -6 -25
-14 -25 -23 0 -28 17 -10 34 21 21 24 20 24 -9z"/>
<path d="M2191 3048 c-1 -16 8 -55 20 -88 27 -78 22 -90 -36 -90 -40 0 -45 3
-45 22 0 16 -3 19 -11 11 -40 -40 49 -79 109 -47 32 17 41 41 23 60 -6 5 -21
43 -35 84 -16 50 -25 66 -25 48z"/>
<path d="M2279 2816 c-2 -3 -63 -8 -134 -11 -130 -7 -166 -17 -132 -36 9 -6
24 -23 32 -39 20 -38 69 -63 123 -62 59 0 87 22 121 92 24 52 26 60 11 60 -9
0 -19 -2 -21 -4z m-12 -43 c-24 -24 -197 -32 -215 -11 -9 12 -1 13 51 10 34
-1 82 1 107 6 71 15 77 15 57 -5z"/>
</g>
</svg>
